<?xml version="1.0" encoding="utf-8"?>
<!-- Generator: Adobe Illustrator 22.0.0, SVG Export Plug-In . SVG Version: 6.00 Build 0)  -->
<svg version="1.1" id="Layer_1" xmlns="http://www.w3.org/2000/svg" xmlns:xlink="http://www.w3.org/1999/xlink" x="0px" y="0px"
	 viewBox="0 0 14 15.045" enable-background="new 0 0 14 15.045" xml:space="preserve">
<g>
	<path d="M3.526,8.915c0.514,0,0.931-0.417,0.931-0.931S4.04,7.053,3.526,7.053c-0.514,0-0.931,0.417-0.931,0.931
		S3.012,8.915,3.526,8.915z"/>
	<path d="M3.526,5.502c0.514,0,0.931-0.417,0.931-0.931S4.04,3.64,3.526,3.64c-0.514,0-0.931,0.417-0.931,0.931
		S3.012,5.502,3.526,5.502z"/>
	<path d="M11.252,1.045V0.634c0-0.35-0.284-0.634-0.634-0.634c-0.35,0-0.633,0.284-0.633,0.634v0.411H7.603V0.634
		C7.603,0.284,7.319,0,6.969,0c-0.35,0-0.633,0.284-0.633,0.634v0.411H3.582V0.634C3.582,0.284,3.298,0,2.948,0
		c-0.35,0-0.633,0.284-0.633,0.634v0.411H0v14h14v-14H11.252z M13,14.045H1v-12h12V14.045z"/>
	<path d="M3.526,12.329c0.514,0,0.931-0.417,0.931-0.931s-0.417-0.931-0.931-0.931c-0.514,0-0.931,0.417-0.931,0.931
		S3.012,12.329,3.526,12.329z"/>
	<path d="M6.94,8.915c0.514,0,0.931-0.417,0.931-0.931S7.454,7.053,6.94,7.053c-0.514,0-0.931,0.417-0.931,0.931
		S6.426,8.915,6.94,8.915z"/>
	<path d="M6.94,5.502c0.514,0,0.931-0.417,0.931-0.931S7.454,3.64,6.94,3.64c-0.514,0-0.931,0.417-0.931,0.931
		S6.426,5.502,6.94,5.502z"/>
	<path d="M6.94,12.329c0.514,0,0.931-0.417,0.931-0.931s-0.417-0.931-0.931-0.931c-0.514,0-0.931,0.417-0.931,0.931
		S6.426,12.329,6.94,12.329z"/>
	<path d="M10.354,8.915c0.514,0,0.931-0.417,0.931-0.931s-0.417-0.931-0.931-0.931c-0.514,0-0.931,0.417-0.931,0.931
		S9.84,8.915,10.354,8.915z"/>
	<path d="M10.354,5.502c0.514,0,0.931-0.417,0.931-0.931S10.868,3.64,10.354,3.64c-0.514,0-0.931,0.417-0.931,0.931
		S9.84,5.502,10.354,5.502z"/>
</g>
</svg>
