<?xml version="1.0" encoding="utf-8"?>
<!-- Generator: Adobe Illustrator 22.0.0, SVG Export Plug-In . SVG Version: 6.00 Build 0)  -->
<svg version="1.1" id="Layer_1" xmlns="http://www.w3.org/2000/svg" xmlns:xlink="http://www.w3.org/1999/xlink" x="0px" y="0px"
	 viewBox="0 0 14 15" style="enable-background:new 0 0 14 15;" xml:space="preserve">
<style type="text/css">
	.st0{fill:none;}
	.st1{fill:#000000;}
</style>
<g id="Symbol_78_5" transform="translate(-20090 4499)">
	<g id="Rectangle_4574" transform="translate(1128.531 657.899)">
		<rect x="18961.5" y="-5155.9" class="st0" width="14" height="14"/>
		<g>
			<path class="st1" d="M18975.5-5141.9h-14v-14h14V-5141.9z M18962.5-5142.9h12v-12h-12V-5142.9z"/>
		</g>
	</g>
	<path id="Rectangle_4558" class="st1" d="M20093.5-4491.9L20093.5-4491.9c0.5,0,0.9,0.4,0.9,0.9l0,0c0,0.5-0.4,0.9-0.9,0.9l0,0
		c-0.5,0-0.9-0.4-0.9-0.9l0,0C20092.6-4491.5,20093-4491.9,20093.5-4491.9z"/>
	<path id="Rectangle_4570" class="st1" d="M20093.5-4495.4L20093.5-4495.4c0.5,0,0.9,0.4,0.9,0.9l0,0c0,0.5-0.4,0.9-0.9,0.9l0,0
		c-0.5,0-0.9-0.4-0.9-0.9l0,0C20092.6-4494.9,20093-4495.4,20093.5-4495.4z"/>
	<path id="Rectangle_4575" class="st1" d="M20100.6-4499L20100.6-4499c0.3,0,0.6,0.3,0.6,0.6v0.6c0,0.4-0.3,0.6-0.6,0.6l0,0
		c-0.4,0-0.6-0.3-0.6-0.6v-0.6C20100-4498.7,20100.3-4499,20100.6-4499z"/>
	<path id="Rectangle_4577" class="st1" d="M20097-4499L20097-4499c0.3,0,0.6,0.3,0.6,0.6v0.6c0,0.4-0.3,0.6-0.6,0.6l0,0
		c-0.3,0-0.6-0.3-0.6-0.6v-0.6C20096.3-4498.7,20096.6-4499,20097-4499z"/>
	<path id="Rectangle_4576" class="st1" d="M20092.9-4499L20092.9-4499c0.4,0,0.6,0.3,0.6,0.6v0.6c0,0.4-0.3,0.6-0.6,0.6l0,0
		c-0.3,0-0.6-0.3-0.6-0.6v-0.6C20092.3-4498.7,20092.6-4499,20092.9-4499z"/>
	<path id="Rectangle_4565" class="st1" d="M20093.5-4488.5L20093.5-4488.5c0.5,0,0.9,0.4,0.9,0.9l0,0c0,0.5-0.4,0.9-0.9,0.9l0,0
		c-0.5,0-0.9-0.4-0.9-0.9l0,0C20092.6-4488.1,20093-4488.5,20093.5-4488.5z"/>
	<path id="Rectangle_4559" class="st1" d="M20096.9-4491.9L20096.9-4491.9c0.5,0,0.9,0.4,0.9,0.9l0,0c0,0.5-0.4,0.9-0.9,0.9l0,0
		c-0.5,0-0.9-0.4-0.9-0.9l0,0C20096-4491.5,20096.4-4491.9,20096.9-4491.9z"/>
	<path id="Rectangle_4571" class="st1" d="M20096.9-4495.4L20096.9-4495.4c0.5,0,0.9,0.4,0.9,0.9l0,0c0,0.5-0.4,0.9-0.9,0.9l0,0
		c-0.5,0-0.9-0.4-0.9-0.9l0,0C20096-4494.9,20096.4-4495.4,20096.9-4495.4z"/>
	<path id="Rectangle_4564" class="st1" d="M20096.9-4488.5L20096.9-4488.5c0.5,0,0.9,0.4,0.9,0.9l0,0c0,0.5-0.4,0.9-0.9,0.9l0,0
		c-0.5,0-0.9-0.4-0.9-0.9l0,0C20096-4488.1,20096.4-4488.5,20096.9-4488.5z"/>
	<path id="Rectangle_4560" class="st1" d="M20100.4-4491.9L20100.4-4491.9c0.5,0,0.9,0.4,0.9,0.9l0,0c0,0.5-0.4,0.9-0.9,0.9l0,0
		c-0.5,0-0.9-0.4-0.9-0.9l0,0C20099.4-4491.5,20099.8-4491.9,20100.4-4491.9z"/>
	<path id="Rectangle_4572" class="st1" d="M20100.4-4495.4L20100.4-4495.4c0.5,0,0.9,0.4,0.9,0.9l0,0c0,0.5-0.4,0.9-0.9,0.9l0,0
		c-0.5,0-0.9-0.4-0.9-0.9l0,0C20099.4-4494.9,20099.8-4495.4,20100.4-4495.4z"/>
</g>
</svg>
