<?xml version="1.0" encoding="utf-8"?>
<!-- Generator: Adobe Illustrator 22.0.0, SVG Export Plug-In . SVG Version: 6.00 Build 0)  -->
<svg version="1.1" id="Layer_1" xmlns="http://www.w3.org/2000/svg" xmlns:xlink="http://www.w3.org/1999/xlink" x="0px" y="0px"
	 viewBox="0 0 22 22" style="enable-background:new 0 0 22 22;" xml:space="preserve">
<style type="text/css">
	.st0{fill:#000000;}
	.st1{fill:none;}
</style>
<polygon class="st0" points="16.2,15.4 11.8,11 16.2,6.6 15.4,5.8 11,10.2 6.6,5.8 5.8,6.6 10.2,11 5.8,15.4 6.6,16.2 11,11.8 
	15.4,16.2 "/>
<circle class="st1" cx="11" cy="11" r="11"/>
<g>
	<path class="st0" d="M11,22C4.9,22,0,17.1,0,11S4.9,0,11,0s11,4.9,11,11S17.1,22,11,22z M11,1.2c-5.4,0-9.8,4.4-9.8,9.8
		c0,5.4,4.4,9.8,9.8,9.8c5.4,0,9.8-4.4,9.8-9.8C20.8,5.6,16.4,1.2,11,1.2z"/>
</g>
</svg>
