<?xml version="1.0" encoding="utf-8"?>
<!-- Generator: Adobe Illustrator 22.0.0, SVG Export Plug-In . SVG Version: 6.00 Build 0)  -->
<svg version="1.1" id="Layer_1" xmlns="http://www.w3.org/2000/svg" xmlns:xlink="http://www.w3.org/1999/xlink" x="0px" y="0px"
	 viewBox="0 0 24 24.9" style="enable-background:new 0 0 24 24.9;" xml:space="preserve">
<style type="text/css">
	.st0{fill:#000000;}
</style>
<g id="icon-edit" transform="translate(-21250 5122)">
	<g id="Group_1316" transform="translate(1178 359.043)">
		<path id="Path_3947" class="st0" d="M20095.7-5478.7l-1.8-1.8c-0.2-0.2-0.5-0.4-0.8-0.4c-0.1,0-0.1,0-0.2,0
			c-0.2,0-0.4,0.1-0.5,0.2l-1.8,1.8l-11.6,11.6c-0.1,0.1-0.1,0.2-0.1,0.3l-0.8,3.3c0,0.1,0,0.1,0,0.2c0,0.2,0.1,0.3,0.2,0.4
			s0.2,0.2,0.4,0.2c0.1,0,0.1,0,0.2,0l3.2-0.9c0.1,0,0.2-0.1,0.3-0.2l11.6-11.6l1.8-1.8c0.2-0.2,0.3-0.4,0.3-0.7
			C20096-5478.4,20095.9-5478.6,20095.7-5478.7z M20081.5-5465.1l-2.1,0.5l0.5-2.1l0.1-0.1l1.6,1.6L20081.5-5465.1z M20082.4-5466
			l-1.6-1.6l10.1-10.1l1.6,1.6L20082.4-5466z M20093.4-5477l-1.6-1.6l1.2-1.2l1.6,1.6L20093.4-5477z"/>
	</g>
	<path class="st0" d="M21270.4-5102.5c1-1.6,1.6-3.6,1.6-5.6c0-1.3-0.2-2.6-0.7-3.7l-0.9,0.9c0.3,0.9,0.4,1.8,0.4,2.8
		c0,5.4-4.4,9.8-9.8,9.8s-9.8-4.4-9.8-9.8s4.4-9.8,9.8-9.8c0.7,0,1.3,0.1,2,0.2l1-1c-0.9-0.3-1.9-0.4-3-0.4c-6.1,0-11,4.9-11,11
		s4.9,11,11,11C21265-5097.2,21268.5-5099.3,21270.4-5102.5z"/>
</g>
</svg>
