<?xml version="1.0" encoding="utf-8"?>
<!-- Generator: Adobe Illustrator 22.0.0, SVG Export Plug-In . SVG Version: 6.00 Build 0)  -->
<svg version="1.1" id="Layer_1" xmlns="http://www.w3.org/2000/svg" xmlns:xlink="http://www.w3.org/1999/xlink" x="0px" y="0px"
	 viewBox="0 0 24.457 23.158" enable-background="new 0 0 24.457 23.158" xml:space="preserve">
<path d="M23.574,19.472l-1.917,1.933l-1.287-1.274l1.927-1.942l-0.852-0.846l-1.928,1.943l-1.288-1.275l1.937-1.953l-0.852-0.846
	l-1.939,1.954l-1.686-1.67L9.764,9.398c0.912-0.999,1.474-2.324,1.474-3.78c0-3.098-2.521-5.619-5.619-5.619S0,2.52,0,5.618
	s2.521,5.619,5.619,5.619c1.21,0,2.329-0.388,3.247-1.042l5.97,6.144l6.826,6.818l0.848-0.909l1.916-1.932L23.574,19.472z
	 M1.2,5.618c0-2.437,1.982-4.419,4.419-4.419s4.419,1.982,4.419,4.419s-1.982,4.419-4.419,4.419S1.2,8.055,1.2,5.618z"/>
</svg>
