<?xml version="1.0" encoding="utf-8"?>
<!-- Generator: Adobe Illustrator 22.0.0, SVG Export Plug-In . SVG Version: 6.00 Build 0)  -->
<svg version="1.1" id="Layer_1" xmlns="http://www.w3.org/2000/svg" xmlns:xlink="http://www.w3.org/1999/xlink" x="0px" y="0px"
	 viewBox="0 0 24.5 23.2" style="enable-background:new 0 0 24.5 23.2;" xml:space="preserve">
<style type="text/css">
	.st0{fill:none;}
	.st1{fill:#000000;}
</style>
<g>
	<circle class="st0" cx="5.6" cy="5.6" r="4.4"/>
	<path class="st1" d="M24.4,20.3l-0.9-0.8l-1.9,2l-1.3-1.3l1.9-2l-0.9-0.8l-1.9,2L18.2,18l1.9-2l-0.9-0.8l-1.9,2l-1.7-1.7L9.8,9.4
		c0.9-1,1.5-2.3,1.5-3.8C11.2,2.5,8.7,0,5.6,0S0,2.5,0,5.6s2.5,5.6,5.6,5.6c1.2,0,2.3-0.4,3.2-1l6,6.1l6.8,6.8l0.8-0.8l0,0
		L24.4,20.3z M1.2,5.6c0-2.4,2-4.4,4.4-4.4s4.4,2,4.4,4.4S8.1,10,5.6,10S1.2,8.1,1.2,5.6z"/>
</g>
</svg>
