<?xml version="1.0" encoding="utf-8"?>
<!-- Generator: Adobe Illustrator 22.0.0, SVG Export Plug-In . SVG Version: 6.00 Build 0)  -->
<svg version="1.1" id="Layer_1" xmlns="http://www.w3.org/2000/svg" xmlns:xlink="http://www.w3.org/1999/xlink" x="0px" y="0px"
	 viewBox="0 0 24 16" style="enable-background:new 0 0 24 16;" xml:space="preserve">
<style type="text/css">
	.st0{fill:none;}
	.st1{fill:#000000;}
</style>
<g>
	<path d="M10.4,9.7c0.2,0.9,0.9,1.3,1.6,1.3c1,0,1.6-0.3,1.6-1.3c0-0.7-0.3-1.2-1.6-1.5c-1.3-0.3-2-0.8-2-1.8c0-1,0.8-1.7,1.9-1.7
		c1.5,0,2,0.9,2,1.5h-0.5c-0.2-0.6-0.6-1.1-1.5-1.1c-1,0-1.4,0.5-1.4,1.2c0,0.7,0.4,1,1.5,1.3c1.7,0.4,2.1,1.1,2.1,2
		c0,1.1-0.8,1.8-2.2,1.8c-1.2,0-2-0.8-2.1-1.8H10.4z M11.8,12.4V4.1h0.5v8.4H11.8z"/>
</g>
<g>
	<path class="st0" d="M1.2,14.8h21.6V1.2H1.2V14.8z M17.5,13.2h4v0.6h-4V13.2z M2.5,2.2h4v0.6h-4V2.2z"/>
	<path class="st1" d="M0,0v16h24V0H0z M22.8,14.8H1.2V1.2h21.6V14.8z"/>
	<rect x="2.5" y="2.2" class="st1" width="4" height="0.6"/>
	<rect x="17.5" y="13.2" class="st1" width="4" height="0.6"/>
</g>
</svg>
