<?xml version="1.0" encoding="utf-8"?>
<!-- Generator: Adobe Illustrator 22.0.0, SVG Export Plug-In . SVG Version: 6.00 Build 0)  -->
<svg version="1.1" id="Layer_1" xmlns="http://www.w3.org/2000/svg" xmlns:xlink="http://www.w3.org/1999/xlink" x="0px" y="0px"
	 viewBox="0 0 24.178 24.549" enable-background="new 0 0 24.178 24.549" xml:space="preserve">
<g>
	<path d="M12.089,0.845c-4.062,0-7.367,3.305-7.367,7.367s3.305,7.366,7.367,7.366s7.367-3.304,7.367-7.366
		S16.151,0.845,12.089,0.845z M12.089,14.379c-3.4,0-6.167-2.767-6.167-6.167s2.767-6.167,6.167-6.167
		c3.401,0,6.167,2.767,6.167,6.167S15.49,14.379,12.089,14.379z"/>
	<path d="M0.506,22.399h1.213c0.439-3.152,2.28-5.855,4.876-7.462c-0.335-0.253-0.649-0.531-0.944-0.828
		C2.876,15.949,0.936,18.942,0.506,22.399z"/>
	<path d="M18.528,14.109c-0.295,0.298-0.609,0.576-0.944,0.828c2.596,1.607,4.437,4.309,4.876,7.462h1.212
		C23.242,18.942,21.302,15.949,18.528,14.109z"/>
	<path d="M10.636,16.718l-0.697,6.557l2.036,1.274l2.037-1.274l-0.708-6.557H10.636z M11.975,23.133l-0.764-0.478l0.503-4.738h0.512
		l0.512,4.738L11.975,23.133z"/>
</g>
</svg>
