<?xml version="1.0" encoding="utf-8"?>
<!-- Generator: Adobe Illustrator 22.0.0, SVG Export Plug-In . SVG Version: 6.00 Build 0)  -->
<svg version="1.1" id="Layer_1" xmlns="http://www.w3.org/2000/svg" xmlns:xlink="http://www.w3.org/1999/xlink" x="0px" y="0px"
	 viewBox="0 0 42 51.3" style="enable-background:new 0 0 42 51.3;" xml:space="preserve">
<style type="text/css">
	.st0{fill:none;}
	.st1{fill:#000000;}
</style>
<g>
	<rect x="13.2" y="46.5" class="st0" width="15.6" height="3.6"/>
	<rect x="20.2" y="27.5" class="st0" width="1.6" height="3.6"/>
	<rect x="34.2" y="36.5" class="st0" width="1.6" height="3.6"/>
	<rect x="27.2" y="36.5" class="st0" width="1.6" height="3.6"/>
	<rect x="27.2" y="27.5" class="st0" width="1.6" height="3.6"/>
	<rect x="34.2" y="27.5" class="st0" width="1.6" height="3.6"/>
	<polygon class="st0" points="23.8,8 21.3,2.7 18.5,8 21.3,8 	"/>
	<path class="st0" d="M33.8,9.5H8.2v11.6h25.6V9.5z M16,18.3h-4v-6h4V18.3z M23,18.3h-4v-6h4V18.3z M30,18.3h-4v-6h4V18.3z"/>
	<rect x="13.2" y="13.5" class="st0" width="1.6" height="3.6"/>
	<rect x="27.2" y="13.5" class="st0" width="1.6" height="3.6"/>
	<rect x="20.2" y="13.5" class="st0" width="1.6" height="3.6"/>
	<rect x="13.2" y="36.5" class="st0" width="1.6" height="3.6"/>
	<rect x="6.2" y="27.5" class="st0" width="1.6" height="3.6"/>
	<path class="st0" d="M1.2,50.1H12v-4.8h18v4.8h10.8V22.5H1.2V50.1z M33,26.3h4v6h-4V26.3z M33,35.3h4v6h-4V35.3z M26,26.3h4v6h-4
		V26.3z M26,35.3h4v6h-4V35.3z M19,26.3h4v6h-4V26.3z M19,35.3h4v6h-4V35.3z M12,26.3h4v6h-4V26.3z M12,35.3h4v6h-4V35.3z M5,26.3h4
		v6H5V26.3z M5,35.3h4v6H5V35.3z"/>
	<rect x="6.2" y="36.5" class="st0" width="1.6" height="3.6"/>
	<rect x="13.2" y="27.5" class="st0" width="1.6" height="3.6"/>
	<rect x="20.2" y="36.5" class="st0" width="1.6" height="3.6"/>
	<path class="st1" d="M35,21.3v-13h-9.7L21.4,0L17,8.3H7v13H0v30h12h18h12v-30H35z M21.3,2.7L23.8,8l-2.5,0l-2.8,0L21.3,2.7z
		 M8.2,9.5h25.6v11.6H8.2V9.5z M13.2,50.1v-3.6h15.6v3.6H13.2z M40.8,50.1H30v-4.8H12v4.8H1.2V22.5h39.6V50.1z"/>
	<path class="st1" d="M9,26.3H5v6h4V26.3z M7.8,31.1H6.2v-3.6h1.6V31.1z"/>
	<path class="st1" d="M16,26.3h-4v6h4V26.3z M14.8,31.1h-1.6v-3.6h1.6V31.1z"/>
	<path class="st1" d="M12,18.3h4v-6h-4V18.3z M13.2,13.5h1.6v3.6h-1.6V13.5z"/>
	<path class="st1" d="M23,26.3h-4v6h4V26.3z M21.8,31.1h-1.6v-3.6h1.6V31.1z"/>
	<path class="st1" d="M19,18.3h4v-6h-4V18.3z M20.2,13.5h1.6v3.6h-1.6V13.5z"/>
	<path class="st1" d="M30,26.3h-4v6h4V26.3z M28.8,31.1h-1.6v-3.6h1.6V31.1z"/>
	<path class="st1" d="M26,18.3h4v-6h-4V18.3z M27.2,13.5h1.6v3.6h-1.6V13.5z"/>
	<path class="st1" d="M37,26.3h-4v6h4V26.3z M35.8,31.1h-1.6v-3.6h1.6V31.1z"/>
	<path class="st1" d="M9,35.3H5v6h4V35.3z M7.8,40.1H6.2v-3.6h1.6V40.1z"/>
	<path class="st1" d="M16,35.3h-4v6h4V35.3z M14.8,40.1h-1.6v-3.6h1.6V40.1z"/>
	<path class="st1" d="M23,35.3h-4v6h4V35.3z M21.8,40.1h-1.6v-3.6h1.6V40.1z"/>
	<path class="st1" d="M30,35.3h-4v6h4V35.3z M28.8,40.1h-1.6v-3.6h1.6V40.1z"/>
	<path class="st1" d="M37,35.3h-4v6h4V35.3z M35.8,40.1h-1.6v-3.6h1.6V40.1z"/>
</g>
</svg>
