<?xml version="1.0" encoding="utf-8"?>
<!-- Generator: Adobe Illustrator 22.0.0, SVG Export Plug-In . SVG Version: 6.00 Build 0)  -->
<svg version="1.1" id="Layer_1" xmlns="http://www.w3.org/2000/svg" xmlns:xlink="http://www.w3.org/1999/xlink" x="0px" y="0px"
	 viewBox="0 0 24.2 22.4" style="enable-background:new 0 0 24.2 22.4;" xml:space="preserve">
<style type="text/css">
	.st0{fill:none;}
	.st1{fill:#000000;}
</style>
<g>
	<path class="st0" d="M12.1,14.4c3.4,0,6.2-2.8,6.2-6.2S15.5,2,12.1,2C8.7,2,5.9,4.8,5.9,8.2S8.7,14.4,12.1,14.4z"/>
	<path class="st1" d="M4.7,8.2c0,4.1,3.3,7.4,7.4,7.4s7.4-3.3,7.4-7.4c0-4.1-3.3-7.4-7.4-7.4S4.7,4.2,4.7,8.2z M12.1,2
		c3.4,0,6.2,2.8,6.2,6.2s-2.8,6.2-6.2,6.2c-3.4,0-6.2-2.8-6.2-6.2S8.7,2,12.1,2z"/>
	<path class="st1" d="M1.7,22.4c0.4-3.2,2.3-5.9,4.9-7.5c-0.3-0.3-0.6-0.5-0.9-0.8c-2.8,1.8-4.7,4.8-5.1,8.3H1.7z"/>
	<path class="st1" d="M18.5,14.1c-0.3,0.3-0.6,0.6-0.9,0.8c2.6,1.6,4.4,4.3,4.9,7.5h1.2C23.2,18.9,21.3,16,18.5,14.1z"/>
</g>
</svg>
