<svg xmlns="http://www.w3.org/2000/svg" xmlns:xlink="http://www.w3.org/1999/xlink" viewBox="0 0 25 21.971"><defs><symbol id="a" viewBox="0 0 25 21.971"><path d="M17.914,4.222a2.6,2.6,0,0,0,4.551.4h-2.4a.287.287,0,0,1-.289-.289V2.024a.289.289,0,0,1,.289-.289h2.4a2.6,2.6,0,0,0-4.551.405.288.288,0,0,1-.264.173H8.593a.289.289,0,0,1-.265-.173,2.6,2.6,0,0,0-4.55-.4h2.4a.289.289,0,0,1,.289.289V4.337a.289.289,0,0,1-.289.289h-2.4a2.6,2.6,0,0,0,4.55-.405.3.3,0,0,1,.06-.088.293.293,0,0,1,.205-.085h9.056A.289.289,0,0,1,17.914,4.222Z" style="fill:none"/><path d="M20.3,6.361a3.179,3.179,0,0,0,2.916-1.908.289.289,0,0,0-.265-.405h-2.6V2.313h2.6a.289.289,0,0,0,.265-.405,3.181,3.181,0,0,0-5.749-.173H8.776a3.182,3.182,0,0,0-5.75.173.289.289,0,0,0,.265.405h2.6V4.048h-2.6a.289.289,0,0,0-.265.405,3.182,3.182,0,0,0,5.75.173h8.691A3.182,3.182,0,0,0,20.3,6.361ZM8.593,4.048a.293.293,0,0,0-.205.085.3.3,0,0,0-.06.088,2.6,2.6,0,0,1-4.55.405h2.4a.289.289,0,0,0,.289-.289V2.024a.289.289,0,0,0-.289-.289h-2.4a2.6,2.6,0,0,1,4.55.405.289.289,0,0,0,.265.173H17.65a.288.288,0,0,0,.264-.173,2.6,2.6,0,0,1,4.551-.4h-2.4a.289.289,0,0,0-.289.289V4.337a.287.287,0,0,0,.289.289h2.4a2.6,2.6,0,0,1-4.551-.4.289.289,0,0,0-.265-.174Z"/><path d="M19.584,17.8a2.084,2.084,0,1,0,2.083,2.084A2.087,2.087,0,0,0,19.584,17.8Zm0,3.334a1.25,1.25,0,1,1,1.25-1.25A1.252,1.252,0,0,1,19.584,21.138Z" style="fill:#010101"/><path d="M5.417,17.8A2.084,2.084,0,1,0,7.5,19.888,2.087,2.087,0,0,0,5.417,17.8Zm0,3.334a1.25,1.25,0,1,1,1.25-1.25A1.252,1.252,0,0,1,5.417,21.138Z" style="fill:#010101"/><path d="M24.584,17.8V15.3a.416.416,0,0,0-.285-.395l-2.352-.784a6.393,6.393,0,0,0-4.792-3.4l-.015,0c-4.967-.687-8.7.433-11.09,3.331-2.768.04-5.633.913-5.633,2.5V17.8A.417.417,0,0,0,0,18.221v1.667a.417.417,0,0,0,.417.416H2.083a.417.417,0,0,0,.417-.416,2.917,2.917,0,1,1,5.833,0,.417.417,0,0,0,.417.416h7.5a.417.417,0,0,0,.417-.416,2.917,2.917,0,1,1,5.833,0,.417.417,0,0,0,.417.416h1.666A.417.417,0,0,0,25,19.888V18.221A.417.417,0,0,0,24.584,17.8Zm-5.4-5.476a5.591,5.591,0,0,1,1.731,1.726H19.171Zm-5.02-.966a18.961,18.961,0,0,1,2.852.188,6.885,6.885,0,0,1,1.339.369l-.02,2.136H14.167Zm-.834.036v2.657H7.176A9.1,9.1,0,0,1,13.333,11.4Zm10.834,8.073h-.856a3.751,3.751,0,0,0-7.455,0H9.144a3.75,3.75,0,0,0-7.454,0H.833v-.833a.417.417,0,0,0,.417-.417v-1.25h.417a.417.417,0,0,0,0-.833H1.451c.564-.612,2.288-1.25,4.8-1.25H21.6l2.151.717v.533h-.416a.417.417,0,1,0,0,.833h.416v1.25a.417.417,0,0,0,.417.417Z" style="fill:#010101"/></symbol></defs><title>service-car-repair</title><use width="25" height="21.971" xlink:href="#a"/></svg>