<svg xmlns="http://www.w3.org/2000/svg" xmlns:xlink="http://www.w3.org/1999/xlink" viewBox="0 0 22.243 25"><defs><symbol id="a" viewBox="0 0 22.243 25"><path d="M4.933,1.231H3.288A1.479,1.479,0,0,0,1.813,2.706V4.9A1.982,1.982,0,0,0,3.794,6.878h.633A1.982,1.982,0,0,0,6.408,4.9V2.706A1.476,1.476,0,0,0,4.933,1.231Zm.709,3.661A1.209,1.209,0,0,1,4.432,6.1H3.794a1.209,1.209,0,0,1-1.21-1.21V2.88l3.063.934,0,1.078Zm0-1.879-2.8-.858A.69.69,0,0,1,3.288,2H4.933a.707.707,0,0,1,.709.709v.307Z" style="fill:#010101"/><path d="M20.573,7.179V3.518a2.3,2.3,0,0,0-4.6.005V4.57a1.918,1.918,0,0,0,.016.255V7.144a2.114,2.114,0,0,0-1.828,2.093v6.654a.382.382,0,0,0,.383.382h.362L14.486,18a.4.4,0,0,0,.072.327.384.384,0,0,0,.3.148h1.134v6.133a.382.382,0,0,0,.383.383h3.656a.383.383,0,0,0,.383-.383V18.49h1.133a.385.385,0,0,0,.3-.148.4.4,0,0,0,.072-.327L21.5,16.284h.363a.383.383,0,0,0,.383-.383V9.242A2.124,2.124,0,0,0,20.573,7.179ZM18.275,2a1.531,1.531,0,0,1,1.43.98l-2.308-.7A1.512,1.512,0,0,1,18.275,2Zm-1.409.919,2.941.9v.761a1.531,1.531,0,0,1-3.048.21V4.432a.335.335,0,0,0-.016-.1v-.8h0A1.538,1.538,0,0,1,16.866,2.916Zm-.113,4.217V6.3a2.276,2.276,0,0,0,1.517.572A2.308,2.308,0,0,0,19.8,6.286v.847H16.753Zm1.063,12.919v4.187H16.759V18.49h1.057Zm.765,4.187V18.484h1.063v5.755Zm2.885-8.726H20.41V9.344a.383.383,0,1,0-.766,0V15.9a.382.382,0,0,0,.383.383H20.7l.352,1.44H15.344l.352-1.44h.674a.382.382,0,0,0,.383-.383V9.344a.383.383,0,1,0-.765,0v6.169H14.931V9.242A1.344,1.344,0,0,1,16.273,7.9h3.851a1.344,1.344,0,0,1,1.342,1.343v6.271Z" style="fill:#010101"/><rect x="10.657" width="0.919" height="24.954" style="fill:#010101"/><path d="M5.959,7.133H2.109A2.11,2.11,0,0,0,0,9.242V15.9a.383.383,0,0,0,.383.383h1.44v8.338A.383.383,0,0,0,2.206,25H5.862a.383.383,0,0,0,.383-.383V16.284H7.69a.383.383,0,0,0,.383-.383V9.242A2.114,2.114,0,0,0,5.959,7.133ZM3.651,24.239H2.589V17.157H3.646v7.082Zm1.828,0H4.422V17.157H5.479ZM7.3,15.513H6.245V9.344a.383.383,0,0,0-.766,0v7.047H2.589V9.344a.383.383,0,0,0-.766,0v6.169H.766V9.242A1.345,1.345,0,0,1,2.109,7.9h3.85A1.345,1.345,0,0,1,7.3,9.242v6.271Z" style="fill:#010101"/></symbol></defs><title>service-toilet</title><use width="22.243" height="25" xlink:href="#a"/></svg>