<svg xmlns="http://www.w3.org/2000/svg" xmlns:xlink="http://www.w3.org/1999/xlink" viewBox="0 0 25 24.534"><defs><symbol id="a" viewBox="0 0 25 24.534"><path d="M12.5,0,0,5.915V9.732H1.7v14.8H2.742V9.732H22.258v14.8H23.3V9.732H25V5.865ZM23.958,8.69H1.042V6.574L12.5,1.152,23.958,6.527V8.69Z" style="fill:#010101"/><path d="M11.92,13.934H7.155v4.7H11.92Zm-1.041,3.659H8.2V14.976h2.683Z" style="fill:#010101"/><path d="M17.845,13.934H13.079v4.7h4.766ZM16.8,17.593H14.121V14.976H16.8Z" style="fill:#010101"/><path d="M4.247,24.248H9.013v-4.7H4.247Zm1.042-3.659H7.971v2.618H5.289Z" style="fill:#010101"/><path d="M10.117,24.248h4.766v-4.7H10.117Zm1.041-3.659h2.683v2.618H11.158Z" style="fill:#010101"/><path d="M15.987,24.248h4.766v-4.7H15.987Zm1.042-3.659h2.682v2.618H17.029Z" style="fill:#010101"/><rect x="4.61" y="6.474" width="2.482" height="1.042" style="fill:#010101"/><rect x="11.259" y="6.474" width="2.482" height="1.042" style="fill:#010101"/><rect x="17.908" y="6.474" width="2.482" height="1.042" style="fill:#010101"/></symbol></defs><title>service-pick-up-point</title><use width="25" height="24.534" xlink:href="#a"/></svg>