<svg xmlns="http://www.w3.org/2000/svg" xmlns:xlink="http://www.w3.org/1999/xlink" viewBox="0 0 22.87 25"><defs><symbol id="a" viewBox="0 0 22.87 25"><path d="M20.354,13.262a.425.425,0,1,0,.6-.6,4.078,4.078,0,0,1,0-5.762.425.425,0,1,0-.6-.6A4.93,4.93,0,0,0,20.354,13.262Z" style="fill:#010101"/><path d="M22.144,12.294a.425.425,0,0,0,.6-.6,2.793,2.793,0,0,1,0-3.944.425.425,0,1,0-.6-.6,3.641,3.641,0,0,0,0,5.146Z" style="fill:#010101"/><path d="M14.251,14.431c1.38-1.347,2.807-2.739,2.807-5.9A8.529,8.529,0,0,0,0,8.528a.6.6,0,1,0,1.191,0,7.339,7.339,0,0,1,14.677,0c0,2.663-1.083,3.719-2.452,5.055a8.878,8.878,0,0,0-3.3,7.054,3.172,3.172,0,0,1-6.344,0,.6.6,0,0,0-1.191,0,4.363,4.363,0,0,0,8.726,0C11.309,17.306,12.8,15.844,14.251,14.431Z" style="fill:#010101"/><path d="M8.441,7.563A2.524,2.524,0,0,0,5.993,9.5l0,.145a4.116,4.116,0,0,1,.758.221,1.705,1.705,0,1,1,2.084,1.884,4.056,4.056,0,0,1,.3.757,2.519,2.519,0,0,0-.7-4.941Z" style="fill:#010101"/><path d="M8.974,3.965A4.711,4.711,0,0,0,4.332,8.05l-.02.07a.569.569,0,0,0-.058.261l.075,2.261s.011.018.014.045l0,.04-.01.063A.6.6,0,0,0,5,11.273a2.382,2.382,0,0,1,1.455.322,2.374,2.374,0,0,1-2.424,4.082A.6.6,0,0,0,3.42,16.7,3.565,3.565,0,0,0,8.3,15.455a3.542,3.542,0,0,0-2.589-5.341L5.5,10.085,5.453,8.657l0-.017a3.515,3.515,0,0,1,7.03.032.6.6,0,0,0,1.191,0A4.712,4.712,0,0,0,8.974,3.965Z" style="fill:#010101"/></symbol></defs><title>service-hearing-aid-loop</title><use width="22.87" height="25" xlink:href="#a"/></svg>