<svg xmlns="http://www.w3.org/2000/svg" xmlns:xlink="http://www.w3.org/1999/xlink" viewBox="0 0 25 23.214"><defs><symbol id="a" viewBox="0 0 25 23.214"><path d="M16.518.893H9.375V22.321h7.143a.446.446,0,0,0,.446-.446V1.339A.446.446,0,0,0,16.518.893Z" style="fill:none"/><path d="M8.482.893H1.339a.446.446,0,0,0-.446.446V21.875a.446.446,0,0,0,.446.446H8.482V.893Z" style="fill:none"/><path d="M16.518,0H1.339A1.341,1.341,0,0,0,0,1.339V21.875a1.341,1.341,0,0,0,1.339,1.339H16.518a1.341,1.341,0,0,0,1.339-1.339V1.339A1.341,1.341,0,0,0,16.518,0ZM8.482,22.321H1.339a.446.446,0,0,1-.446-.446V1.339A.446.446,0,0,1,1.339.893H8.482V22.321Zm8.482-.446a.446.446,0,0,1-.446.446H9.375V.893h7.143a.446.446,0,0,1,.446.446Z" style="fill:#010101"/><path d="M24.869,15.756a.445.445,0,0,0-.631,0l-1.47,1.47V5.989l1.47,1.47a.447.447,0,0,0,.631-.632L22.637,4.6a.447.447,0,0,0-.631,0L19.774,6.827a.447.447,0,0,0,.631.632l1.47-1.47V17.226l-1.47-1.47a.446.446,0,0,0-.631.631l2.232,2.232.009.009.023.021.019.013.016.013.021.012.017.01.021.01.018.009.021.008.021.007.02,0,.022,0,.024,0,.019,0,.044,0,.045,0,.019,0,.024,0,.022,0,.02,0,.021-.007.02-.008.019-.009.021-.01.017-.01.02-.012.017-.013.019-.013.023-.021.009-.009,2.232-2.232A.445.445,0,0,0,24.869,15.756Z" style="fill:#010101"/></symbol></defs><title>service-elevator</title><use width="25" height="23.214" xlink:href="#a"/></svg>