<svg xmlns="http://www.w3.org/2000/svg" xmlns:xlink="http://www.w3.org/1999/xlink" viewBox="0 0 9.449 25"><defs><symbol id="a" viewBox="0 0 9.449 25"><path d="M9.449,7.168A2.121,2.121,0,0,0,8.825,5.66L7.245,4.08a1.312,1.312,0,0,1-.388-.935v-.28a.837.837,0,0,0,.432-.732V.837A.837.837,0,0,0,6.452,0H3A.837.837,0,0,0,2.16.837v1.3a.839.839,0,0,0,.432.732v.28A1.312,1.312,0,0,1,2.2,4.08L.625,5.66A2.118,2.118,0,0,0,0,7.168v7.924a1.267,1.267,0,0,0,.341.864,1.265,1.265,0,0,0,0,1.728,1.264,1.264,0,0,0,0,1.727,1.265,1.265,0,0,0,0,1.728A1.267,1.267,0,0,0,0,22v.864A2.136,2.136,0,0,0,2.133,25H7.316a2.136,2.136,0,0,0,2.133-2.133V22a1.266,1.266,0,0,0-.34-.864,1.268,1.268,0,0,0,0-1.728,1.267,1.267,0,0,0,0-1.727,1.268,1.268,0,0,0,0-1.728,1.266,1.266,0,0,0,.34-.864ZM2.97.837A.027.027,0,0,1,3,.81H6.452a.027.027,0,0,1,.027.027v1.3a.027.027,0,0,1-.027.027H3a.027.027,0,0,1-.027-.027ZM.81,7.168A1.317,1.317,0,0,1,1.2,6.233l1.58-1.58A2.118,2.118,0,0,0,3.4,3.145V2.97H6.048v.175a2.117,2.117,0,0,0,.624,1.508l1.58,1.58a1.313,1.313,0,0,1,.387.935v7.924a.46.46,0,0,1-.459.459H1.269a.46.46,0,0,1-.459-.459ZM8.639,16.82a.46.46,0,0,1-.459.459H1.269a.459.459,0,0,1,0-.918H8.18A.46.46,0,0,1,8.639,16.82Zm0,1.728a.459.459,0,0,1-.459.458H1.269a.459.459,0,1,1,0-.917H8.18A.459.459,0,0,1,8.639,18.548Zm0,1.727a.46.46,0,0,1-.459.459H1.269a.459.459,0,0,1,0-.918H8.18A.46.46,0,0,1,8.639,20.275Zm0,2.592A1.324,1.324,0,0,1,7.316,24.19H2.133A1.324,1.324,0,0,1,.81,22.867V22a.46.46,0,0,1,.459-.459H8.18A.46.46,0,0,1,8.639,22Z" style="fill:#010101"/><path d="M4.725,13.769a2.135,2.135,0,0,0,2.132-2.133c0-1.028-1.5-3.251-1.8-3.686a.405.405,0,0,0-.667,0c-.3.435-1.8,2.658-1.8,3.686A2.136,2.136,0,0,0,4.725,13.769ZM4.208,9.758c.183-.316.368-.611.518-.845a8.546,8.546,0,0,1,1.322,2.723,1.323,1.323,0,0,1-2.646,0A4.7,4.7,0,0,1,4.208,9.758Z" style="fill:#010101"/></symbol></defs><title>service-drinking-water</title><use width="9.449" height="25" xlink:href="#a"/></svg>