<svg xmlns="http://www.w3.org/2000/svg" xmlns:xlink="http://www.w3.org/1999/xlink" viewBox="0 0 25 19.167"><defs><symbol id="a" viewBox="0 0 25 19.167"><path d="M0,9.5v9.25a.394.394,0,0,0,.417.417H1.25a1.228,1.228,0,0,0,1.25-1.25V15.834H8.141A2.5,2.5,0,0,0,12.5,14.167c0-.027,0-.054,0-.081l1.565-1.565L18.542,17a.4.4,0,0,0,.583,0l.292-.291.833.833a.326.326,0,0,0,.292.125.377.377,0,0,0,.291-.125l.292-.292.833.834a.3.3,0,0,0,.25.125.38.38,0,0,0,.292-.125l2.375-2.375a.4.4,0,0,0,0-.584l-.812-.812L24.375,14a.4.4,0,0,0,0-.583l-.833-.834.291-.291a.4.4,0,0,0,0-.584L11.958.125a.4.4,0,0,0-.583,0L9.248,2.311a.447.447,0,0,0-.081.064.436.436,0,0,0-.071.092L6.875,4.75a.4.4,0,0,0,0,.583l4.854,4.855-1.491,1.491A2.341,2.341,0,0,0,10,11.667a2.493,2.493,0,0,0-1.859.833H2.5V10.333a1.228,1.228,0,0,0-1.25-1.25H.416A.394.394,0,0,0,0,9.5Zm21.708,7.167,1.75-1.75.542.5-1.75,1.75ZM20,16.125l2.958-2.958.5.541-.256.261a.338.338,0,0,0-.035.031L22,15.189l-1.457,1.478ZM7.75,5.042l.574-.593L9.792,5.917a.45.45,0,0,0,.291.125.38.38,0,0,0,.292-.125.4.4,0,0,0,0-.584L8.9,3.857l.574-.593.9.9a.451.451,0,0,0,.292.125.377.377,0,0,0,.291-.125.4.4,0,0,0,0-.584l-.911-.911L11.667,1,22.958,12l-.291.292-3.542,3.542-.292.291Zm4.527,8.1a2.525,2.525,0,0,0-1.138-1.2l1.153-1.152,1.166,1.166ZM8.621,15.1a1.72,1.72,0,0,1-.262-.642l0-.024L8.349,14.4l-.005-.042,0-.032,0-.051,0-.026c0-.026,0-.051,0-.078h0c0-.026,0-.052,0-.078l0-.025,0-.052,0-.031.005-.042.006-.039,0-.024a1.715,1.715,0,0,1,.262-.641,1.658,1.658,0,0,1,1.646-.712l.066.02a1.5,1.5,0,0,1,.355.108A1.666,1.666,0,1,1,8.621,15.1Zm-1-.1H2.5V13.333H7.625a2.706,2.706,0,0,0-.167.834A2.7,2.7,0,0,0,7.625,15ZM.833,9.917H1.25a.393.393,0,0,1,.416.416v7.584a.393.393,0,0,1-.416.417H.833Z" style="fill:#010101"/></symbol></defs><title>service-video-surveillance</title><use width="25" height="19.167" xlink:href="#a"/></svg>