<svg xmlns="http://www.w3.org/2000/svg" xmlns:xlink="http://www.w3.org/1999/xlink" viewBox="0 0 25 13.75"><defs><symbol id="a" viewBox="0 0 25 13.75"><path d="M16.691,8.75H19.7L18.229,6.127A3.75,3.75,0,0,0,16.691,8.75Z" style="fill:none"/><path d="M13.5,7.517l2.588-4.6H7.805L7.538,3.6l4.706,4.314A1.653,1.653,0,0,1,13.333,7.5,1.469,1.469,0,0,1,13.5,7.517Z" style="fill:none"/><path d="M5.763,8.148,4.93,9.4a.417.417,0,0,1-.347.185.411.411,0,0,1-.231-.07.416.416,0,0,1-.115-.578l.808-1.212.809-2.08a3.754,3.754,0,1,0,.744.366Z" style="fill:none"/><path d="M13.333,8.333a.834.834,0,1,0,.834.834A.835.835,0,0,0,13.333,8.333Z" style="fill:none"/><path d="M20.417,5.417a3.727,3.727,0,0,0-1.465.3l1.827,3.247a.416.416,0,0,1-.362.621H16.691a3.75,3.75,0,1,0,3.726-4.166Z" style="fill:none"/><path d="M17.817,5.4,16.732,3.465,14.29,7.806a1.667,1.667,0,0,1,.651.944h.913A4.582,4.582,0,0,1,17.817,5.4Z" style="fill:none"/><path d="M20.417,4.583a4.543,4.543,0,0,0-1.873.405L17.209,2.616l.654-1.162a.41.41,0,0,0,.047-.2h.84a.413.413,0,0,0,.294-.122l.417-.417a.416.416,0,0,0-.589-.589l-.295.3h-3.16a.417.417,0,1,0,0,.833h1.6l-.469.833H8.13L8.618.833h1.8a.417.417,0,0,0,0-.833H8.048L6.155,4.867a4.595,4.595,0,1,0,.75.355l.308-.788,4.556,4.177a1.661,1.661,0,1,0,3.172.972h.914a4.582,4.582,0,1,0,4.562-5ZM8.333,9.167A3.764,3.764,0,1,1,5.854,5.643l-.809,2.08L4.237,8.935a.416.416,0,0,0,.115.578.411.411,0,0,0,.231.07A.417.417,0,0,0,4.93,9.4l.833-1.25L6.6,6.009A3.747,3.747,0,0,1,8.333,9.167ZM19.7,8.75H16.691a3.75,3.75,0,0,1,1.538-2.623ZM7.538,3.6l.267-.684h8.28L13.5,7.517a1.469,1.469,0,0,0-.164-.017,1.653,1.653,0,0,0-1.089.415Zm5.8,6.4a.834.834,0,1,1,.834-.833A.834.834,0,0,1,13.333,10Zm2.521-1.25h-.913a1.667,1.667,0,0,0-.651-.944l2.442-4.341L17.817,5.4A4.582,4.582,0,0,0,15.854,8.75Zm4.563,4.167a3.755,3.755,0,0,1-3.726-3.334h3.726a.416.416,0,0,0,.362-.621L18.952,5.715a3.75,3.75,0,1,1,1.465,7.2Z" style="fill:#010101"/></symbol></defs><title>service-bicycle-parking</title><use width="25" height="13.75" xlink:href="#a"/></svg>