<svg xmlns="http://www.w3.org/2000/svg" xmlns:xlink="http://www.w3.org/1999/xlink" viewBox="0 0 25 14.583"><defs><symbol id="a" viewBox="0 0 25 14.583"><path d="M0,10.833A3.75,3.75,0,1,0,5.669,7.618L6.1,6.681A4.585,4.585,0,0,1,8.75,10.833a.417.417,0,0,0,.417.417h6.25a.417.417,0,0,0,.416-.417c0-.137.009-.272.021-.4l.826.15c-.006.084-.013.169-.013.255a3.755,3.755,0,1,0,.159-1.076l-.821-.15A4.589,4.589,0,0,1,20.417,6.25a4.767,4.767,0,0,1,3.828,1.91.417.417,0,0,0,.751-.3l-.417-2.916a.416.416,0,0,0-.281-.336l-2.044-.682.619-1.236a.417.417,0,0,0-.455-.595l-4.166.833a.416.416,0,0,0-.335.408V3.79l-3.485.349A3.053,3.053,0,0,0,12.8,2.6c-1.715-.717-4.167-.186-5.822.413l.366-.976,1.512-.377a.417.417,0,0,0-.2-.809L7.7,1.084,7.89.563A.417.417,0,0,0,7.5,0,5.785,5.785,0,0,0,2.083,5.833.417.417,0,0,0,2.5,6.25H4.167a4.516,4.516,0,0,1,1.14.15l-.4.87A3.744,3.744,0,0,0,0,10.833Zm17.5,0c0-.035,0-.07,0-.105l2.837.515a.388.388,0,0,0,.075.007.417.417,0,0,0,.074-.827l-2.838-.515a2.911,2.911,0,1,1-.153.925ZM4.167,5.417H2.934A5.14,5.14,0,0,1,3.367,3.75h.8a.417.417,0,0,0,0-.833H3.835A4.681,4.681,0,0,1,6.88.884L5.86,3.6a.416.416,0,0,0,.563.525c1.3-.594,4.252-1.519,6.051-.766a2.24,2.24,0,0,1,1.3,1.364A.418.418,0,0,0,14.208,5l4.167-.417a.416.416,0,0,0,.375-.414V3.675l3-.6-.452.9a.417.417,0,0,0,.241.582l2.256.752.2,1.371a5.7,5.7,0,0,0-3.569-1.268,5.424,5.424,0,0,0-5.4,5H9.568A5.425,5.425,0,0,0,4.167,5.417ZM.833,10.833A2.92,2.92,0,0,1,3.75,7.917a2.888,2.888,0,0,1,.815.118L3.371,10.661a.417.417,0,0,0,.206.552.428.428,0,0,0,.173.037.416.416,0,0,0,.379-.244L5.322,8.381A2.915,2.915,0,1,1,.833,10.833Z" style="fill:#010101"/></symbol></defs><title>service-motorcycle-parking</title><use width="25" height="14.583" xlink:href="#a"/></svg>