<svg xmlns="http://www.w3.org/2000/svg" xmlns:xlink="http://www.w3.org/1999/xlink" viewBox="0 0 24.002 25"><defs><symbol id="a" viewBox="0 0 24.002 25"><path d="M12,0A12,12,0,0,0,3.184,20.142l-.669,4.313A.473.473,0,0,0,2.981,25a.464.464,0,0,0,.217-.053l3.87-2A11.882,11.882,0,0,0,12,24,12,12,0,0,0,12,0Zm0,23.057a10.963,10.963,0,0,1-4.742-1.066.47.47,0,0,0-.42.007L3.591,23.68l.562-3.622a.473.473,0,0,0-.126-.4A11.056,11.056,0,1,1,12,23.057Z" style="fill:#010101"/><path d="M11.785,19.958a2.053,2.053,0,0,1-1.5-.62,2.094,2.094,0,0,1-.621-1.514,2.028,2.028,0,0,1,.621-1.482,2.125,2.125,0,0,1,3,0,2.119,2.119,0,0,1-1.493,3.616Zm-.01-3.435a1.277,1.277,0,0,0-.93.389,1.235,1.235,0,0,0-.383.912,1.318,1.318,0,0,0,2.25.948,1.268,1.268,0,0,0,.386-.938,1.249,1.249,0,0,0-.386-.925A1.266,1.266,0,0,0,11.775,16.523ZM13.1,14.789H10.394a.4.4,0,0,1-.4-.4V10.536a.4.4,0,0,1,.14-.3.411.411,0,0,1,.322-.092,4.879,4.879,0,0,0,.72.069A2.884,2.884,0,0,0,12.8,9.76a1.48,1.48,0,0,0,.727-1.343,1.217,1.217,0,0,0-.4-.957,1.233,1.233,0,0,0-1.759.057,1.144,1.144,0,0,0-.291.771c0,.07,0,.149.009.238a.4.4,0,0,1-.4.43H7.847a.4.4,0,0,1-.4-.378c-.008-.138-.012-.239-.012-.3a4.107,4.107,0,0,1,.8-2.381,4.391,4.391,0,0,1,1.8-1.451,5.484,5.484,0,0,1,2.274-.486A4.758,4.758,0,0,1,15.8,5.339,4.294,4.294,0,0,1,17.13,8.48a4.141,4.141,0,0,1-1.051,2.8A5.155,5.155,0,0,1,13.5,12.833v1.555A.4.4,0,0,1,13.1,14.789Zm-2.308-.8H12.7V12.526a.4.4,0,0,1,.3-.389,4.548,4.548,0,0,0,2.466-1.38A3.322,3.322,0,0,0,16.33,8.48a3.471,3.471,0,0,0-1.091-2.573A3.927,3.927,0,0,0,12.31,4.76a4.7,4.7,0,0,0-1.944.413A3.6,3.6,0,0,0,8.89,6.357a3.307,3.307,0,0,0-.651,1.8h2.038A1.925,1.925,0,0,1,10.754,7a1.851,1.851,0,0,1,1.481-.675,2.077,2.077,0,0,1,1.422.54,2,2,0,0,1,.669,1.552,2.256,2.256,0,0,1-1.1,2.017,3.716,3.716,0,0,1-2.055.576c-.11,0-.238-.007-.382-.02Z" style="fill:#1d1d1b"/></symbol></defs><title>service-help-point</title><use width="24.002" height="25" xlink:href="#a"/></svg>