<svg xmlns="http://www.w3.org/2000/svg" xmlns:xlink="http://www.w3.org/1999/xlink" viewBox="0 0 25 16.648"><defs><symbol id="a" viewBox="0 0 25 16.648"><path d="M24.867,13.4a.289.289,0,0,0-.272-.021,1.4,1.4,0,0,0-.37-.676c-.839-.864-2.794-.857-4.223-.852-.395,0-.737,0-.994-.015a9.818,9.818,0,0,1-3.4-1.359l.023-.28a.288.288,0,0,0-.109-.25,15.948,15.948,0,0,0-5.209-2.882A.311.311,0,0,0,10,7.179a14.806,14.806,0,0,1-1.82,1.656A5.153,5.153,0,0,1,3.706,9.6a8,8,0,0,1-2.248-.936.29.29,0,0,0-.3-.01c-.09.052-.331.19-.948,2.469a4.033,4.033,0,0,0,.128,2.966.312.312,0,0,0-.138.246v2.02a.289.289,0,0,0,.289.289H6.957a.288.288,0,0,0,.288-.289v-.438a43.166,43.166,0,0,1,4.989.366c2.454.3,4.756.365,4.87.365a18.027,18.027,0,0,0,7.787-1.794A.289.289,0,0,0,25,14.628v-.985A.287.287,0,0,0,24.867,13.4Zm-9.538-.658a.292.292,0,0,0,.11-.2l.118-1.423a9.565,9.565,0,0,0,3.412,1.3c.278.019.629.017,1.035.016,1.25,0,3.139-.011,3.807.678a.843.843,0,0,1,.238.5,22.2,22.2,0,0,1-4.742,1.3,14.818,14.818,0,0,1-2.128.135,38.114,38.114,0,0,1-3.99-.261c-.161-.018-3.819-.413-5.086-.493,1.14-2.4,6.941-1.494,7-1.485A.29.29,0,0,0,15.329,12.742ZM.764,11.274A14.469,14.469,0,0,1,1.4,9.3a8.779,8.779,0,0,0,2.15.855,5.785,5.785,0,0,0,4.967-.851A16.464,16.464,0,0,0,10.352,7.68c.186.062.507.176.929.359l-.25.475a.288.288,0,0,0,.12.39.3.3,0,0,0,.135.033.287.287,0,0,0,.255-.154l.265-.5c.241.116.5.249.78.4l-.247.513a.288.288,0,0,0,.134.386.293.293,0,0,0,.125.029.289.289,0,0,0,.261-.164l.23-.477c.237.141.484.294.739.462l-.214.53a.289.289,0,0,0,.16.375.273.273,0,0,0,.108.021.29.29,0,0,0,.268-.18l.166-.413c.238.168.482.348.729.54l-.156,1.881c-1.329-.173-6.415-.645-7.4,2.065-.487-.024-1-.043-1.561-.054-2.721-.052-4.223-.1-4.925-.128C.928,13.98.256,13.155.764,11.274Zm23.659,3.2a12.17,12.17,0,0,1-2.6.928,19.383,19.383,0,0,1-4.719.667c-.109,0-2.628-.127-4.8-.361a47.3,47.3,0,0,0-5.342-.374h0c-.154,0-.289.048-.289.289v.442H.774v-1.43c.593.024,2.119.043,5.146.136,3.34.1,7.049.561,7.208.578a38.7,38.7,0,0,0,4.051.264,15.4,15.4,0,0,0,2.212-.141,22.554,22.554,0,0,0,5.032-1.394v.4Z" style="fill:#010101"/><path d="M19.807,4.209h.526a1.843,1.843,0,0,1,1.842-1.841V1.841A1.843,1.843,0,0,1,20.333,0h-.526a1.843,1.843,0,0,1-1.841,1.841v.527A1.843,1.843,0,0,1,19.807,4.209Zm.263-3.125A2.377,2.377,0,0,0,21.091,2.1,2.385,2.385,0,0,0,20.07,3.125,2.377,2.377,0,0,0,19.05,2.1,2.37,2.37,0,0,0,20.07,1.084Z" style="fill:#010101"/><path d="M19.622,9.431h.526a1.317,1.317,0,0,1,1.315-1.315V7.59a1.317,1.317,0,0,1-1.315-1.316h-.526A1.317,1.317,0,0,1,18.307,7.59v.526A1.317,1.317,0,0,1,19.622,9.431Zm.263-2.209a1.858,1.858,0,0,0,.631.631,1.855,1.855,0,0,0-.631.63,1.847,1.847,0,0,0-.631-.63A1.858,1.858,0,0,0,19.885,7.222Z" style="fill:#010101"/><path d="M15.581,5.452h.411a1.028,1.028,0,0,1,1.027-1.027V4.014a1.028,1.028,0,0,1-1.027-1.027h-.411a1.028,1.028,0,0,1-1.026,1.027v.411A1.027,1.027,0,0,1,15.581,5.452Zm.206-1.725a1.45,1.45,0,0,0,.492.493,1.439,1.439,0,0,0-.492.492A1.448,1.448,0,0,0,15.3,4.22,1.459,1.459,0,0,0,15.787,3.727Z" style="fill:#010101"/></symbol></defs><title>service-shoe-polisher</title><use width="25" height="16.648" xlink:href="#a"/></svg>