<svg xmlns="http://www.w3.org/2000/svg" xmlns:xlink="http://www.w3.org/1999/xlink" viewBox="0 0 25 24.537"><defs><symbol id="a" viewBox="0 0 25 24.537"><path d="M24.936,8.083l-.01-.019-1.563-2.6a.52.52,0,0,0-.42-.252.5.5,0,0,0-.443.208L21.312,7a.731.731,0,0,1-.583.291h-.985A1.285,1.285,0,0,0,18.593,8l-.536,1.073a.536.536,0,0,1-.483.3h-.886a1.53,1.53,0,0,0-1.274.682l-.425.638a.544.544,0,0,1-.453.243h-.995V9.976a.318.318,0,0,1,.218-.3l.407-.136a1.579,1.579,0,0,0,1.048-1.186l.312-1.566a.561.561,0,0,1,.238-.354l.74-.494a1.526,1.526,0,0,0,.683-1.274V3.6a.635.635,0,0,1,.184-.443L18.6,1.93a.521.521,0,0,0,0-.737.533.533,0,0,0-.134-.1L16.378.055a.521.521,0,0,0-.685.208L9.51,11.082.249,16.742a.521.521,0,0,0-.194.677L1.1,19.5a.52.52,0,0,0,.7.233l.023-.012L8.53,15.947,4.754,22.66a.521.521,0,0,0,.2.71l.022.012,2.084,1.041a.52.52,0,0,0,.677-.194l1.1-1.8c1.124,1.686,3.1,2.105,5.246,2.105.508,0,1.026-.024,1.544-.059,1.567,0,2.633-.425,3.17-1.264a3.2,3.2,0,0,0-.093-3.12.416.416,0,0,0-.024-.047,2.8,2.8,0,0,1-.4-2.349,1.765,1.765,0,0,1,1.152-1.06.521.521,0,1,0-.33-.989,2.812,2.812,0,0,0-1.8,1.682,3.776,3.776,0,0,0,.459,3.219,2.392,2.392,0,0,1,.152,2.1c-.329.513-1.121.784-2.329.785-2.994.2-5.188-.076-6.134-2.023l3.937-6.441L24.728,8.79A.521.521,0,0,0,24.936,8.083ZM1.784,18.549,1.2,17.381l7.687-4.7a2.313,2.313,0,0,0,.347,1.673ZM8.506,20.97a.52.52,0,0,0-.143.235L7.1,23.279,5.93,22.7l4.192-7.451a2.31,2.31,0,0,0,1.672.347Zm2.952-6.388A1.563,1.563,0,1,1,13.02,13.02,1.562,1.562,0,0,1,11.458,14.582ZM12.5,9.976v.658a2.369,2.369,0,0,0-1.432-.181l5.286-9.247,1,.5-.716.715a1.689,1.689,0,0,0-.489,1.18V4.664a.486.486,0,0,1-.218.407l-.74.494a1.589,1.589,0,0,0-.682,1.017l-.312,1.562a.536.536,0,0,1-.356.4l-.407.136A1.356,1.356,0,0,0,12.5,9.976Zm1.519,3.468a2.423,2.423,0,0,0-.177-1.466h.692a1.582,1.582,0,0,0,1.32-.706l.425-.638a.491.491,0,0,1,.408-.218h.885a1.578,1.578,0,0,0,1.416-.875l.536-1.073a.241.241,0,0,1,.22-.136h.985a1.777,1.777,0,0,0,1.416-.709l.723-.963.886,1.474Z" style="fill:#010101"/></symbol></defs><title>service-jump-starter</title><use width="25" height="24.537" xlink:href="#a"/></svg>