<svg xmlns="http://www.w3.org/2000/svg" xmlns:xlink="http://www.w3.org/1999/xlink" viewBox="0 0 15.262 19.302"><defs><symbol id="a" viewBox="0 0 15.262 19.302"><path d="M5.441,4.827a1.905,1.905,0,1,0-1.9-1.9A1.907,1.907,0,0,0,5.441,4.827Z" style="fill:none"/><path d="M15.192,18.536l-3.361-5.711a.508.508,0,0,0-.439-.251H5.933V7.421a.508.508,0,1,0-1.016,0v5.661a.508.508,0,0,0,.508.509H11.1l3.213,5.461a.509.509,0,0,0,.439.25.5.5,0,0,0,.257-.07A.509.509,0,0,0,15.192,18.536Z" style="fill:#010101"/><path d="M5.442,5.843A2.922,2.922,0,1,0,2.52,2.922,2.924,2.924,0,0,0,5.442,5.843Zm0-4.826A1.905,1.905,0,1,1,3.537,2.922,1.906,1.906,0,0,1,5.442,1.017Z" style="fill:#010101"/><path d="M2.421,13.369a.508.508,0,0,0-.508.508,3.515,3.515,0,0,0,3.512,3.512.509.509,0,0,0,0-1.017A2.5,2.5,0,0,1,2.93,13.877.508.508,0,0,0,2.421,13.369Z" style="fill:#010101"/><path d="M10.214,15.108a.509.509,0,0,0-.654.3,4.409,4.409,0,1,1-6.252-5.4.508.508,0,1,0-.489-.891,5.426,5.426,0,1,0,7.695,6.643A.509.509,0,0,0,10.214,15.108Z" style="fill:#010101"/></symbol></defs><title>service-disabled</title><use width="15.262" height="19.302" xlink:href="#a"/></svg>