<svg xmlns="http://www.w3.org/2000/svg" xmlns:xlink="http://www.w3.org/1999/xlink" viewBox="0 0 20 23.148"><defs><symbol id="a" viewBox="0 0 20 23.148"><path d="M18.5,15.429a1.479,1.479,0,0,0-.606.134,1.488,1.488,0,0,0-1.856-.413l-.634.374a1.487,1.487,0,0,0-1.824-.374L11.3,16.54c-.554-.163-2.961-.842-3.424-.958-.232-.059-.435-.106-.6-.14-.083-.017-.157-.031-.222-.041a1.2,1.2,0,0,0-.185-.017,1.281,1.281,0,0,0-.138.01c-.173.023-.419.076-.709.143-.594.139-1.352.341-1.77.454V15.37a.894.894,0,0,0-.894-.889H.894A.894.894,0,0,0,0,15.37v6.889a.894.894,0,0,0,.894.889H3.352a.894.894,0,0,0,.894-.889v-.535c.53.115,1.708.368,2.949.621.839.172,1.707.343,2.424.473.358.064.679.118.941.156a4.935,4.935,0,0,0,.613.063,1.363,1.363,0,0,0,.347-.055,4.889,4.889,0,0,0,.767-.309,38.574,38.574,0,0,0,3.83-2.316c1.366-.906,2.644-1.8,3.27-2.231a1.446,1.446,0,0,0,.613-1.2A1.5,1.5,0,0,0,18.5,15.429ZM3.576,22.259a.227.227,0,0,1-.224.222H.894a.227.227,0,0,1-.224-.222V15.37a.227.227,0,0,1,.224-.222H3.352a.227.227,0,0,1,.224.222v6.889Zm15.432-4.682c-.77.528-2.494,1.738-4.162,2.815-.833.538-1.652,1.043-2.324,1.409a9.466,9.466,0,0,1-.875.429,2.647,2.647,0,0,1-.307.11.675.675,0,0,1-.167.03,4.351,4.351,0,0,1-.515-.055c-.881-.128-2.529-.456-3.948-.75-.71-.147-1.364-.286-1.841-.389l-.624-.134v-4.36l.255-.069c.353-.095.892-.238,1.376-.357.241-.059.469-.112.651-.149.09-.019.169-.034.23-.043a.818.818,0,0,1,.106-.013s.036,0,.084.009c.185.028.564.116,1.026.236,1.392.362,3.587,1.015,4.473,1.283a2.007,2.007,0,0,1,.767.4.879.879,0,0,1,.207.271.769.769,0,0,1,.073.332.946.946,0,0,1-.942.943l-.864-.084-2.952-.377a.333.333,0,1,0-.086.661l2.962.378.917.09h.016a1.616,1.616,0,0,0,1.619-1.611,1.418,1.418,0,0,0-.137-.618,1.684,1.684,0,0,0-.589-.656,2.911,2.911,0,0,0-.795-.365l-.484-.146,1.727-1.052a.81.81,0,0,1,.927.128l-.9.53a.332.332,0,0,0-.117.457.336.336,0,0,0,.459.116l2.086-1.23a.811.811,0,0,1,.959.156l-2.429,1.433a.33.33,0,0,0-.117.456.335.335,0,0,0,.459.117l2.916-1.72a.827.827,0,0,1,1.2.737A.782.782,0,0,1,19.008,17.577Z" style="fill:#010101"/><path d="M10.063,10.271a2.825,2.825,0,1,1,2.825-2.825A2.828,2.828,0,0,1,10.063,10.271Zm0-5a2.175,2.175,0,1,0,2.175,2.175A2.178,2.178,0,0,0,10.063,5.271Z" style="fill:#1d1d1b"/><path d="M13.565,4.264A2.132,2.132,0,1,1,15.7,2.132,2.135,2.135,0,0,1,13.565,4.264Zm0-3.614a1.482,1.482,0,1,0,1.481,1.482A1.482,1.482,0,0,0,13.565.65Z" style="fill:#1d1d1b"/></symbol></defs><title>service-coin-payment</title><use width="20" height="23.148" xlink:href="#a"/></svg>