<svg xmlns="http://www.w3.org/2000/svg" xmlns:xlink="http://www.w3.org/1999/xlink" viewBox="0 0 24.999 25"><defs><symbol id="a" viewBox="0 0 24.999 25"><path d="M17.748,0H7.252A1.838,1.838,0,0,0,5.416,1.835V23.164A1.839,1.839,0,0,0,7.252,25h10.5a1.838,1.838,0,0,0,1.836-1.835V1.835A1.838,1.838,0,0,0,17.748,0ZM6.25,3.333h12.5V19.167H6.25Zm1-2.5h10.5a1,1,0,0,1,1,1V2.5H6.25V1.835A1,1,0,0,1,7.252.833Zm10.5,23.334H7.252a1,1,0,0,1-1-1V20h12.5v3.165A1,1,0,0,1,17.748,24.167Z" style="fill:#010101"/><path d="M12.5,20.417a1.667,1.667,0,1,0,1.666,1.666A1.668,1.668,0,0,0,12.5,20.417Zm0,2.5a.834.834,0,1,1,.833-.834A.835.835,0,0,1,12.5,22.917Z" style="fill:#010101"/><path d="M23.588,1.9A.416.416,0,0,0,23,2.493,4,4,0,0,1,23,8.14a.416.416,0,1,0,.589.589A4.831,4.831,0,0,0,23.588,1.9Z" style="fill:#010101"/><path d="M21.833,2.852a.416.416,0,1,0-.589.589,2.738,2.738,0,0,1,0,3.866.416.416,0,1,0,.589.589,3.568,3.568,0,0,0,0-5.044Z" style="fill:#010101"/><path d="M2,2.493A.416.416,0,0,0,1.411,1.9a4.833,4.833,0,0,0,0,6.825A.416.416,0,1,0,2,8.14,4,4,0,0,1,2,2.493Z" style="fill:#010101"/><path d="M3.755,2.737a.416.416,0,0,0-.589,0,3.568,3.568,0,0,0,0,5.044.416.416,0,0,0,.589-.589,2.738,2.738,0,0,1,0-3.866A.418.418,0,0,0,3.755,2.737Z" style="fill:#010101"/></symbol></defs><title>service-mobile-phone-coverage</title><use width="24.999" height="25" xlink:href="#a"/></svg>