<svg xmlns="http://www.w3.org/2000/svg" xmlns:xlink="http://www.w3.org/1999/xlink" viewBox="0 0 19.277 25"><defs><symbol id="a" viewBox="0 0 19.277 25"><path d="M16.462,0H2.81A2.812,2.812,0,0,0,0,2.81V16.462a2.812,2.812,0,0,0,2.81,2.81h.684L2.023,24.788,2.8,25l.241-.906h13.2l.241.906.778-.207-1.472-5.516h.685a2.812,2.812,0,0,0,2.81-2.81V2.81A2.82,2.82,0,0,0,16.462,0Zm-.443,23.292H3.253l.428-1.6h11.91ZM3.893,20.881l.428-1.6h10.63l.428,1.6Zm14.576-4.419a2.009,2.009,0,0,1-2.007,2.007H2.81A2.01,2.01,0,0,1,.8,16.462V2.81A2.011,2.011,0,0,1,2.81.8H16.462A2.01,2.01,0,0,1,18.469,2.81Z" style="fill:#010101"/><path d="M16.063,4.016H3.209A1.207,1.207,0,0,0,2,5.221v4.818a1.207,1.207,0,0,0,1.206,1.206H16.058a1.208,1.208,0,0,0,1.206-1.206V5.221A1.2,1.2,0,0,0,16.063,4.016ZM9.237,10.438H3.209a.394.394,0,0,1-.4-.4V5.221a.405.405,0,0,1,.4-.4H9.237Zm7.23-.4h0a.405.405,0,0,1-.4.4H10.039V4.818h6.024a.406.406,0,0,1,.4.4v4.818Z" style="fill:#010101"/><path d="M5.62,12.849a2.008,2.008,0,1,0,2.008,2.008A2.011,2.011,0,0,0,5.62,12.849Zm0,3.214a1.206,1.206,0,1,1,1.206-1.206A1.208,1.208,0,0,1,5.62,16.063Z" style="fill:#010101"/><path d="M13.652,12.849a2.008,2.008,0,1,0,2.007,2.008A2.01,2.01,0,0,0,13.652,12.849Zm0,3.214a1.206,1.206,0,1,1,1.205-1.206A1.207,1.207,0,0,1,13.652,16.063Z" style="fill:#010101"/><rect x="5.62" y="2.008" width="8.031" height="0.802" style="fill:#010101"/></symbol></defs><title>service-public-transportation</title><use width="19.277" height="25" xlink:href="#a"/></svg>