<svg xmlns="http://www.w3.org/2000/svg" xmlns:xlink="http://www.w3.org/1999/xlink" viewBox="0 0 25 19.636"><defs><symbol id="a" viewBox="0 0 25 19.636"><path d="M11.76,16.689a1.047,1.047,0,1,0,1.48,0A1.047,1.047,0,0,0,11.76,16.689Z" style="fill:none"/><path d="M10.938,15.867a2.208,2.208,0,1,0,3.123,0A2.211,2.211,0,0,0,10.938,15.867Zm2.3,2.3a1.047,1.047,0,1,1,0-1.48A1.047,1.047,0,0,1,13.24,18.169Z" style="fill:#020202"/><path d="M24.829,5.1A17.456,17.456,0,0,0,.17,5.1a.581.581,0,0,0,.822.822,16.291,16.291,0,0,1,23.015,0,.581.581,0,1,0,.822-.822Z" style="fill:#020202"/><path d="M2.759,7.687a.582.582,0,0,0,.823.823,12.627,12.627,0,0,1,17.836,0,.582.582,0,1,0,.822-.823A13.792,13.792,0,0,0,2.759,7.687Z" style="fill:#020202"/><path d="M5.348,10.277a.581.581,0,0,0,.822.822,8.962,8.962,0,0,1,12.659,0,.581.581,0,1,0,.822-.821A10.125,10.125,0,0,0,5.348,10.277Z" style="fill:#020202"/><path d="M8.225,13.154a.581.581,0,1,0,.822.822,4.889,4.889,0,0,1,6.9,0,.581.581,0,1,0,.822-.822A6.052,6.052,0,0,0,8.225,13.154Z" style="fill:#020202"/></symbol></defs><title>service-wifi</title><use width="25" height="19.636" xlink:href="#a"/></svg>