<svg xmlns="http://www.w3.org/2000/svg" xmlns:xlink="http://www.w3.org/1999/xlink" viewBox="0 0 25 22.059"><defs><symbol id="a" viewBox="0 0 25 22.059"><path d="M9.672,17.534H3.959a.566.566,0,0,0,0,1.131H9.672a.566.566,0,1,0,0-1.131Z" style="fill:#010101"/><path d="M18.213,17.534H12.5a.566.566,0,1,0,0,1.131h5.713a.566.566,0,0,0,0-1.131Z" style="fill:#010101"/><path d="M18.213,3.394H3.959a.566.566,0,0,0,0,1.131H18.213a.566.566,0,0,0,0-1.131Z" style="fill:#010101"/><path d="M18.213,6.222H12.5a.566.566,0,1,0,0,1.131h5.713a.566.566,0,0,0,0-1.131Z" style="fill:#010101"/><path d="M18.213,9.05H12.5a.566.566,0,1,0,0,1.131h5.713a.566.566,0,0,0,0-1.131Z" style="fill:#010101"/><path d="M18.213,11.878H12.5a.566.566,0,1,0,0,1.131h5.713a.566.566,0,0,0,0-1.131Z" style="fill:#010101"/><path d="M18.213,14.706H12.5a.566.566,0,1,0,0,1.131h5.713a.566.566,0,0,0,0-1.131Z" style="fill:#010101"/><path d="M9.672,14.706H3.959a.566.566,0,0,0,0,1.131H9.672a.566.566,0,1,0,0-1.131Z" style="fill:#010101"/><path d="M9.672,6.222H3.959a.565.565,0,0,0-.565.565V12.5a.566.566,0,0,0,.565.566H9.672a.567.567,0,0,0,.566-.566V6.787A.566.566,0,0,0,9.672,6.222Zm-.566,5.712H4.525V7.353H9.106Z" style="fill:#010101"/><path d="M23.869,2.828h-1.7v-1.7A1.132,1.132,0,0,0,21.041,0H1.131A1.132,1.132,0,0,0,0,1.131v18.1a2.832,2.832,0,0,0,2.828,2.828H22.172A2.832,2.832,0,0,0,25,19.231V3.959A1.132,1.132,0,0,0,23.869,2.828Zm0,16.4a1.7,1.7,0,0,1-1.7,1.7H2.828a1.7,1.7,0,0,1-1.7-1.7V1.131h19.91V18.382A1.415,1.415,0,0,0,22.455,19.8a.566.566,0,0,0,0-1.131.283.283,0,0,1-.283-.283V3.959h1.7Z" style="fill:#010101"/></symbol></defs><title>service-newspaper-magazines</title><use width="25" height="22.059" xlink:href="#a"/></svg>