<svg xmlns="http://www.w3.org/2000/svg" xmlns:xlink="http://www.w3.org/1999/xlink" viewBox="0 0 18.089 25"><defs><symbol id="a" viewBox="0 0 18.089 25"><path d="M17.252,4.752h-.459V1.7a.405.405,0,0,0-.81,0V4.752h-.459a.837.837,0,0,0-.837.837v.863a.838.838,0,0,0,.432.732V9.476a1.272,1.272,0,0,0,.864,1.2V22.867A1.325,1.325,0,0,1,14.66,24.19H8.612a1.325,1.325,0,0,1-1.259-.918h.119a1.272,1.272,0,0,0,1.244-1.02l.228-1.14h3.124a1.7,1.7,0,0,0,1.7-1.7V3a1.7,1.7,0,0,0-1.7-1.7H10.745V1.269A1.27,1.27,0,0,0,9.476,0H8.612A1.271,1.271,0,0,0,7.343,1.269V1.3H6.425V1.269A1.27,1.27,0,0,0,5.157,0H4.293A1.27,1.27,0,0,0,3.024,1.269V1.3H1.7A1.7,1.7,0,0,0,0,3V19.411a1.7,1.7,0,0,0,1.7,1.7H4.825l.228,1.14A1.272,1.272,0,0,0,6.3,23.272h.222A2.135,2.135,0,0,0,8.612,25H14.66a2.136,2.136,0,0,0,2.133-2.133V10.679a1.273,1.273,0,0,0,.864-1.2V7.184a.838.838,0,0,0,.432-.732V5.589A.838.838,0,0,0,17.252,4.752Zm-9.1-3.483A.46.46,0,0,1,8.612.81h.864a.46.46,0,0,1,.459.459V1.3H8.153Zm-4.319,0A.46.46,0,0,1,4.293.81h.864a.46.46,0,0,1,.459.459V1.3H3.834ZM.81,19.411V3A.892.892,0,0,1,1.7,2.106H12.068A.892.892,0,0,1,12.959,3V19.411a.892.892,0,0,1-.891.891H1.7A.892.892,0,0,1,.81,19.411Zm5.037,2.682-.2-.981H8.118l-.2.981a.46.46,0,0,1-.45.369H6.3A.46.46,0,0,1,5.847,22.093Zm9.65-16.5a.027.027,0,0,1,.027-.027h1.728a.027.027,0,0,1,.027.027v.863a.027.027,0,0,1-.027.027H15.524a.027.027,0,0,1-.027-.027Zm1.35,3.887a.459.459,0,1,1-.918,0V7.289h.918Z" style="fill:#010101"/><path d="M6.425,16.82A1.7,1.7,0,0,0,5.13,15.168V14.66a.405.405,0,1,0-.81,0v.508a1.7,1.7,0,1,0,2.1,1.652Zm-1.7.891a.891.891,0,0,1-.4-1.684v.793a.4.4,0,0,0,.81,0v-.793a.891.891,0,0,1-.405,1.684Z" style="fill:#010101"/><path d="M9.044,15.119a1.7,1.7,0,0,0-.405,3.352v.508a.405.405,0,0,0,.81,0v-.508a1.7,1.7,0,0,0-.4-3.352Zm.4,2.493V16.82a.405.405,0,1,0-.81,0v.792a.891.891,0,1,1,.81,0Z" style="fill:#010101"/><path d="M6.884,12.905A4.725,4.725,0,1,0,2.16,8.18,4.73,4.73,0,0,0,6.884,12.905ZM4.419,11.218l.333-.332a.405.405,0,1,0-.573-.573l-.333.333a3.9,3.9,0,0,1-.855-2.061h.438a.4.4,0,1,0,0-.81H2.991a3.9,3.9,0,0,1,.855-2.06l.333.333a.405.405,0,1,0,.573-.573l-.333-.333a3.9,3.9,0,0,1,2.06-.855v.438a.4.4,0,0,0,.81,0V4.287a3.9,3.9,0,0,1,2.061.855l-.333.333a.405.405,0,0,0,.573.573l.332-.333a3.891,3.891,0,0,1,.856,2.06H10.34a.4.4,0,1,0,0,.81h.438a3.894,3.894,0,0,1-.856,2.061l-.332-.333a.405.405,0,1,0-.573.573l.333.332a3.9,3.9,0,0,1-4.931,0Z" style="fill:#010101"/><path d="M8.107,5.123a.4.4,0,0,0-.526.226L6.955,6.913l-.071,0a1.271,1.271,0,1,0,.823.3L8.333,5.65A.405.405,0,0,0,8.107,5.123ZM6.884,8.639a.459.459,0,1,1,.459-.459A.46.46,0,0,1,6.884,8.639Z" style="fill:#010101"/></symbol></defs><title>service-tyre-pump</title><use width="18.089" height="25" xlink:href="#a"/></svg>