<svg xmlns="http://www.w3.org/2000/svg" xmlns:xlink="http://www.w3.org/1999/xlink" viewBox="0 0 19.605 19.302"><defs><symbol id="a" viewBox="0 0 19.605 19.302"><path d="M2.93,13.877a2.5,2.5,0,0,0,2.495,2.495.509.509,0,0,1,0,1.017,3.515,3.515,0,0,1-3.512-3.512.509.509,0,0,1,1.017,0Zm12.262,4.659-3.361-5.711a.508.508,0,0,0-.439-.251H5.933V7.421a.508.508,0,1,0-1.016,0v5.661a.508.508,0,0,0,.508.509H11.1l3.213,5.461a.509.509,0,0,0,.439.25.5.5,0,0,0,.257-.07A.509.509,0,0,0,15.192,18.536ZM2.52,2.922A2.922,2.922,0,1,1,5.442,5.843,2.926,2.926,0,0,1,2.52,2.922Zm1.017,0A1.905,1.905,0,1,0,5.442,1.017,1.907,1.907,0,0,0,3.537,2.922Zm6.677,12.186a.509.509,0,0,0-.654.3,4.409,4.409,0,1,1-6.252-5.4.508.508,0,1,0-.489-.891,5.426,5.426,0,1,0,7.695,6.643A.509.509,0,0,0,10.214,15.108Z" style="fill:#010101"/><path d="M12.732.47l.75,2.266L14.3.435h.356l.772,2.3.8-2.266h.686l-1.252,3.4H15.2l-.742-2.178-.774,2.178h-.457L12.047.47Z" style="fill:#1d1d1b"/><path d="M19.605.6v.767a1.414,1.414,0,0,0-.293-.24A1.036,1.036,0,0,0,18.79.985a1.063,1.063,0,0,0-.54.146,1.113,1.113,0,0,0-.43.459,1.248,1.248,0,0,0-.124.56A1.1,1.1,0,0,0,18.8,3.287,1,1,0,0,0,19.4,3.1a1.583,1.583,0,0,0,.21-.183v.765a1.936,1.936,0,0,1-.818.2,1.781,1.781,0,0,1-.869-.222,1.679,1.679,0,0,1-.691-.691,1.7,1.7,0,0,1-.2-.813A1.762,1.762,0,0,1,18.792.392,1.759,1.759,0,0,1,19.605.6Z" style="fill:#1d1d1b"/></symbol></defs><title>service-disabled-toilet</title><use width="19.605" height="19.302" xlink:href="#a"/></svg>