<svg xmlns="http://www.w3.org/2000/svg" xmlns:xlink="http://www.w3.org/1999/xlink" viewBox="0 0 14.167 25"><defs><symbol id="a" viewBox="0 0 14.167 25"><path d="M12.331,0H1.835A1.838,1.838,0,0,0,0,1.835V23.164A1.838,1.838,0,0,0,1.835,25h10.5a1.838,1.838,0,0,0,1.836-1.835V1.835A1.838,1.838,0,0,0,12.331,0ZM.833,3.333h12.5V19.167H.833Zm1-2.5h10.5a1,1,0,0,1,1,1V2.5H.833V1.835A1,1,0,0,1,1.835.833Zm10.5,23.334H1.835a1,1,0,0,1-1-1V20h12.5v3.165A1,1,0,0,1,12.331,24.167Z" style="fill:#010101"/><path d="M7.083,20.417A1.667,1.667,0,1,0,8.75,22.083,1.667,1.667,0,0,0,7.083,20.417Zm0,2.5a.834.834,0,1,1,.834-.834A.835.835,0,0,1,7.083,22.917Z" style="fill:#010101"/><path d="M7.168,7.229v.8a2.031,2.031,0,0,1,1.277.616l-.547.7A1.179,1.179,0,0,0,7,8.9a.713.713,0,0,0-.532.2.529.529,0,0,0-.166.374.571.571,0,0,0,.313.473,3.892,3.892,0,0,0,.588.273,3.344,3.344,0,0,1,1,.567,1.336,1.336,0,0,1,.426,1.038,1.628,1.628,0,0,1-.617,1.314,2.042,2.042,0,0,1-.847.392v.836H6.653v-.808a2.164,2.164,0,0,1-1.784-1l.612-.637a2.325,2.325,0,0,0,.39.43,1.333,1.333,0,0,0,.855.3.824.824,0,0,0,.637-.255.687.687,0,0,0,.19-.474.642.642,0,0,0-.28-.532,2.8,2.8,0,0,0-.49-.243,5.234,5.234,0,0,1-1.034-.526A1.276,1.276,0,0,1,5.27,9.564,1.533,1.533,0,0,1,6.653,8.028v-.8Z" style="fill:#1d1d1b"/></symbol></defs><title>service-mobile-payment</title><use width="14.167" height="25" xlink:href="#a"/></svg>