<svg xmlns="http://www.w3.org/2000/svg" xmlns:xlink="http://www.w3.org/1999/xlink" viewBox="0 0 21.948 16.461"><defs><symbol id="a" viewBox="0 0 21.948 16.461"><path d="M21.082,1.829H20.85V1a1,1,0,0,0-1-1H2.1a1.006,1.006,0,0,0-1,1v.824H.866A.867.867,0,0,0,0,2.7V5.352a.867.867,0,0,0,.866.867H1.1a10.172,10.172,0,0,0,.1,1.4l0,0,.015.083A10.341,10.341,0,0,0,2.42,11.25l.023.041c.111.2.225.388.348.575v0c.113.173.232.343.355.509.041.055.084.11.126.165.079.1.16.2.242.3.056.067.112.135.169.2.1.116.206.229.312.34s.191.2.289.29l.146.139c.095.089.192.176.29.262.024.02.049.039.073.06.206.175.42.342.64.5l.086.062c.113.08.227.156.343.231l.12.074c.2.128.412.247.625.359l.15.08c.1.051.2.1.307.146.085.04.172.078.259.115s.178.077.269.112c.17.067.343.129.517.185.019.007.038.015.058.021l.31.1,0-.007a9.125,9.125,0,0,0,4.985,0l0,.007.311-.1L13.839,16c.174-.056.347-.118.517-.185.09-.035.179-.074.269-.112s.173-.075.259-.115c.1-.047.205-.1.306-.146.051-.026.1-.054.15-.08.213-.112.422-.231.626-.359l.12-.074c.115-.075.23-.152.343-.231l.086-.062q.33-.237.64-.5l.072-.06c.1-.086.2-.173.29-.262.05-.046.1-.093.146-.139.1-.1.2-.191.29-.29s.21-.224.312-.34c.057-.066.112-.134.168-.2q.124-.15.243-.3l.126-.165c.122-.166.241-.335.355-.509v0c.122-.187.237-.38.347-.575l.023-.041a10.343,10.343,0,0,0,1.213-3.543l.014-.083,0,0a10.331,10.331,0,0,0,.1-1.4h.232a.868.868,0,0,0,.866-.867V2.7A.868.868,0,0,0,21.082,1.829ZM.866,5.487a.134.134,0,0,1-.134-.135V2.7a.134.134,0,0,1,.134-.134H3.658V5.487H.866ZM6.5,3.56c.01.031.021.063.03.1a1.417,1.417,0,0,1,.03.147,1.338,1.338,0,0,1,.014.142,1.423,1.423,0,0,1,0,.16,1.369,1.369,0,0,1-.015.145,1.233,1.233,0,0,1-.032.149c-.012.045-.025.09-.041.134a1.555,1.555,0,0,1-.068.151c-.018.035-.036.071-.057.1a1.628,1.628,0,0,1-.118.162c-.02.023-.037.047-.058.069a1.3,1.3,0,0,1-.171.153c-.017.014-.032.029-.05.042a1.512,1.512,0,0,1-.224.129.347.347,0,0,1-.033.018,1.475,1.475,0,0,1-.268.088l-.017,0a1.456,1.456,0,0,1-.3.032H4.39V2.561h.645A1.554,1.554,0,0,1,6.5,3.56ZM3.811,12.048l-.026-.034a9.786,9.786,0,0,1-1.75-3.852,5.216,5.216,0,0,1,1.074-.114,5.31,5.31,0,0,1,5.3,5.3,5.253,5.253,0,0,1-.341,1.863l-.082-.029c-.124-.046-.246-.1-.368-.147l-.146-.061c-.153-.069-.3-.141-.453-.218-.066-.033-.13-.07-.194-.105-.09-.048-.179-.1-.267-.15-.072-.043-.144-.086-.215-.13s-.165-.107-.246-.162c-.065-.044-.132-.086-.2-.131q-.2-.139-.384-.289c-.06-.046-.117-.1-.176-.144-.082-.068-.164-.138-.244-.209-.054-.047-.107-.095-.16-.144-.1-.094-.2-.19-.3-.288l-.079-.079c-.129-.134-.255-.272-.376-.413l-.043-.051C4.03,12.328,3.918,12.19,3.811,12.048Zm9.723,1.3a5.31,5.31,0,0,1,5.3-5.3,5.216,5.216,0,0,1,1.074.114,9.78,9.78,0,0,1-1.75,3.852l-.026.034c-.108.142-.219.28-.334.416l-.043.051c-.122.142-.247.279-.377.414l-.079.078c-.1.1-.2.2-.3.289l-.16.144c-.08.071-.162.14-.244.208-.059.049-.117.1-.176.145q-.189.149-.384.288c-.064.045-.13.088-.2.132-.082.055-.163.109-.247.161s-.143.088-.215.13-.177.1-.266.151c-.065.035-.129.071-.194.105-.149.076-.3.149-.453.217l-.146.061c-.122.051-.244.1-.369.147l-.081.029A5.222,5.222,0,0,1,13.534,13.352Zm6.5-5.911a5.918,5.918,0,0,0-1.2-.125A6.043,6.043,0,0,0,12.8,13.352a5.972,5.972,0,0,0,.381,2.082,8.429,8.429,0,0,1-4.421,0,5.95,5.95,0,0,0,.382-2.082A6.043,6.043,0,0,0,3.109,7.316a5.918,5.918,0,0,0-1.2.125,9.512,9.512,0,0,1-.082-1.222H5.121a2.17,2.17,0,0,0,.23-.013h0a2.188,2.188,0,0,0,.656-.177h0a2.046,2.046,0,0,0,.2-.1l.016-.01c.059-.034.116-.071.171-.11l.027-.02c.051-.038.1-.077.147-.119L6.6,5.639c.045-.041.088-.085.13-.13l.017-.017.013-.016q.062-.069.117-.144L6.9,5.3c.038-.054.074-.109.107-.165l.013-.022a2.166,2.166,0,0,0,.292-1.081V4.023A2.2,2.2,0,0,0,5.121,1.828H1.829V1A.273.273,0,0,1,2.1.732H19.846A.273.273,0,0,1,20.119,1v.824H16.827a2.2,2.2,0,0,0-2.2,2.2v.009a2.187,2.187,0,0,0,.292,1.081l.013.021c.034.057.069.112.107.165l.025.033c.037.049.075.1.116.144l.013.016.017.017c.042.045.086.088.131.13l.031.029c.048.041.1.081.147.118l.028.021c.055.039.111.075.17.11l.017.01c.064.037.129.07.2.1h0a2.137,2.137,0,0,0,.657.177h0c.076.007.153.012.231.012h3.292A9.512,9.512,0,0,1,20.037,7.441ZM17.558,5.487h-.731a1.456,1.456,0,0,1-.3-.032l-.017,0a1.475,1.475,0,0,1-.268-.088c-.012,0-.022-.013-.033-.018a1.512,1.512,0,0,1-.224-.129c-.018-.013-.033-.028-.05-.042a1.459,1.459,0,0,1-.171-.154C15.74,5,15.723,4.973,15.7,4.95a1.321,1.321,0,0,1-.119-.162c-.021-.033-.039-.069-.057-.1a1.347,1.347,0,0,1-.068-.151c-.016-.044-.03-.088-.042-.134a1.459,1.459,0,0,1-.032-.149c-.007-.047-.012-.1-.015-.145s0-.106,0-.159.007-.1.014-.143a1.419,1.419,0,0,1,.031-.147c.008-.032.019-.064.03-.1a1.554,1.554,0,0,1,1.467-1h.645Zm3.658-.135a.134.134,0,0,1-.134.135H18.29V2.561h2.792a.134.134,0,0,1,.134.134Z" style="fill:#010101"/></symbol></defs><title>service-changing-table</title><use width="21.948" height="16.461" xlink:href="#a"/></svg>