<svg xmlns="http://www.w3.org/2000/svg" xmlns:xlink="http://www.w3.org/1999/xlink" viewBox="0 0 25 16.121"><defs><symbol id="a" viewBox="0 0 25 16.121"><path d="M9.1,1.059c.129.806-.894,1.234-1.318,1.829-1.233.213-2.847-.3-3.825.851A5.615,5.615,0,0,0,2.217,9.306c1.064,3.357,4.547,3.7,7.565,3.825A14.059,14.059,0,0,1,12.758,13l4.761-.72c1.064-.64,2.422-.554,3.486-1.19,1.53.167,2.592-.978,4-.765-.426,1.36-2,1.489-2.762,2.508-1.19,1.147-2.976,1.1-4.337,1.91a.7.7,0,0,0-.851.3,22.608,22.608,0,0,1-4.079.681c-.978.892-2.379-.045-3.4.256A17.283,17.283,0,0,1,4.426,15.6a7.211,7.211,0,0,1-3.271-2.763C-.674,10.666-.078,7.393,1.2,5.012,2.47,3.1,3.747.466,6.253,0,7.276.165,8.507,0,9.1,1.059" style="fill:#010101"/></symbol></defs><title>cambio-car-sharing</title><use width="25" height="16.121" xlink:href="#a"/></svg>