<svg xmlns="http://www.w3.org/2000/svg" xmlns:xlink="http://www.w3.org/1999/xlink" viewBox="0 0 25 21.77"><defs><symbol id="a" viewBox="0 0 25 21.77"><path d="M18.319,1.8A1.078,1.078,0,0,0,19.4,2.875h1.437V.719H19.4A1.078,1.078,0,0,0,18.319,1.8Z" style="fill:none"/><path d="M17.636,1.437H5.778A1.478,1.478,0,0,0,4.3,2.912v1A1.477,1.477,0,0,0,5.778,5.391h8.874a.757.757,0,0,1,.756.756v4.681a.36.36,0,1,0,.719,0V6.147a1.477,1.477,0,0,0-1.475-1.475H5.778a.757.757,0,0,1-.756-.756v-1a.757.757,0,0,1,.756-.756H17.636a1.813,1.813,0,0,1,0-.719Z" style="fill:#010101"/><path d="M21.194,2.516a.36.36,0,0,1,.359-.36V1.437a.359.359,0,0,1,0-.718V.359A.359.359,0,0,0,21.194,0H19.4a1.795,1.795,0,0,0-1.8,1.8,1.77,1.77,0,0,0,.036.359A1.8,1.8,0,0,0,19.4,3.594h1.8a.359.359,0,0,0,.359-.359v-.36A.359.359,0,0,1,21.194,2.516Zm-.36.359H19.4a1.078,1.078,0,1,1,0-2.156h1.437Z" style="fill:#010101"/><path d="M22.631,2.156H21.553a.36.36,0,0,0,0,.719h1.078a.36.36,0,1,0,0-.719Z" style="fill:#010101"/><path d="M21.194,1.078a.359.359,0,0,0,.359.359h1.078a.359.359,0,1,0,0-.718H21.553A.359.359,0,0,0,21.194,1.078Z" style="fill:#010101"/><path d="M19.584,17.6a2.083,2.083,0,1,0,2.083,2.083A2.086,2.086,0,0,0,19.584,17.6Zm0,3.333a1.25,1.25,0,1,1,1.25-1.25A1.252,1.252,0,0,1,19.584,20.937Z" style="fill:#010101"/><path d="M5.417,17.6A2.083,2.083,0,1,0,7.5,19.687,2.086,2.086,0,0,0,5.417,17.6Zm0,3.333a1.25,1.25,0,1,1,1.25-1.25A1.252,1.252,0,0,1,5.417,20.937Z" style="fill:#010101"/><path d="M24.584,17.6V15.1a.417.417,0,0,0-.285-.4l-2.352-.784a6.394,6.394,0,0,0-4.792-3.4l-.015,0c-4.967-.687-8.7.434-11.09,3.331-2.768.04-5.633.913-5.633,2.5V17.6A.417.417,0,0,0,0,18.02v1.667a.417.417,0,0,0,.417.417H2.083a.417.417,0,0,0,.417-.417,2.917,2.917,0,1,1,5.833,0,.417.417,0,0,0,.417.417h7.5a.417.417,0,0,0,.417-.417,2.917,2.917,0,1,1,5.833,0,.417.417,0,0,0,.417.417h1.666A.417.417,0,0,0,25,19.687V18.02A.416.416,0,0,0,24.584,17.6Zm-5.4-5.477a5.6,5.6,0,0,1,1.731,1.727H19.171Zm-5.02-.966a18.961,18.961,0,0,1,2.852.188,6.883,6.883,0,0,1,1.339.37l-.02,2.135H14.167Zm-.834.036v2.657H7.176A9.1,9.1,0,0,1,13.333,11.2ZM24.167,19.27h-.856a3.751,3.751,0,0,0-7.455,0H9.144a3.75,3.75,0,0,0-7.454,0H.833v-.833a.417.417,0,0,0,.417-.417V16.77h.417a.417.417,0,0,0,0-.833H1.451c.564-.612,2.288-1.25,4.8-1.25H21.6l2.151.717v.533h-.416a.417.417,0,1,0,0,.833h.416v1.25a.417.417,0,0,0,.417.417Z" style="fill:#010101"/></symbol></defs><title>service-electric-charging-point</title><use width="25" height="21.77" xlink:href="#a"/></svg>