<svg xmlns="http://www.w3.org/2000/svg" xmlns:xlink="http://www.w3.org/1999/xlink" viewBox="0 0 25 18.333"><defs><symbol id="a" viewBox="0 0 25 18.333"><path d="M23.243,0H1.757A1.759,1.759,0,0,0,0,1.757V16.576a1.759,1.759,0,0,0,1.757,1.757H23.243A1.759,1.759,0,0,0,25,16.576V1.757A1.759,1.759,0,0,0,23.243,0Zm.924,16.576a.924.924,0,0,1-.924.924H1.757a.924.924,0,0,1-.924-.924V1.757A.925.925,0,0,1,1.757.833H23.243a.925.925,0,0,1,.924.924Z" style="fill:#010101"/><path d="M21.712,7.917H13.549a.419.419,0,0,0,0,.833h8.163a.419.419,0,0,0,0-.833Z" style="fill:#010101"/><path d="M21.712,10.417H13.549a.419.419,0,0,0,0,.833h8.163a.419.419,0,0,0,0-.833Z" style="fill:#010101"/><path d="M8.652,10.025H6.5L8.211,11.75A2.828,2.828,0,1,1,9.666,9.279a2.8,2.8,0,0,1-.37,1.4l-.644-.651m.027,2.2.528.533h2.148l-1.583-1.6a3.494,3.494,0,1,0-1.093,1.066" style="fill:#010101"/></symbol></defs><title>service-multipass</title><use width="25" height="18.333" xlink:href="#a"/></svg>