<svg xmlns="http://www.w3.org/2000/svg" xmlns:xlink="http://www.w3.org/1999/xlink" viewBox="0 0 20 21.821"><defs><symbol id="a" viewBox="0 0 20 21.821"><path d="M16.655.774A.773.773,0,0,0,15.881,0H4.9a.773.773,0,0,0-.774.774V8.362a.773.773,0,0,0,.774.774h11a.746.746,0,0,0,.749-.8Zm-.508,2.62H4.663V2.62H16.147ZM4.635.8A.266.266,0,0,1,4.9.536V.51H15.881a.266.266,0,0,1,.266.267V2.112H4.635Zm11.512,7.56a.266.266,0,0,1-.266.266H4.9a.266.266,0,0,1-.267-.266V3.927H16.147Z" style="fill:#010101"/><path d="M18.5,14.1a1.5,1.5,0,0,0-.606.134,1.49,1.49,0,0,0-1.856-.412L15.4,14.2a1.5,1.5,0,0,0-1.15-.537,1.485,1.485,0,0,0-.674.164L11.3,15.213c-.554-.163-2.961-.842-3.424-.958-.232-.058-.435-.106-.6-.14-.083-.017-.157-.031-.222-.041a1.339,1.339,0,0,0-.185-.017,1.283,1.283,0,0,0-.138.011c-.173.022-.419.075-.709.142-.594.139-1.352.341-1.77.454v-.621a.894.894,0,0,0-.894-.889H.894A.894.894,0,0,0,0,14.043v6.889a.894.894,0,0,0,.894.889H3.352a.894.894,0,0,0,.894-.889V20.4c.53.115,1.708.368,2.949.622.839.171,1.707.343,2.424.472.358.064.679.118.941.157a4.9,4.9,0,0,0,.613.062,1.32,1.32,0,0,0,.347-.055,4.889,4.889,0,0,0,.767-.309,38.543,38.543,0,0,0,3.83-2.315c1.366-.907,2.644-1.8,3.27-2.232A1.444,1.444,0,0,0,20,15.6,1.5,1.5,0,0,0,18.5,14.1ZM3.576,20.932a.226.226,0,0,1-.224.222H.894a.226.226,0,0,1-.224-.222V14.043a.227.227,0,0,1,.224-.222H3.352a.227.227,0,0,1,.224.222v6.889ZM19.008,16.25c-.77.528-2.494,1.738-4.162,2.815-.833.538-1.652,1.043-2.324,1.409a9.217,9.217,0,0,1-.875.429,2.647,2.647,0,0,1-.307.11.675.675,0,0,1-.167.03,4.351,4.351,0,0,1-.515-.055c-.881-.128-2.529-.455-3.948-.75-.71-.147-1.364-.286-1.841-.388l-.624-.135v-4.36l.255-.069c.353-.095.892-.238,1.376-.356.241-.06.469-.112.651-.15.09-.019.169-.033.23-.043s.105-.013.106-.013a.822.822,0,0,1,.084.01c.185.027.564.115,1.026.236,1.392.361,3.587,1.015,4.473,1.283a1.993,1.993,0,0,1,.767.4.876.876,0,0,1,.207.27.774.774,0,0,1,.073.333.942.942,0,0,1-.278.667.954.954,0,0,1-.664.276l-.864-.085-2.952-.376a.333.333,0,1,0-.086.661l2.962.378.917.089h.016a1.615,1.615,0,0,0,1.619-1.61,1.423,1.423,0,0,0-.137-.619,1.684,1.684,0,0,0-.589-.656,2.911,2.911,0,0,0-.795-.365l-.484-.145,1.727-1.053a.815.815,0,0,1,.927.128l-.9.53a.332.332,0,0,0-.117.457.336.336,0,0,0,.459.116l2.086-1.23a.815.815,0,0,1,.959.156l-2.429,1.433a.331.331,0,0,0-.117.457.336.336,0,0,0,.459.116l2.916-1.72a.827.827,0,0,1,1.2.737A.779.779,0,0,1,19.008,16.25Z" style="fill:#010101"/></symbol></defs><title>service-credit-card-payment</title><use width="20" height="21.821" xlink:href="#a"/></svg>