<svg xmlns="http://www.w3.org/2000/svg" xmlns:xlink="http://www.w3.org/1999/xlink" viewBox="0 0 24.002 25"><defs><symbol id="a" viewBox="0 0 24.002 25"><path d="M12,0A12,12,0,0,0,3.184,20.142l-.669,4.313A.473.473,0,0,0,2.981,25a.464.464,0,0,0,.217-.053l3.87-2A11.882,11.882,0,0,0,12,24,12,12,0,0,0,12,0Zm0,23.057a10.963,10.963,0,0,1-4.742-1.066.47.47,0,0,0-.42.007L3.591,23.68l.562-3.622a.473.473,0,0,0-.126-.4A11.056,11.056,0,1,1,12,23.057Z" style="fill:#010101"/><path d="M12,3.453a2.5,2.5,0,1,0,2.5,2.5A2.5,2.5,0,0,0,12,3.453Zm0,4.056a1.556,1.556,0,1,1,1.556-1.556A1.558,1.558,0,0,1,12,7.509Z" style="fill:#010101"/><path d="M14.772,17.468h-.538V9.724a.472.472,0,0,0-.472-.472H9.23a.472.472,0,0,0-.473.472v1.569a.473.473,0,0,0,.473.473h.537v5.7H9.23a.472.472,0,0,0-.473.472v1.569a.473.473,0,0,0,.473.473h5.542a.472.472,0,0,0,.472-.472V17.94A.472.472,0,0,0,14.772,17.468ZM14.3,19.037H9.7v-.625h.537a.472.472,0,0,0,.473-.472V11.293a.473.473,0,0,0-.473-.472H9.7V10.2H13.29V17.94a.472.472,0,0,0,.472.472H14.3Z" style="fill:#010101"/></symbol></defs><title>service-information</title><use width="24.002" height="25" xlink:href="#a"/></svg>