<svg xmlns="http://www.w3.org/2000/svg" xmlns:xlink="http://www.w3.org/1999/xlink" viewBox="0 0 14.375 25"><defs><symbol id="a" viewBox="0 0 14.375 25"><path d="M13.033,8.846H1.341a6.075,6.075,0,0,0,11.692,0Z" style="fill:none"/><path d="M13.269,7.187a25.049,25.049,0,0,0-1.392-5.713l-.118-.368H2.677A23.2,23.2,0,0,0,1.106,7.187c0,.187.011.371.028.553H13.241C13.257,7.558,13.269,7.374,13.269,7.187Z" style="fill:none"/><path d="M7.74,14.347a7.193,7.193,0,0,0,6.635-7.16,25.005,25.005,0,0,0-1.446-6.053L12.69.387A.552.552,0,0,0,12.163,0H2.293a.552.552,0,0,0-.517.357C1.242,1.773,0,5.269,0,7.187a7.193,7.193,0,0,0,6.634,7.16v9.426a.491.491,0,0,0,.025.121H3.248a.553.553,0,0,0,0,1.106h7.878a.553.553,0,0,0,0-1.106H7.716a.541.541,0,0,0,.024-.121ZM1.106,7.187A23.2,23.2,0,0,1,2.677,1.106h9.082l.118.368a25.049,25.049,0,0,1,1.392,5.713c0,.187-.012.371-.028.553H1.134C1.117,7.558,1.106,7.374,1.106,7.187Zm6.081,6.082A6.088,6.088,0,0,1,1.341,8.846H13.033A6.088,6.088,0,0,1,7.187,13.269Z" style="fill:#010101"/></symbol></defs><title>service-alcohol-tester</title><use width="14.375" height="25" xlink:href="#a"/></svg>