<svg xmlns="http://www.w3.org/2000/svg" xmlns:xlink="http://www.w3.org/1999/xlink" viewBox="0 0 25 22.21"><defs><symbol id="a" viewBox="0 0 25 22.21"><path d="M17.8,0a7.735,7.735,0,0,0-5.3,2.609A7.735,7.735,0,0,0,7.2,0,7.017,7.017,0,0,0,0,7.312a9.413,9.413,0,0,0,2.219,5.922,31.164,31.164,0,0,0,4.656,4.454c1.554,1.3,5.313,4.406,5.313,4.406a.5.5,0,0,0,.64,0s3.69-3.114,5.281-4.406h.016a31.164,31.164,0,0,0,4.656-4.454A9.413,9.413,0,0,0,25,7.312,7.017,7.017,0,0,0,17.8,0ZM22,12.609a30.656,30.656,0,0,1-4.516,4.313c-1.51,1.227-4.58,3.8-4.984,4.14-.4-.33-3.531-2.921-4.984-4.14A30.656,30.656,0,0,1,3,12.609a8.321,8.321,0,0,1-2-5.3A5.926,5.926,0,0,1,7.2,1c2.061,0,3.919,1.542,4.922,2.641a.5.5,0,0,0,.706.044c.015-.014.03-.029.044-.044C13.878,2.542,15.736,1,17.8,1A5.926,5.926,0,0,1,24,7.312,8.321,8.321,0,0,1,22,12.609Z" style="fill:#010101"/><path d="M15.142,10.346a.577.577,0,0,0-.4-.39l-1.219-.349.836-2.9a.58.58,0,0,0-1-.535l-3.335,3.963a.579.579,0,0,0,.285.93l1.18.338-1.2,3.286a.58.58,0,0,0,.253.7.565.565,0,0,0,.292.079.579.579,0,0,0,.439-.2l3.746-4.371A.579.579,0,0,0,15.142,10.346Z" style="fill:none;stroke:#010101;stroke-miterlimit:10;stroke-width:0.65px"/></symbol></defs><title>Asset 1</title><use width="25" height="22.21" xlink:href="#a"/></svg>