<svg xmlns="http://www.w3.org/2000/svg" xmlns:xlink="http://www.w3.org/1999/xlink" viewBox="0 0 25 17.759"><defs><symbol id="a" viewBox="0 0 25 17.759"><path d="M6.97,7.77H3.353a.518.518,0,1,1,0-1.036H6.97a.518.518,0,0,1,0,1.036ZM5.427,9.875H7.484a.518.518,0,1,0,0-1.035H5.427a.518.518,0,1,0,0,1.035ZM2.8,9.358A.518.518,0,0,0,2.28,8.84H1.045a.518.518,0,1,0,0,1.035H2.28A.517.517,0,0,0,2.8,9.358ZM9.6,5.147a.518.518,0,0,0-.518-.518H.518a.518.518,0,0,0,0,1.036H9.085A.518.518,0,0,0,9.6,5.147ZM25,11.557l0,.476c0,.3,0,.653,0,1.076A1.924,1.924,0,0,1,23.463,14.9a3.307,3.307,0,1,1-.034-1.085.828.828,0,0,0,.527-.7c0-.425,0-.774,0-1.081l0-.476c0-.615.007-1.457,0-1.852,0-.126-.007-.242-.012-.351H11.166A2.318,2.318,0,0,1,9.072,7.683a.518.518,0,0,1,.958-.395c.3.719.636,1.026,1.136,1.026h12.6c-.217-.513-.683-.926-1.707-1.833-.206-.182-.432-.383-.681-.606-.178-.16-.358-.332-.532-.5-.257-.246-.524-.5-.8-.735l-.689-.579c-2.762-2.326-3.595-3.027-6.026-3.027H3.79c-.594,0-1.1.379-1.1.827V3.1a.518.518,0,0,1-1.035,0V1.863A2.013,2.013,0,0,1,3.79,0h9.535c2.809,0,3.866.891,6.693,3.27l.687.578c.306.257.585.523.855.78.175.168.341.327.508.476.247.222.471.421.676.6,1.781,1.578,2.2,1.953,2.25,3.97C25,10.086,25,10.9,25,11.557Zm-2.54,2.9a.134.134,0,0,1,0-.02,2.167,2.167,0,1,0,0,.02ZM6.472,13.936h0a.518.518,0,1,0,.519.518A.517.517,0,0,0,6.47,13.936Zm13.716,0h0a.518.518,0,1,0,.52.518A.517.517,0,0,0,20.186,13.936Zm-4.394.518a.518.518,0,0,1-.518.518H9.735A3.306,3.306,0,0,1,3.2,14.9a2.062,2.062,0,0,1-1.361-1.047,1.656,1.656,0,0,1-.176-.743V11.574a.518.518,0,1,1,1.035,0v1.535a.629.629,0,0,0,.068.281.963.963,0,0,0,.466.426,3.306,3.306,0,0,1,6.508.12h5.541A.518.518,0,0,1,15.794,14.454Zm-7.054,0A2.27,2.27,0,0,0,4.2,14.448v.007a2.27,2.27,0,1,0,4.539,0Z" style="fill:#010101"/></symbol></defs><title>service-service-car</title><use width="25" height="17.759" xlink:href="#a"/></svg>