<svg xmlns="http://www.w3.org/2000/svg" xmlns:xlink="http://www.w3.org/1999/xlink" viewBox="0 0 25 17.714"><defs><symbol id="a" viewBox="0 0 25 17.714"><path d="M20.59,6.834a3.736,3.736,0,1,0-4.171,0,6.44,6.44,0,0,0-2.005,1.109,2.755,2.755,0,0,0-3.827,0A6.456,6.456,0,0,0,8.581,6.833a3.735,3.735,0,1,0-4.17,0A6.505,6.505,0,0,0,0,12.973v.013c0,.752.428,1.863,2.465,2.881a18.784,18.784,0,0,0,5.769,1.576,32.72,32.72,0,0,0,4.266.271,32.709,32.709,0,0,0,4.266-.271,18.775,18.775,0,0,0,5.769-1.576C24.572,14.849,25,13.738,25,12.986A6.505,6.505,0,0,0,20.59,6.834Zm-4.84-3.1a2.755,2.755,0,1,1,2.755,2.755A2.758,2.758,0,0,1,15.75,3.736ZM11.037,8.915a1.781,1.781,0,0,1,2.926,0h0a1.78,1.78,0,1,1-2.926,0ZM3.74,3.736A2.755,2.755,0,1,1,6.5,6.491,2.758,2.758,0,0,1,3.74,3.736ZM7.809,16.392A17.006,17.006,0,0,1,2.9,14.99c-1.236-.618-1.918-1.327-1.922-2v-.006A5.514,5.514,0,0,1,10.01,8.737a2.759,2.759,0,0,0,.729,3.318A4.7,4.7,0,0,0,7.809,16.392Zm8.4.131a31.953,31.953,0,0,1-3.712.21,31.923,31.923,0,0,1-3.711-.21V16.4a3.712,3.712,0,0,1,7.423,0ZM22.1,14.99a17,17,0,0,1-4.905,1.4,4.7,4.7,0,0,0-2.93-4.337,2.76,2.76,0,0,0,.728-3.318,5.514,5.514,0,0,1,9.03,4.249C24.02,13.659,23.337,14.37,22.1,14.99Z" style="fill:#010101"/></symbol></defs><title>service-family-parking-spots</title><use width="25" height="17.714" xlink:href="#a"/></svg>