<svg xmlns="http://www.w3.org/2000/svg" xmlns:xlink="http://www.w3.org/1999/xlink" viewBox="0 0 23.925 25"><defs><symbol id="a" viewBox="0 0 23.925 25"><path d="M0,13.2a.387.387,0,0,0,.388.387h.1a.387.387,0,0,0,.371-.277,1.928,1.928,0,0,1,3.7,0,.387.387,0,0,0,.371.277h.221a.387.387,0,0,0,.387-.387v-.019a1.926,1.926,0,0,1,3.566-.1V13.2a.387.387,0,0,0,.387.387l.041,0,.028,0h.193a.387.387,0,0,0,.371-.277,1.941,1.941,0,0,1,1.46-1.336V22.318a1.907,1.907,0,0,1-3.814,0,.388.388,0,0,0-.775,0,2.682,2.682,0,0,0,5.347.3.4.4,0,0,0,.017-.115V11.977a1.941,1.941,0,0,1,1.46,1.336.387.387,0,0,0,.371.277h.262a.387.387,0,0,0,.387-.387v-.115a1.926,1.926,0,0,1,3.527,0,.364.364,0,0,0-.018.115.388.388,0,0,0,.388.387H19a.387.387,0,0,0,.371-.277,1.928,1.928,0,0,1,3.7,0,.387.387,0,0,0,.371.277h.1a.387.387,0,0,0,.387-.387A11.962,11.962,0,0,0,12.35,1.247V.388a.388.388,0,1,0-.775,0v.859A11.962,11.962,0,0,0,0,13.2ZM17.1,4.791a8.773,8.773,0,0,0-1.905-2.3A11.216,11.216,0,0,1,23.075,11.9a2.693,2.693,0,0,0-3.932.242A16.243,16.243,0,0,0,17.1,4.791Zm-3.021.081A10.009,10.009,0,0,0,13.2,2.224c2.7.919,4.8,4.788,5.149,9.583a2.707,2.707,0,0,0-3.532.021A38.617,38.617,0,0,0,14.081,4.872Zm-4.2,7.274a38.527,38.527,0,0,1,.721-7.11c.52-2.389,1.118-3.021,1.362-3.021s.841.632,1.361,3.021a38.441,38.441,0,0,1,.721,7.11,2.7,2.7,0,0,0-4.165,0Zm-4.3-.339c.347-4.8,2.454-8.664,5.149-9.583a10.009,10.009,0,0,0-.885,2.648,38.617,38.617,0,0,0-.732,6.956,2.707,2.707,0,0,0-3.532-.021ZM.85,11.9A11.218,11.218,0,0,1,8.728,2.493a8.751,8.751,0,0,0-1.9,2.3,16.23,16.23,0,0,0-2.041,7.352A2.694,2.694,0,0,0,.85,11.9Z" style="fill:#010101"/></symbol></defs><title>service-umbrella-available</title><use width="23.925" height="25" xlink:href="#a"/></svg>