<svg xmlns="http://www.w3.org/2000/svg" xmlns:xlink="http://www.w3.org/1999/xlink" viewBox="0 0 19.172 25"><defs><symbol id="a" viewBox="0 0 19.172 25"><path d="M11.894,14.928a4.733,4.733,0,0,1-2.728-8.6,5.661,5.661,0,1,0,6.6,6.6A4.729,4.729,0,0,1,11.894,14.928Z" style="fill:none;stroke:#010101;stroke-linecap:round;stroke-linejoin:round;stroke-width:0.8px"/><path d="M18.756,3.327c-6.084,0-8.811-3.14-8.85-3.185a.431.431,0,0,0-.64,0C9.239.174,6.542,3.327.417,3.327A.417.417,0,0,0,0,3.744V11.7A14.1,14.1,0,0,0,5.229,22.752a12.71,12.71,0,0,0,4.238,2.23.4.4,0,0,0,.238,0,12.719,12.719,0,0,0,4.238-2.23A14.1,14.1,0,0,0,19.172,11.7V3.744A.417.417,0,0,0,18.756,3.327ZM18.339,11.7a13.26,13.26,0,0,1-4.911,10.4,11.922,11.922,0,0,1-3.842,2.051A11.943,11.943,0,0,1,5.744,22.1,13.258,13.258,0,0,1,.834,11.7V4.156c5.1-.113,7.862-2.291,8.752-3.145.89.854,3.651,3.032,8.753,3.145Z" style="fill:#010101"/></symbol></defs><title>service-surveillance-at-night</title><use width="19.172" height="25" xlink:href="#a"/></svg>