<svg xmlns="http://www.w3.org/2000/svg" xmlns:xlink="http://www.w3.org/1999/xlink" viewBox="0 0 25 22.797"><defs><symbol id="a" viewBox="0 0 25 22.797"><path d="M9.465,4.276a6.7,6.7,0,0,0-1.413.958L11.23,8.412Z" style="fill:none"/><path d="M5.189,20.631a.436.436,0,0,1-.379.222A.427.427,0,0,1,4.6,20.8a.435.435,0,0,1-.165-.592l.71-1.259a1.512,1.512,0,1,0,.758.429Z" style="fill:none"/><path d="M7.437,5.849a6.77,6.77,0,0,0,.036,8.965l3.221-5.707Z" style="fill:none"/><path d="M12.078,3.565a6.675,6.675,0,0,0-1.813.37l1.813,4.248Z" style="fill:none"/><path d="M8.117,15.444a6.759,6.759,0,0,0,8.858-.057L11.333,9.745Z" style="fill:none"/><path d="M22.621,18.908a1.5,1.5,0,0,0-.714.18l1.021,1.022a.435.435,0,1,1-.615.615L21.291,19.7a1.509,1.509,0,1,0,1.33-.8Z" style="fill:none"/><path d="M12.078,3.565a6.675,6.675,0,0,0-1.813.37l1.813,4.248Z" style="fill:none"/><path d="M5.189,20.631a.436.436,0,0,1-.379.222A.427.427,0,0,1,4.6,20.8a.435.435,0,0,1-.165-.592l.71-1.259a1.512,1.512,0,1,0,.758.429Z" style="fill:none"/><path d="M9.465,4.276a6.7,6.7,0,0,0-1.413.958L11.23,8.412Z" style="fill:none"/><path d="M8.117,15.444a6.759,6.759,0,0,0,8.858-.057L11.333,9.745Z" style="fill:none"/><path d="M22.621,18.908a1.5,1.5,0,0,0-.714.18l1.021,1.022a.435.435,0,1,1-.615.615L21.291,19.7a1.509,1.509,0,1,0,1.33-.8Z" style="fill:none"/><path d="M7.437,5.849a6.77,6.77,0,0,0,.036,8.965l3.221-5.707Z" style="fill:none"/><path d="M22.621,18.038a2.362,2.362,0,0,0-1.346.419L12.949,10.13V3.116a.435.435,0,0,0-.435-.435,7.593,7.593,0,0,0-2.995.611h0A7.614,7.614,0,0,0,7.435,4.617L3.4.584a1.992,1.992,0,0,0-2.818,0,1.992,1.992,0,0,0,0,2.818l.633.633a.435.435,0,0,0,.615-.615L1.2,2.787A1.123,1.123,0,1,1,2.787,1.2L6.82,5.232a7.638,7.638,0,0,0,.205,10.376L5.581,18.167a2.386,2.386,0,1,0,.757.429l1.343-2.381A7.629,7.629,0,0,0,17.591,16l3.069,3.068a2.378,2.378,0,1,0,1.961-1.034ZM4.81,21.927a1.51,1.51,0,1,1,.331-2.982L4.431,20.2A.435.435,0,0,0,4.6,20.8a.427.427,0,0,0,.214.057.436.436,0,0,0,.379-.222l.71-1.257A1.509,1.509,0,0,1,4.81,21.927ZM12.078,3.565V8.183L10.265,3.935A6.675,6.675,0,0,1,12.078,3.565Zm-2.613.711L11.23,8.412,8.052,5.234A6.7,6.7,0,0,1,9.465,4.276ZM7.473,14.814a6.77,6.77,0,0,1-.036-8.965l3.257,3.258Zm5.04,2.255a6.705,6.705,0,0,1-4.4-1.625l3.216-5.7,5.642,5.642A6.707,6.707,0,0,1,12.513,17.069Zm10.108,4.858a1.508,1.508,0,0,1-1.33-2.223l1.022,1.021a.435.435,0,0,0,.615-.615l-1.021-1.022a1.509,1.509,0,1,1,.714,2.839Z" style="fill:#010101"/></symbol></defs><title>service-buggy-available</title><use width="25" height="22.797" xlink:href="#a"/></svg>