<svg xmlns="http://www.w3.org/2000/svg" xmlns:xlink="http://www.w3.org/1999/xlink" viewBox="0 0 25 22.039"><defs><symbol id="a" viewBox="0 0 25 22.039"><rect x="5.313" y="2.807" width="0.802" height="6.017"/><rect x="2.505" y="2.807" width="0.802" height="7.621"/><rect x="19.351" y="2.807" width="0.802" height="7.621"/><rect x="22.159" y="2.807" width="0.802" height="7.621"/><rect x="8.121" y="2.807" width="0.802" height="6.017"/><rect x="10.928" y="4.412" width="0.802" height="4.412"/><rect x="13.736" y="2.807" width="0.802" height="4.412"/><rect x="16.544" y="2.807" width="0.802" height="6.017"/><path d="M23.162,0H1.9A1.807,1.807,0,0,0,.1,1.805v.6H24.967v-.6a1.807,1.807,0,0,0-1.8-1.8ZM.985,1.6A1.141,1.141,0,0,1,1.9.8H23.162a1.142,1.142,0,0,1,.919.8Zm0,0"/><rect x="5.313" y="11.23" width="0.802" height="0.802"/><rect x="22.159" y="11.23" width="0.802" height="0.802"/><rect x="2.505" y="11.23" width="0.802" height="0.802"/><rect x="2.505" y="12.835" width="0.802" height="0.802"/><rect x="22.159" y="12.835" width="0.802" height="0.802"/><rect x="13.736" y="8.022" width="0.802" height="0.802"/><rect x="5.313" y="9.626" width="0.802" height="0.802"/><rect x="0.099" y="13.236" width="0.802" height="0.802"/><rect x="24.164" y="13.236" width="0.802" height="0.802"/><rect x="10.928" y="2.807" width="0.802" height="0.802"/><path d="M19.584,17.872a2.084,2.084,0,1,0,2.083,2.083A2.086,2.086,0,0,0,19.584,17.872Zm0,3.333a1.25,1.25,0,1,1,1.25-1.25A1.251,1.251,0,0,1,19.584,21.205Z" style="fill:#010101"/><path d="M5.417,17.872A2.084,2.084,0,1,0,7.5,19.955,2.086,2.086,0,0,0,5.417,17.872Zm0,3.333a1.25,1.25,0,1,1,1.25-1.25A1.251,1.251,0,0,1,5.417,21.205Z" style="fill:#010101"/><path d="M24.584,17.872v-2.5a.415.415,0,0,0-.285-.395l-2.352-.784a6.393,6.393,0,0,0-4.792-3.4l-.015,0c-4.967-.686-8.7.434-11.09,3.332-2.768.04-5.633.913-5.633,2.5v1.25A.417.417,0,0,0,0,18.289v1.666a.417.417,0,0,0,.417.417H2.083a.417.417,0,0,0,.417-.417,2.917,2.917,0,0,1,5.833,0,.417.417,0,0,0,.417.417h7.5a.417.417,0,0,0,.417-.417,2.917,2.917,0,0,1,5.833,0,.417.417,0,0,0,.417.417h1.666A.417.417,0,0,0,25,19.955V18.289A.417.417,0,0,0,24.584,17.872Zm-5.4-5.477a5.6,5.6,0,0,1,1.731,1.727H19.171Zm-5.02-.965a18.954,18.954,0,0,1,2.852.187,6.954,6.954,0,0,1,1.339.37l-.02,2.135H14.167Zm-.834.035v2.657H7.176A9.108,9.108,0,0,1,13.333,11.465Zm10.834,8.074h-.856a3.751,3.751,0,0,0-7.455,0H9.144a3.75,3.75,0,0,0-7.454,0H.833V18.7a.417.417,0,0,0,.417-.416v-1.25h.417a.417.417,0,0,0,0-.834H1.451c.564-.612,2.288-1.25,4.8-1.25H21.6l2.151.718V16.2h-.416a.417.417,0,1,0,0,.834h.416v1.25a.417.417,0,0,0,.417.416Z" style="fill:#010101"/></symbol></defs><title>service-car-wash</title><use width="25" height="22.039" xlink:href="#a"/></svg>