<?xml version="1.0" standalone="no"?>
<!DOCTYPE svg PUBLIC "-//W3C//DTD SVG 1.1//EN" "http://www.w3.org/Graphics/SVG/1.1/DTD/svg11.dtd" >
<svg xmlns="http://www.w3.org/2000/svg">
<defs>
  <font id="qp-icons" horiz-adv-x="42">
    <font-face font-family="qp-icons"
      units-per-em="1001" ascent="1001"
      descent="0" />
    <missing-glyph horiz-adv-x="0" />
    <glyph glyph-name="arrow-down"
      unicode="&#xE001;"
      horiz-adv-x="1701.5026289845548" d="M1529.9543213933619 1001.1644758462044L850.6690765691751 343.9189944134078L171.7127834373973 1001.1644758462044L0.1644758462044 823.8595136378574L850.6690765691752 0.6579033848176L1701.5026289845548 823.8595136378574z" />
    <glyph glyph-name="arrow-up"
      unicode="&#xE002;"
      horiz-adv-x="1701.5026289845548" d="M171.7127834373973 0.6579033848176L850.8335524153796 657.9033848176142L1529.9543213933619 0.6579033848176L1701.5026289845546 177.9628655931647L850.8335524153796 1001.1644758462044L0.1644758462044 177.9628655931647z" />
    <glyph glyph-name="calendar"
      unicode="&#xE003;"
      horiz-adv-x="931.4722499169159" d="M234.597939514789 407.8517779993354A61.942904619474916 61.942904619474916 0 1 1 234.597939514789 531.7375872382852A61.942904619474916 61.942904619474916 0 0 1 234.597939514789 407.8517779993354zM234.597939514789 634.9314057826521A61.942904619474916 61.942904619474916 0 1 1 234.597939514789 758.8172150216019A61.942904619474916 61.942904619474916 0 0 1 234.597939514789 634.9314057826521zM748.6375540046528 931.4722499169158V958.817613825191A42.182386174808904 42.182386174808904 0 0 1 664.339315387172 958.817613825191V931.4722499169158H505.8559654370222V958.817613825191A42.182386174808904 42.182386174808904 0 0 1 421.5577268195414 958.817613825191V931.4722499169158H238.3238285144567V958.817613825191A42.182386174808904 42.182386174808904 0 0 1 154.0255898969757 958.817613825191V931.4722499169158H0V0H931.4722499169158V931.4722499169158H748.6375540046527zM864.9385177799934 66.5337321369226H66.5337321369226V864.9385177799934H864.9385177799934V66.5337321369226zM234.597939514789 180.7056164838816A61.942904619474916 61.942904619474916 0 1 1 234.597939514789 304.5914257228315A61.942904619474916 61.942904619474916 0 0 1 234.597939514789 180.7056164838816zM461.7441010302426 407.8517779993354A61.942904619474916 61.942904619474916 0 1 1 461.7441010302426 531.7375872382852A61.942904619474916 61.942904619474916 0 0 1 461.7441010302426 407.8517779993354zM461.7441010302426 634.9314057826521A61.942904619474916 61.942904619474916 0 1 1 461.7441010302426 758.8172150216019A61.942904619474916 61.942904619474916 0 0 1 461.7441010302426 634.9314057826521zM461.7441010302426 180.7056164838817A61.942904619474916 61.942904619474916 0 1 1 461.7441010302426 304.5914257228316A61.942904619474916 61.942904619474916 0 0 1 461.7441010302426 180.7056164838817zM688.8902625456963 407.8517779993354A61.942904619474916 61.942904619474916 0 1 1 688.8902625456963 531.7375872382852A61.942904619474916 61.942904619474916 0 0 1 688.8902625456963 407.8517779993354zM688.8902625456963 634.9314057826521A61.942904619474916 61.942904619474916 0 1 1 688.8902625456963 758.8172150216019A61.942904619474916 61.942904619474916 0 0 1 688.8902625456963 634.9314057826521z" />
    <glyph glyph-name="checkbox-checked-check"
      unicode="&#xE004;"
      horiz-adv-x="1203.202" d="M582.83225 284.284L277.652375 629.7541249999999L333.8960625 679.4913125L586.4608749999999 393.64325L1150.39925 952.952L1203.2645624999998 899.7113125z" />
    <glyph glyph-name="checkbox-checked-frame"
      unicode="&#xE005;"
      horiz-adv-x="1001" d="M925.9875625 437.9375V75.0124375H75.075V925.925H688.3126249999999V1001H0.1251249999999V0H1001V437.9375z" />
    <glyph glyph-name="checkbox-checked-test"
      unicode="&#xE006;"
      horiz-adv-x="1203.202" d="M1331455.250125 -1015514.5H1330391.687625V-1014513.5H1331142.437625V-1015076.5625H1331455.250125V-1015514.5zM62.6876250000205 1001H1063.6876250000205V0H62.6876250000205V1001zM93.9688750000205 969.71875H1032.4063750000205V31.28125H93.9688750000205V969.71875zM1176.800625000149 926.3629375000017L584.6465625001583 338.9636250000913L305.742937500123 654.6540000000969" />
    <glyph glyph-name="checkbox-unchecked"
      unicode="&#xE007;"
      horiz-adv-x="1001" d="M0 1001V0H1001V1001H0zM925.9875625 75.0124375H75.075V925.925H925.9875625V75.0124375z" />
    <glyph glyph-name="close"
      unicode="&#xE008;"
      horiz-adv-x="1001" d="M696.696 741.741L500.5 545.5450000000001L304.304 741.741L259.259 696.6959999999999L455.455 500.5L259.259 304.2585000000001L304.304 259.2135000000001L500.5 455.4095L696.696 259.2135L741.7865 304.2585000000001L545.545 500.5L741.7865 696.696z" />
    <glyph glyph-name="delete"
      unicode="&#xE009;"
      horiz-adv-x="1001" d="M696.696 741.741L500.5 545.5450000000001L304.304 741.741L259.259 696.6959999999999L455.455 500.5L259.259 304.2585000000001L304.304 259.2135000000001L500.5 455.4095L696.696 259.2135L741.7865 304.2585000000001L545.545 500.5L741.7865 696.696zM500.5 1001C224.5425 1001 0 776.4575 0 500.5S224.5425 0 500.5 0S1001 224.5424999999999 1001 500.5S776.4575000000001 1001 500.5 1001zM500.5 54.5545000000001C254.618 54.5545000000001 54.6 254.5725000000001 54.6 500.5000000000001C54.6 746.3820000000001 254.618 946.4 500.5 946.4C746.382 946.4 946.4455 746.3820000000001 946.4455 500.5000000000001C946.4455 254.6180000000002 746.3820000000002 54.5545000000001 500.5000000000001 54.5545000000001z" />
    <glyph glyph-name="download"
      unicode="&#xE00A;"
      horiz-adv-x="964.8192771084338" d="M0 72.3614457831325H964.8192771084338V-1e-13H0zM725.061686746988 422.9285301204818L673.926265060241 474.0639518072289L518.5903614457831 318.728048192771V1001H446.2289156626506V318.728048192771L290.8930120481927 474.0639518072289L239.7575903614457 422.9285301204818L482.4096385542169 180.2282409638555z" />
    <glyph glyph-name="edit"
      unicode="&#xE00B;"
      horiz-adv-x="966.1244769874477" d="M955.6537656903766 908.3744769874476L881.1506276150627 982.6359832635982A59.28033472803347 59.28033472803347 0 0 1 849.1746861924686 1000.1542887029289A51.95083682008369 51.95083682008369 0 0 1 841.2813807531381 1001A29.680439330543933 29.680439330543933 0 0 1 819.8566945606694 992.2207112970711L745.7562761506276 917.7578451882844L277.6349372384937 451.0862970711297A32.33838912133892 32.33838912133892 0 0 1 273.2452928870293 438.7630753138076L242.9205020920502 305.8655857740586A25.53242677824268 25.53242677824268 0 0 1 241.6317991631799 298.4958158995817A23.11610878661088 23.11610878661088 0 0 1 249.0821129707113 282.3870292887031A21.062238493723854 21.062238493723854 0 0 1 263.982740585774 276.225418410042A30.60669456066946 30.60669456066946 0 0 1 270.6276150627615 277.0711297071132L400.8671548117155 311.3023012552303A31.130230125523013 31.130230125523013 0 0 1 410.9351464435147 318.2693514644353L877.928870292887 785.7866108786611L952.1903765690377 860.0481171548117A39.86924686192469 39.86924686192469 0 0 1 966.164748953975 886.7887029288703A29.841527196652724 29.841527196652724 0 0 1 955.6537656903766 908.3744769874476zM380.9728033472804 357.6553347280335L295.5156903765691 336.2306485355649L317.4236401673641 421.6072175732219L321.8132845188286 426.8023012552302L386.2484309623432 362.3671548117157L380.9728033472804 357.6553347280335zM420.5198744769875 396.2358786610879L356.0847280334729 461.1140167364017L761.583158995816 866.9748953974895L826.4612970711298 802.9424686192468L420.5198744769875 396.2358786610879zM860.5716527196653 836.3279288702929L795.6935146443515 900.7630753138076L845.187761506276 950.2573221757322L909.6229079497908 885.8221757322176L860.5716527196653 836.3279288702929zM883.8891213389122 484.5523012552301C883.3655857740586 490.1903765690377 882.439330543933 495.788179916318 881.6741631799164 501.4262552301255C880.586820083682 509.6820083682009 879.4592050209205 517.9377615062762 877.8885983263598 526.0726987447699C876.7609832635984 531.9121338912134 875.3917364016736 537.7112970711297 874.0224895397489 543.510460251046A447.8242677824268 447.8242677824268 0 0 1 862.8671548117154 583.218619246862C861.6187238493724 586.9639121338912 860.1689330543933 590.5883891213389 858.7996861924686 594.2934100418411L820.9037656903766 556.3974895397489C831.6966527196653 520.4346234309623 837.6971757322177 482.4178870292887 837.6971757322177 443.0319037656905C837.6971757322177 225.4021966527197 660.6616108786611 48.3263598326361 442.9916317991633 48.3263598326361C225.3619246861926 48.3263598326361 48.326359832636 225.3619246861926 48.326359832636 443.0319037656905C48.326359832636 660.621338912134 225.3619246861925 837.6569037656905 442.9916317991633 837.6569037656905C470.8195606694562 837.6569037656905 497.9628661087867 834.6767782426779 524.2201882845189 829.1595188284518L563.8880753138076 868.7871338912134C560.6663179916318 869.7133891213389 557.404288702929 870.4382845188285 554.142259414226 871.2839958158996A450.72384937238496 450.72384937238496 0 0 1 513.7092050209205 879.7813807531381C508.4335774058578 880.6270920502092 503.1982217573223 881.5533472803347 497.8823221757323 882.1976987447699A447.2201882845188 447.2201882845188 0 0 1 442.9916317991632 885.9429916317991C198.4602510460251 885.6610878661088 0.2819037656904 687.5230125523012 0 442.9513598326361L0.0805439330544 441.2196652719666A441.2196652719665 441.2196652719665 0 0 1 53.6019874476987 231.8859832635984A445.810669456067 445.810669456067 0 0 1 244.4105648535566 47.5209205020921A439.3671548117155 439.3671548117155 0 0 1 409.3242677824269 1.6914225941423C420.4796025104603 0.845711297071 431.6349372384938 -1e-13 442.9916317991633 -1e-13C452.5360878661089 -1e-13 461.8791841004185 0.845711297071 471.3028242677825 1.4497907949791C702.5847280334729 16.390690376569 885.6610878661088 208.0449790794978 885.902719665272 443.0319037656904C885.902719665272 446.4550209205021 885.5402719665273 449.8781380753138 885.4597280334729 453.3012552301255C885.2180962343097 463.7719665271967 884.8556485355649 474.2426778242677 883.8891213389122 484.5523012552301z" />
    <glyph glyph-name="navpopup-account"
      unicode="&#xE00C;"
      horiz-adv-x="1080.312977785772" d="M544.1626495188416 962.9639805737926C361.3196780285998 962.9639805737926 212.5515783793507 814.1958809245435 212.5515783793507 631.3529094343016C212.5515783793507 448.5099379440597 361.3196780285998 299.7418382948107 544.1626495188416 299.7418382948107C727.0056210090835 299.7418382948107 875.7737206583325 448.5099379440597 875.7737206583325 631.3529094343016C875.7737206583325 814.1958809245436 727.0056210090835 962.9639805737926 544.1626495188416 962.9639805737926zM544.1626495188416 353.7124741433583A277.9555265761309 277.9555265761309 0 0 0 266.5672272686393 631.3529094343016C266.5672272686393 784.3972479539527 391.1183109991906 908.948331684504 544.1626495188416 908.948331684504S821.8030848097851 784.3972479539527 821.8030848097851 631.3529094343016A278.00053961687206 278.00053961687206 0 0 0 544.1626495188417 353.7124741433583zM22.3264682075726 0H76.9272866264952A468.36068891087325 468.36068891087325 0 0 0 294.8354168540336 333.456605809875A398.4104235992446 398.4104235992446 0 0 0 252.34310639446 370.7274035434841A522.2412986779386 522.2412986779386 0 0 1 22.3264682075726 0zM827.969871391312 370.637377462002A389.67789369547614 389.67789369547614 0 0 0 785.4325478909973 333.366579728393A468.13562370716795 468.13562370716795 0 0 0 1003.2056389963126 0H1057.8064574152352A522.421350840903 522.421350840903 0 0 1 827.969871391312 370.637377462002z" />
    <glyph glyph-name="navpopup-credentials"
      unicode="&#xE00D;"
      horiz-adv-x="1057.1490197771827" d="M1018.981518265826 159.3266257880646L936.1195699110458 75.7730805769065L880.4892477761465 130.8414802659988L963.7834441661628 214.7840487088696L926.9559115640382 251.3522324898524L843.6184903704982 167.366439243458L787.9449434320752 222.4780637360739L871.6713878573279 306.8961050177044L834.8438552552034 343.4642887986872L751.0309612229034 259.0030227135331L678.1539424820796 331.188444597979L422.046981604629 594.7732964850159A241.66987650056134 241.66987650056134 0 0 1 485.7603419984454 758.1630538043007C485.7603419984454 892.0734951204765 376.7906123153985 1001.0432248035233 242.8801709992227 1001.0432248035233S0 892.0734951204768 0 758.163053804301S108.9697296830469 515.2828828050782 242.8801709992227 515.2828828050782C295.1821832628034 515.2828828050782 343.5507384057346 532.0541065722429 383.231108040418 560.3231280766906L641.2831850764313 294.7499352275672L936.3356939286638 0.0432248035238L972.9903273166938 39.3345712064946L1055.8090508679504 122.8448916141291L1018.981518265826 159.3266257880647zM51.8697642283444 758.163053804301C51.8697642283444 863.5018999913636 137.5413248121599 949.1734605751792 242.8801709992227 949.1734605751792S433.8905777701011 863.5018999913636 433.8905777701011 758.163053804301S348.2190171862856 567.1526470334227 242.8801709992228 567.1526470334227S51.8697642283444 652.8242076172381 51.8697642283444 758.163053804301z" />
    <glyph glyph-name="navpopup-financial"
      unicode="&#xE00E;"
      horiz-adv-x="1501.5" d="M0 1004.75375V3.7537500000001H1501.5V1004.75375H0zM1426.4875625 78.82875H75.075V929.67875H1426.4875625V78.82875zM156.40625 867.11625H406.65625V829.57875H156.40625zM1094.84375 178.9287499999999H1345.09375V141.39125H1094.84375zM642.266625 403.778375L599.5364375 387.4495625A146.39624999999998 146.39624999999998 0 0 1 734.6714375 288.162875V227.7900625H773.02225V288.162875A172.297125 172.297125 0 0 1 858.5451874999999 315.8155000000001C885.9475625 336.8990625 902.3389375 369.243875 903.1522499999998 403.8409375C903.1522499999998 441.6286875 883.3824999999998 476.6636875 851.0376874999998 496.24575A265.70293749999996 265.70293749999996 0 0 1 773.0848124999999 522.0215000000001V657.1565A82.6450625 82.6450625 0 0 0 852.2889374999999 601.225625L894.8314374999999 615.6775625A130.56793750000003 130.56793750000003 0 0 1 772.8971249999998 698.6354375V750.8125625H734.6714374999998V698.6354375C670.5448749999998 690.43975 617.1164999999999 657.1565 617.1164999999999 586.0229375C616.9913749999998 551.80125 635.2596249999998 520.144625 664.9142499999998 503.0650625C686.9988124999998 491.8038125 710.4597499999998 483.608125 734.6714374999998 478.5405625000001V332.08175A103.22812499999999 103.22812499999999 0 0 0 642.2666249999997 403.778375zM773.02225 469.8443749999999C812.6243125000001 464.8393749999999 854.7288749999999 446.571125 854.7288749999999 400.0871874999999A74.63706250000001 74.63706250000001 0 0 0 773.8981249999999 332.0817499999999L773.02225 332.1443124999999V469.844375zM663.0373749999999 593.6555624999999A68.068 68.068 0 0 0 734.6714374999999 657.1564999999998V527.6521249999998C698.1974999999999 534.5965624999999 663.0373749999999 550.9253749999998 663.0373749999999 593.6555624999999z" />
    <glyph glyph-name="navpopup-language"
      unicode="&#xE00F;"
      horiz-adv-x="1224.178548895899" d="M0 1000.9514195583596V283.8069400630916H393.2100946372239V-0.0971608832806L759.9438485804416 283.7097791798108H1224.2271293375393V1000.9514195583596H0zM1165.930599369085 342.006309148265H739.9772870662459L451.4580441640378 118.7305993690852V342.1034700315458H58.2965299684543V942.6548895899055H1165.930599369085V342.006309148265z" />
    <glyph glyph-name="navpopup-logout"
      unicode="&#xE010;"
      horiz-adv-x="1544.469695076231" d="M927.9452636840788 73.0547363159211H72.7420019995001V928.1954511372159H927.9452636840788V765.5736065983505H1000.7498125468632V1001.1250937265684H0V0.3752811797052H1000.7498125468632V235.6140339915023H927.9452636840788zM1501.1247188202947 537.7779305173708V538.21575856036H1500.6868907773053L1341.3174831292176 697.5226193451638L1288.340289927518 644.48287928018L1394.5448637840539 538.21575856036H500.3123594101474V463.1595226193452H1407.0542364408896L1288.2777430642338 344.2579355161211L1341.3800299925017 291.2181954511373L1544.469695076231 494.4329542614347z" />
    <glyph glyph-name="navpopup-switch"
      unicode="&#xE011;"
      horiz-adv-x="2054.530848225115" d="M1998.5195277755313 323.2792108029435V324.1695641626912H1997.710115630306L1787.0201342281878 534.7786043502872L1718.3819843130912 466.059513220668L1860.3528745855904 324.1695641626912H677.6398479825341V227.0401067356677H1876.9458235627071L1718.3819843130912 68.4762674860517L1787.0201342281878 -0.0809412145223L2054.530848225115 267.2678903533601zM1376.9719414571034 677.0732594808767V774.2027169079001H177.8278483059756L336.1488639120239 932.442791299426L267.4297727824047 1001.161882429045L0 733.7321096466403L55.930379235061 677.7207891970568V677.0732594808766H56.6588501657637L267.4297727824048 466.221395649713L336.148863912024 534.9404867793322L194.0160912104795 677.0732594808767z" />
    <glyph glyph-name="person-walking"
      unicode="&#xE012;"
      horiz-adv-x="596.952945736434" d="M371.9995348837209 551.0931782945737H597.0305426356588V633.7338759689924H431.7491472868216L339.952015503876 785.2806201550388A85.43418604651161 85.43418604651161 0 0 1 271.0459689922481 826.6397674418605A41.04875968992248 41.04875968992248 0 0 1 247.7668992248062 822.061550387597L-0.5431782945736 743.9990697674418V505.1558139534885H82.097519379845V675.1706201550388L178.5504651162791 707.2957364341086L0.0775968992248 0.0775968992249H82.7182945736434L215.8745736434108 371.9995348837209L321.4839534883721 229.6868217054265V0.077596899225H404.1246511627907V293.937054263566L289.3588372093023 500.5775968992249L321.4839534883721 633.7338759689924L371.9995348837209 551.0931782945737zM366.8005426356588 835.7962015503877H367.4213178294573A82.64069767441859 82.64069767441859 0 1 1 366.8005426356588 835.7962015503877z" />
    <glyph glyph-name="role-administrator"
      unicode="&#xE013;"
      horiz-adv-x="949.1050196078432" d="M763.7041176470588 678.6387450980392C763.7041176470588 838.0921568627451 633.9666666666667 967.8296078431372 474.5132549019607 967.8296078431372C315.0598431372548 967.8296078431372 185.3223921568627 838.092156862745 185.3223921568627 678.6387450980392C185.3223921568627 519.1853333333333 315.0598431372549 389.4478823529411 474.5132549019607 389.4478823529411C633.9666666666667 389.4478823529411 763.7041176470588 519.1853333333333 763.7041176470588 678.6387450980392zM232.4282745098039 678.6387450980392C232.4282745098039 812.1054117647059 341.0465882352941 920.7237254901962 474.5132549019607 920.7237254901962S716.6374901960784 812.1054117647059 716.6374901960784 678.6387450980392C716.6374901960784 545.1328235294118 607.9799215686273 436.5145098039216 474.5132549019607 436.5145098039216S232.4282745098039 545.1328235294118 232.4282745098039 678.6387450980392zM19.7844705882353 121.729450980392H67.4006666666667A411.6269019607844 411.6269019607844 0 0 0 258.807568627451 414.6495294117647A347.44513725490197 347.44513725490197 0 0 0 221.7509411764706 447.1525882352941A459.0468235294118 459.0468235294118 0 0 1 19.7844705882353 121.729450980392zM727.2755686274511 447.1525882352941A338.88756862745095 338.88756862745095 0 0 0 690.2189411764707 414.6495294117647A411.66615686274514 411.66615686274514 0 0 0 881.6650980392158 121.729450980392H929.2420392156864A459.0468235294118 459.0468235294118 0 0 1 727.2755686274511 447.1525882352941zM587.8421568627452 86.4392941176469L666.312705882353 37.2921568627451L744.8225098039217 86.4392941176469V249.3078823529411H587.8421568627451V86.4392941176469zM634.9087843137256 202.2412549019606H697.7558823529413V112.5045490196077L666.3127058823532 92.8770980392155L634.9087843137256 112.5045490196077V202.2412549019606zM467.1333333333334 314.0784705882353H514.2392156862745V0.0392549019608H467.1333333333334z" />
    <glyph glyph-name="role-landlord"
      unicode="&#xE014;"
      horiz-adv-x="819.6599859627232" d="M175.6414255634407 487.8928487873352H97.5785697574671V370.7985650783748H175.6414255634407V487.8928487873352zM152.2225688216486 394.1979061062154H120.9974264992592V464.4935077594946H152.2225688216486V394.1979061062154zM312.2514232238946 487.8928487873352H234.1885674179209V370.7985650783748H312.2514232238946V487.8928487873352zM288.8325664821025 394.1979061062154H257.6074241597131V464.4935077594946H288.8325664821025V394.1979061062154zM234.1885674179209 644.0185603992825H312.2514232238946V761.1128441082429H234.1885674179209V644.0185603992825zM257.607424159713 737.6939873664509H288.8325664821025V667.4374171410745H257.607424159713V737.6939873664509zM448.8614208843485 487.8928487873352H370.7985650783748V370.7985650783748H448.8614208843485V487.8928487873352zM425.4425641425564 394.1979061062154H394.2174218201669V464.4935077594946H425.4425641425564V394.1979061062154zM370.7985650783748 644.0185603992825H448.8614208843485V761.1128441082429H370.7985650783748V644.0185603992825zM394.2174218201669 737.6939873664509H425.4425641425564V667.4374171410745H394.2174218201669V737.6939873664509zM585.4714185448023 487.8928487873352H507.4085627388287V370.7985650783748H585.4714185448023V487.8928487873352zM562.0720775169617 394.1979061062154H530.8079037666693V464.4935077594946H562.0720775169617V394.1979061062154zM507.4085627388287 644.0185603992825H585.4714185448023V761.1128441082429H507.4085627388287V644.0185603992825zM530.8079037666693 737.6939873664509H562.0720775169617V667.4374171410745H530.8079037666693V737.6939873664509zM722.0814162052561 487.8928487873352H644.0185603992825V370.7985650783748H722.0814162052561V487.8928487873352zM698.6820751774156 394.1979061062154H667.4179014271232V464.4935077594946H698.6820751774156V394.1979061062154zM175.6414255634407 312.2514232238946H97.5785697574671V195.1571395149341H175.6414255634407V312.2514232238946zM152.2225688216486 218.5564805427747H120.9974264992592V288.8520821960539H152.2225688216486V218.5564805427747zM312.2514232238946 312.2514232238946H234.1885674179209V195.1571395149341H312.2514232238946V312.2514232238946zM288.8325664821025 218.5564805427747H257.6074241597131V288.8520821960539H288.8325664821025V218.5564805427747zM448.8614208843485 312.2514232238946H370.7985650783748V195.1571395149341H448.8614208843485V312.2514232238946zM425.4425641425564 218.5564805427747H394.2174218201669V288.8520821960539H425.4425641425564V218.5564805427747zM585.4714185448023 312.2514232238946H507.4085627388287V195.1571395149341H585.4714185448023V312.2514232238946zM562.0720775169617 218.5564805427747H530.8079037666693V288.8520821960539H562.0720775169617V218.5564805427747zM722.0814162052561 312.2514232238946H644.0185603992825V195.1571395149341H722.0814162052561V312.2514232238946zM698.6820751774156 218.5564805427747H667.4179014271232V288.8520821960539H698.6820751774156V218.5564805427747zM683.0499883022694 585.4714185448023V839.1756999142166H493.6499844030258L417.0117757155112 1001L331.8452000311939 839.1756999142167H136.6099976604539V585.4714185448023H0V0H819.6599859627232V585.4714185448023H683.0499883022694zM415.9188957342276 948.6198237541915L464.8447906106216 845.323149808937H416.4653357248694L361.548116665367 845.3036340949856L415.9188957342276 948.6198237541915zM160.028854402246 815.7568431724245H659.6506472744288V589.374561335101H160.028854402246V815.7568431724246zM257.607424159713 23.3993410278406V93.6949426811198H562.0720775169617V23.3993410278406H257.607424159713zM796.2606449348826 23.3993410278406H585.4714185448023V117.0942837089605H234.1885674179209V23.3993410278406H23.4188567417921V562.0525618030101H796.2606449348826V23.3993410278406z" />
    <glyph glyph-name="role-personal"
      unicode="&#xE015;"
      horiz-adv-x="1080.312977785772" d="M544.1626495188416 962.9639805737926C361.3196780285998 962.9639805737926 212.5515783793507 814.1958809245435 212.5515783793507 631.3529094343016C212.5515783793507 448.5099379440597 361.3196780285998 299.7418382948107 544.1626495188416 299.7418382948107C727.0056210090835 299.7418382948107 875.7737206583325 448.5099379440597 875.7737206583325 631.3529094343016C875.7737206583325 814.1958809245436 727.0056210090835 962.9639805737926 544.1626495188416 962.9639805737926zM544.1626495188416 353.7124741433583A277.9555265761309 277.9555265761309 0 0 0 266.5672272686393 631.3529094343016C266.5672272686393 784.3972479539527 391.1183109991906 908.948331684504 544.1626495188416 908.948331684504S821.8030848097851 784.3972479539527 821.8030848097851 631.3529094343016A278.00053961687206 278.00053961687206 0 0 0 544.1626495188417 353.7124741433583zM22.3264682075726 0H76.9272866264952A468.36068891087325 468.36068891087325 0 0 0 294.8354168540336 333.456605809875A398.4104235992446 398.4104235992446 0 0 0 252.34310639446 370.7274035434841A522.2412986779386 522.2412986779386 0 0 1 22.3264682075726 0zM827.969871391312 370.637377462002A389.67789369547614 389.67789369547614 0 0 0 785.4325478909973 333.366579728393A468.13562370716795 468.13562370716795 0 0 0 1003.2056389963126 0H1057.8064574152352A522.421350840903 522.421350840903 0 0 1 827.969871391312 370.637377462002z" />
    <glyph glyph-name="role-professional"
      unicode="&#xE016;"
      horiz-adv-x="985.872255489022" d="M492.936127744511 966.544625035643C327.3056743655547 966.544625035643 192.5423438836613 831.7812945537496 192.5423438836613 666.1508411747932S327.3056743655547 365.7978329056173 492.936127744511 365.7978329056173S793.3299116053607 500.5203877958369 793.3299116053607 666.1508411747932S658.5665811234674 966.544625035643 492.936127744511 966.544625035643zM492.936127744511 414.6877673224978C354.2991160536071 414.6877673224978 241.4730538922156 527.5138294838893 241.4730538922156 666.1508411747932S354.2991160536071 917.6139150270886 492.936127744511 917.6139150270886C631.6139150270888 917.6139150270886 744.3992015968064 804.7878528656971 744.3992015968064 666.1508411747932S631.6139150270888 414.6877673224978 492.936127744511 414.6877673224978zM20.6324493869404 87.6675220986598H70.0932420872541A427.65440547476476 427.65440547476476 0 0 0 268.9150270886799 391.93498716852A360.9047619047619 360.9047619047619 0 0 0 230.4228685486171 425.6971770744225A476.46278870829764 476.46278870829764 0 0 1 20.6324493869405 87.6675220986598zM755.4901625320787 425.6971770744225A352.0156829198745 352.0156829198745 0 0 0 716.998003992016 391.93498716852A427.57285429141723 427.57285429141723 0 0 0 915.8197889934418 87.6675220986598H965.2398061020816A476.5443398916452 476.5443398916452 0 0 1 755.4901625320787 425.6971770744225zM433.6891930424865 319.3136583974906L405.2686056458512 51.9481037924149L488.2877102936984 -3e-13L571.3475905332193 51.9481037924149L542.4784716281723 319.3136583974906H433.6891930424865zM488.2877102936984 57.7382378100939L457.1351582549188 77.2289706301682L477.6452808668378 270.4237239806102H498.522383803821L519.3994867408042 77.2289706301682L488.2877102936984 57.7382378100939z" />
    <glyph glyph-name="search"
      unicode="&#xE017;"
      horiz-adv-x="1001.0416493301158" d="M719.9503203794625 641.0248398102688C719.9503203794625 839.5255471415495 558.475867521012 1001 359.9751601897313 1001L359.3504202379962 1000.9583506698845C168.9713322792711 1000.625156028959 13.2028376466672 851.6455022052093 1.1661812432387 664.1818673545811C0.6663892818507 656.5183906132977 0 648.8549138720145 0 641.0248398102688C0 632.6533244570192 0.7080386119664 624.4484064242323 1.2494799034701 616.2018390613298C14.0774735790963 429.3212948323208 169.8459682117001 281.0913289506532 359.9751601897312 281.0913289506532C557.8927768993925 281.0913289506532 718.9090871265707 441.6078472164433 719.867021719231 639.2755679454106L719.9503203794624 641.0248398102688zM359.9751601897313 331.028875759341C189.0463093950238 331.028875759341 49.9791961388034 470.0959890155614 49.9791961388034 641.0248398102688S189.0463093950237 951.0208038611966 359.9751601897313 951.0208038611966C530.9040109844387 951.0208038611966 670.0127735707748 811.9536906049763 670.0127735707748 641.0248398102688S530.9456603145544 331.028875759341 359.9751601897313 331.028875759341zM937.4014729133728 190.878879920113L772.3868269950904 355.8935258383955A89.96255304984606 89.96255304984606 0 1 1 645.1064741616045 228.6131730049097L810.121120079887 63.5985270866272A89.96255304984606 89.96255304984606 0 1 1 937.4014729133728 190.878879920113z" />
  </font>
</defs>
</svg>
