<?xml version="1.0" encoding="utf-8"?>
<!-- Generator: Adobe Illustrator 15.0.2, SVG Export Plug-In . SVG Version: 6.00 Build 0)  -->
<!DOCTYPE svg PUBLIC "-//W3C//DTD SVG 1.1//EN" "http://www.w3.org/Graphics/SVG/1.1/DTD/svg11.dtd">
<svg version="1.1" id="Layer_1" xmlns="http://www.w3.org/2000/svg" xmlns:xlink="http://www.w3.org/1999/xlink" x="0px" y="0px"
	 width="126.597px" height="49.279px" viewBox="0 0 126.597 49.279" enable-background="new 0 0 126.597 49.279"
	 xml:space="preserve">
<g>
	<path fill="#939598" d="M122.341,29.934"/>
</g>
<g>
	<path fill="#ffffff" d="M44.34,32.202h-3.714V11.931h5.571c2.486,0,3.829,0.425,5.029,1.549c1.229,1.155,1.942,2.948,1.942,4.804
		c0,4.102-2.314,6.413-6.428,6.413h-2.4V32.202 M45.854,21.262c2.344,0,3.486-0.974,3.486-2.979c0-2.008-1.171-2.919-3.715-2.919
		H44.34v5.897H45.854z"/>
	<path fill="#ffffff" d="M56.508,27.919l-1.715,4.283h-3.94l8.257-20.697h2.8l7.999,20.697h-3.971l-1.627-4.283H56.508z M60.48,17.431l-2.771,7.296
		h5.429L60.48,17.431z"/>
	<path fill="#ffffff" d="M84.651,32.202h-4.572l-5.142-8.145H74.45v8.145h-3.713V11.931h5.514c4.287,0,6.744,2.188,6.744,5.987
		c0,3.099-1.543,5.138-4.344,5.743L84.651,32.202 M75.538,21.262c2.371,0,3.629-1.096,3.629-3.131c0-1.978-1.258-3.011-3.572-3.011
		H74.45v6.142H75.538z"/>
	<polygon fill="#ffffff" points="96.452,11.93 101.137,11.93 93.079,21.291 101.565,32.202 96.679,32.202 89.907,23.084 89.45,23.57 89.45,32.202 
		85.736,32.202 85.736,11.93 89.45,11.93 89.45,20.5 	"/>
	<polygon fill="#ED1C2E" points="91.049,35.471 77.361,49.279 88.242,49.279 102.024,35.471 	"/>
	<polygon fill="#ED1C2E" points="112.905,35.471 102.024,35.471 115.715,21.637 126.597,21.637 	"/>
	<path fill="#ffffff" d="M26.834,21.607H15.953l8.646,8.737c-2.074,1.155-4.462,1.814-7.006,1.814c-7.94,0-14.376-6.415-14.376-14.33
		c0-7.912,6.436-14.328,14.376-14.328c7.941,0,14.378,6.416,14.378,14.328c0,2.574-0.681,4.99-1.874,7.077L26.834,21.607
		 M26.972,32.743l2.671,2.7h10.882l-8.016-8.102c1.812-2.775,2.866-6.091,2.866-9.654C35.375,7.92,27.457,0,17.688,0
		S0,7.92,0,17.688c0,9.77,7.919,17.688,17.688,17.688C21.093,35.376,24.273,34.41,26.972,32.743"/>
</g>
</svg>
