<?xml version="1.0" encoding="utf-8"?>
<!-- Generator: Adobe Illustrator 22.0.1, SVG Export Plug-In . SVG Version: 6.00 Build 0)  -->
<svg version="1.1" id="Layer_1" xmlns="http://www.w3.org/2000/svg" xmlns:xlink="http://www.w3.org/1999/xlink" x="0px" y="0px"
	 viewBox="0 0 58 58" style="enable-background:new 0 0 58 58;" xml:space="preserve">
<style type="text/css">
	.st0{fill:none;}
	.st1{fill:#666666;}
</style>
<g id="Symbol_77_1" transform="translate(-19079 -13705)">
	<g id="Group_1195" transform="translate(91)">
		<g id="Ellipse_406" transform="translate(88 347)">
			<g>
				<circle class="st0" cx="18929" cy="13387" r="29"/>
			</g>
			<g>
				<path class="st1" d="M18929,13416c-15.99,0-29-13.009-29-29s13.01-29,29-29c15.992,0,29,13.009,29,29
					S18944.992,13416,18929,13416z M18929,13359.2c-15.328,0-27.801,12.471-27.801,27.8s12.473,27.801,27.801,27.801
					s27.801-12.472,27.801-27.801S18944.328,13359.2,18929,13359.2z"/>
			</g>
		</g>
		<g id="Path_3585">
			<polygon class="st1" points="19026.566,13744.166 19016.4,13734.253 19016.4,13717.155 19017.6,13717.155 19017.6,13733.747 
				19027.402,13743.307 			"/>
		</g>
	</g>
	<g id="Ellipse_408">
		<circle class="st1" cx="19108" cy="13755.371" r="0.89"/>
	</g>
	<g id="Ellipse_409">
		<circle class="st1" cx="19108" cy="13712.628" r="0.89"/>
	</g>
	<g id="Ellipse_410">
		<circle class="st1" cx="19086.629" cy="13734" r="0.89"/>
	</g>
	<g id="Ellipse_411">
		<circle class="st1" cx="19129.371" cy="13734" r="0.89"/>
	</g>
	<g id="Ellipse_412">
		<circle class="st1" cx="19123.111" cy="13749.112" r="0.89"/>
	</g>
	<g id="Ellipse_413">
		<circle class="st1" cx="19092.887" cy="13718.888" r="0.89"/>
	</g>
	<g id="Ellipse_414">
		<circle class="st1" cx="19092.889" cy="13749.11" r="0.89"/>
	</g>
	<g id="Ellipse_415">
		<circle class="st1" cx="19123.111" cy="13718.888" r="0.89"/>
	</g>
</g>
</svg>
