<?xml version="1.0" encoding="utf-8"?>
<!-- Generator: Adobe Illustrator 21.1.0, SVG Export Plug-In . SVG Version: 6.00 Build 0)  -->
<svg version="1.1" id="Layer_1" xmlns="http://www.w3.org/2000/svg" xmlns:xlink="http://www.w3.org/1999/xlink" x="0px" y="0px"
	 viewBox="0 0 44 64" style="enable-background:new 0 0 44 64;" xml:space="preserve">
<style type="text/css">
	.st0{fill:#FFFFFF;}
</style>
<g id="Group_506" transform="translate(-3475 -3548)">
	<path id="Path_1592" d="M3496.9,3548.4c12.1,0,21.9,9.8,21.9,21.9c0,12.1-8.5,21.4-21.9,41.3c-13.6-19.8-21.9-29.2-21.9-41.3
		C3475,3558.2,3484.8,3548.4,3496.9,3548.4z"/>
	<path id="Path_1591" class="st0" d="M3503.3,3573.1h-7.5l6,6.1c-4.8,2.7-10.8,0.9-13.5-3.9c-2.7-4.8-0.9-10.8,3.9-13.5
		c4.8-2.7,10.8-0.9,13.5,3.9c1.7,3,1.7,6.7-0.1,9.7L3503.3,3573.1 M3503.4,3580.8l1.9,1.9h7.5l-5.6-5.6c3.7-5.7,2.1-13.3-3.6-17
		c-5.7-3.7-13.3-2.1-17,3.6c-3.7,5.7-2.1,13.3,3.6,17C3494.3,3583.2,3499.4,3583.3,3503.4,3580.8"/>
</g>
</svg>
