<svg xmlns="http://www.w3.org/2000/svg" viewBox="-20263 -18040 24 16">
  <defs>
    <style>
      .cls-1, .cls-3, .cls-5 {
        fill: none;
      }

      .cls-1, .cls-3 {
        stroke: #666;
      }

      .cls-1 {
        stroke-width: 1.2px;
      }

      .cls-2 {
        fill: #666;
        stroke: rgba(0,0,0,0);
      }

      .cls-3 {
        stroke-width: 0.6px;
      }

      .cls-4 {
        stroke: none;
      }
    </style>
  </defs>
  <g id="Group_1357" data-name="Group 1357" transform="translate(-21251 -18234)">
    <g id="Rectangle_4598" data-name="Rectangle 4598" class="cls-1" transform="translate(988 194)">
      <rect class="cls-4" width="24" height="16"/>
      <rect class="cls-5" x="0.6" y="0.6" width="22.8" height="14.8"/>
    </g>
    <path id="Path_4016" data-name="Path 4016" class="cls-2" d="M3.953-6.78v-.965A2.753,2.753,0,0,0,5.32-8.187a1.83,1.83,0,0,0,.713-1.407A1.728,1.728,0,0,0,5.2-11.071a4.227,4.227,0,0,0-1.246-.412v-2.16a1.322,1.322,0,0,1,1.266.894L5.9-12.98a2.087,2.087,0,0,0-1.949-1.326v-.834H3.34v.834c-1.025.131-1.879.663-1.879,1.8a1.524,1.524,0,0,0,.764,1.326,4.465,4.465,0,0,0,1.115.392v2.341A1.65,1.65,0,0,1,1.863-9.593l-.683.261A2.34,2.34,0,0,0,3.34-7.745v.965Zm0-3.869c.633.08,1.306.372,1.306,1.115A1.194,1.194,0,0,1,3.953-8.448Zm-.613-.924c-.583-.111-1.145-.372-1.145-1.055A1.088,1.088,0,0,1,3.34-13.643Z" transform="translate(996.403 213.14)"/>
    <line id="Line_1475" data-name="Line 1475" class="cls-3" x2="4" transform="translate(990.5 196.5)"/>
    <line id="Line_1476" data-name="Line 1476" class="cls-3" x2="4" transform="translate(1005.5 207.5)"/>
  </g>
</svg>
