<svg xmlns="http://www.w3.org/2000/svg" xmlns:xlink="http://www.w3.org/1999/xlink" viewBox="-22787 -19087 24.178 22.402">
  <defs>
    <style>
      .cls-1 {
        fill: #d90327;
      }

      .cls-2, .cls-5 {
        fill: none;
      }

      .cls-2 {
        stroke: #666;
        stroke-width: 1.2px;
      }

      .cls-3 {
        clip-path: url(#clip-path);
      }

      .cls-4 {
        stroke: none;
      }
    </style>
    <clipPath id="clip-path">
      <path id="Subtraction_1" data-name="Subtraction 1" class="cls-1" d="M24.176,22.4H0V0H9.82A8.584,8.584,0,0,0,3.105,8.213,8.755,8.755,0,0,0,12.088,16.7a8.755,8.755,0,0,0,8.983-8.486A8.584,8.584,0,0,0,14.356,0h9.82V22.4Z" transform="translate(-0.669)"/>
    </clipPath>
  </defs>
  <g id="Symbol_6_1" data-name="Symbol 6 – 1" transform="translate(-22839.465 -19619.488)">
    <g id="Ellipse_24" data-name="Ellipse 24" class="cls-2" transform="translate(57.187 533.334)">
      <circle class="cls-4" cx="7.367" cy="7.367" r="7.367"/>
      <circle class="cls-5" cx="7.367" cy="7.367" r="6.767"/>
    </g>
    <g id="Mask_Group_1" data-name="Mask Group 1" class="cls-3" transform="translate(53.135 532.488)">
      <path id="Path_233" data-name="Path 233" class="cls-2" d="M11.683.6A11.083,11.083,0,1,1,.6,11.683,11.083,11.083,0,0,1,11.683.6Z" transform="translate(-0.264 12.166)"/>
    </g>
  </g>
</svg>
