<svg xmlns="http://www.w3.org/2000/svg" viewBox="-17258 -9132.342 42 51.292">
  <defs>
    <style>
      .cls-1, .cls-3 {
        fill: none;
      }

      .cls-1 {
        stroke: #666;
        stroke-width: 1.2px;
      }

      .cls-2 {
        stroke: none;
      }
    </style>
  </defs>
  <g id="Symbol_9_1" data-name="Symbol 9 – 1" transform="translate(-18112 -9701.05)">
    <g id="Rectangle_298" data-name="Rectangle 298" class="cls-1" transform="translate(854 590)">
      <rect class="cls-2" width="42" height="30"/>
      <rect class="cls-3" x="0.6" y="0.6" width="40.8" height="28.8"/>
    </g>
    <path id="Path_242" data-name="Path 242" class="cls-1" d="M.6.6H27.4V13.4H.6Z" transform="translate(861 577)"/>
    <g id="Rectangle_300" data-name="Rectangle 300" class="cls-1" transform="translate(859 595)">
      <rect class="cls-2" width="4" height="6"/>
      <rect class="cls-3" x="0.6" y="0.6" width="2.8" height="4.8"/>
    </g>
    <g id="Rectangle_302" data-name="Rectangle 302" class="cls-1" transform="translate(866 595)">
      <rect class="cls-2" width="4" height="6"/>
      <rect class="cls-3" x="0.6" y="0.6" width="2.8" height="4.8"/>
    </g>
    <g id="Rectangle_310" data-name="Rectangle 310" class="cls-1" transform="translate(866 581)">
      <rect class="cls-2" width="4" height="6"/>
      <rect class="cls-3" x="0.6" y="0.6" width="2.8" height="4.8"/>
    </g>
    <g id="Rectangle_304" data-name="Rectangle 304" class="cls-1" transform="translate(873 595)">
      <rect class="cls-2" width="4" height="6"/>
      <rect class="cls-3" x="0.6" y="0.6" width="2.8" height="4.8"/>
    </g>
    <g id="Rectangle_311" data-name="Rectangle 311" class="cls-1" transform="translate(873 581)">
      <rect class="cls-2" width="4" height="6"/>
      <rect class="cls-3" x="0.6" y="0.6" width="2.8" height="4.8"/>
    </g>
    <g id="Rectangle_306" data-name="Rectangle 306" class="cls-1" transform="translate(880 595)">
      <rect class="cls-2" width="4" height="6"/>
      <rect class="cls-3" x="0.6" y="0.6" width="2.8" height="4.8"/>
    </g>
    <g id="Rectangle_312" data-name="Rectangle 312" class="cls-1" transform="translate(880 581)">
      <rect class="cls-2" width="4" height="6"/>
      <rect class="cls-3" x="0.6" y="0.6" width="2.8" height="4.8"/>
    </g>
    <g id="Rectangle_308" data-name="Rectangle 308" class="cls-1" transform="translate(887 595)">
      <rect class="cls-2" width="4" height="6"/>
      <rect class="cls-3" x="0.6" y="0.6" width="2.8" height="4.8"/>
    </g>
    <g id="Rectangle_301" data-name="Rectangle 301" class="cls-1" transform="translate(859 604)">
      <rect class="cls-2" width="4" height="6"/>
      <rect class="cls-3" x="0.6" y="0.6" width="2.8" height="4.8"/>
    </g>
    <g id="Rectangle_303" data-name="Rectangle 303" class="cls-1" transform="translate(866 604)">
      <rect class="cls-2" width="4" height="6"/>
      <rect class="cls-3" x="0.6" y="0.6" width="2.8" height="4.8"/>
    </g>
    <g id="Rectangle_305" data-name="Rectangle 305" class="cls-1" transform="translate(873 604)">
      <rect class="cls-2" width="4" height="6"/>
      <rect class="cls-3" x="0.6" y="0.6" width="2.8" height="4.8"/>
    </g>
    <g id="Rectangle_307" data-name="Rectangle 307" class="cls-1" transform="translate(880 604)">
      <rect class="cls-2" width="4" height="6"/>
      <rect class="cls-3" x="0.6" y="0.6" width="2.8" height="4.8"/>
    </g>
    <g id="Rectangle_309" data-name="Rectangle 309" class="cls-1" transform="translate(887 604)">
      <rect class="cls-2" width="4" height="6"/>
      <rect class="cls-3" x="0.6" y="0.6" width="2.8" height="4.8"/>
    </g>
    <g id="Rectangle_313" data-name="Rectangle 313" class="cls-1" transform="translate(866 614)">
      <rect class="cls-2" width="18" height="6"/>
      <rect class="cls-3" x="0.6" y="0.6" width="16.8" height="4.8"/>
    </g>
    <path id="Path_240" data-name="Path 240" class="cls-1" d="M-5.658-6.342l7.54,2.693L-.542-1.226-3.234,1.467Z" transform="translate(874.856 578.535) rotate(45)"/>
  </g>
</svg>
