<svg xmlns="http://www.w3.org/2000/svg" xmlns:xlink="http://www.w3.org/1999/xlink" viewBox="-20078 5481.143 23.99 24.856">
  <defs>
    <style>
      .cls-1 {
        fill: #d90327;
      }

      .cls-2 {
        fill: #666;
      }

      .cls-3 {
        clip-path: url(#clip-path);
      }

      .cls-4, .cls-6 {
        fill: none;
      }

      .cls-4 {
        stroke: #666;
        stroke-width: 1.2px;
      }

      .cls-5 {
        stroke: none;
      }
    </style>
    <clipPath id="clip-path">
      <path id="Subtraction_411" data-name="Subtraction 411" class="cls-1" d="M933-3971.49a11.012,11.012,0,0,1-11-11,11.013,11.013,0,0,1,11-11,11.007,11.007,0,0,1,3.011.417l-2.023,2.022,7.071,7.07,2.277-2.277a10.965,10.965,0,0,1,.662,3.767A11.012,11.012,0,0,1,933-3971.49Z" transform="translate(250 4355.49)"/>
    </clipPath>
  </defs>
  <g id="icon-edit" transform="translate(-21250 5122)">
    <g id="Group_1316" data-name="Group 1316" transform="translate(1178 359.043)">
      <path id="Path_3947" data-name="Path 3947" class="cls-2" d="M17.73,2.4,15.88.556a1.477,1.477,0,0,0-.794-.435A1.36,1.36,0,0,0,14.89.1a.739.739,0,0,0-.532.218l-1.84,1.849L.894,13.755a.8.8,0,0,0-.109.306l-.753,3.3A.63.63,0,0,0,0,17.544a.575.575,0,0,0,.185.4.523.523,0,0,0,.37.153.814.814,0,0,0,.165-.021l3.234-.85a.779.779,0,0,0,.25-.173L15.8,5.444,17.644,3.6a.989.989,0,0,0,.347-.664A.738.738,0,0,0,17.73,2.4ZM3.46,16.075l-2.122.532.544-2.12.109-.129,1.6,1.6Zm.982-.958-1.6-1.611L12.911,3.428l1.611,1.59ZM15.369,4.189l-1.611-1.6,1.229-1.229,1.6,1.6Z"/>
    </g>
    <g id="Mask_Group_173" data-name="Mask Group 173" class="cls-3">
      <g id="Ellipse_417" data-name="Ellipse 417" class="cls-4" transform="translate(1172 362)">
        <circle class="cls-5" cx="11" cy="11" r="11"/>
        <circle class="cls-6" cx="11" cy="11" r="10.4"/>
      </g>
    </g>
  </g>
</svg>
