<svg xmlns="http://www.w3.org/2000/svg" viewBox="-22175.996 -3481 10.996 10.999">
  <defs>
    <style>
      .cls-1 {
        fill: #666;
      }
    </style>
  </defs>
  <path id="Subtraction_374" data-name="Subtraction 374" class="cls-1" d="M22642.5,4209a5.5,5.5,0,1,1,3.891-1.61A5.462,5.462,0,0,1,22642.5,4209Zm-.543-6.486h0v4.288h1.2v-4.288h-1.2Zm.605-2.529a.7.7,0,0,0-.512.212.665.665,0,0,0-.213.5.708.708,0,0,0,.213.522.7.7,0,0,0,.512.213.724.724,0,0,0,.719-.726.7.7,0,0,0-.211-.51A.709.709,0,0,0,22642.563,4199.983Z" transform="translate(-44813 -7679)"/>
</svg>
