<svg xmlns="http://www.w3.org/2000/svg" viewBox="-17919.422 -23306.422 28 28">
  <defs>
    <style>
      .cls-1 {
        fill: #d3d3d3;
      }
    </style>
  </defs>
  <g id="location-marker" transform="translate(-17919.422 -23306.422)">
    <g id="Group_1287" data-name="Group 1287" transform="translate(0)">
      <path id="Path_3941" data-name="Path 3941" class="cls-1" d="M294.551,292.325a2.223,2.223,0,1,0,2.223,2.223A2.225,2.225,0,0,0,294.551,292.325Zm0,3.334a1.111,1.111,0,1,1,1.111-1.111A1.113,1.113,0,0,1,294.551,295.659Z" transform="translate(-280.551 -280.547)"/>
      <path id="Path_3942" data-name="Path 3942" class="cls-1" d="M27.444,13.444h-6.67a6.808,6.808,0,0,0-6.218-6.218V.556a.556.556,0,0,0-1.112,0v6.67a6.808,6.808,0,0,0-6.219,6.218H.556a.556.556,0,1,0,0,1.112h6.67a6.808,6.808,0,0,0,6.219,6.218v6.67a.556.556,0,0,0,1.112,0V20.774a6.807,6.807,0,0,0,6.218-6.218h6.67a.556.556,0,0,0,0-1.112ZM14,19.687A5.687,5.687,0,1,1,19.687,14,5.694,5.694,0,0,1,14,19.687Z" transform="translate(0)"/>
    </g>
  </g>
</svg>
