<?xml version="1.0" encoding="utf-8"?>
<!-- Generator: Adobe Illustrator 22.0.1, SVG Export Plug-In . SVG Version: 6.00 Build 0)  -->
<svg version="1.1" id="Layer_1" xmlns="http://www.w3.org/2000/svg" xmlns:xlink="http://www.w3.org/1999/xlink" x="0px" y="0px"
	 viewBox="0 0 15 22.246" style="enable-background:new 0 0 15 22.246;" xml:space="preserve">
<style type="text/css">
	.st0{fill:#666666;}
</style>
<g id="Path_4046">
	<path class="st0" d="M7.497,22.247l-0.416-0.64c-0.634-0.975-1.239-1.886-1.808-2.743C2.098,14.081,0,10.92,0,7.5
		C0,3.364,3.364,0,7.5,0S15,3.364,15,7.5c0,3.533-2.373,7.073-5.657,11.974c-0.46,0.686-0.937,1.396-1.426,2.137L7.497,22.247z
		 M7.5,1C3.916,1,1,3.916,1,7.5c0,3.119,2.031,6.179,5.106,10.811c0.445,0.671,0.912,1.374,1.397,2.115
		c0.344-0.517,0.68-1.02,1.008-1.509C11.698,14.163,14,10.728,14,7.5C14,3.916,11.084,1,7.5,1z"/>
</g>
</svg>
