<?xml version="1.0" encoding="utf-8"?>
<!-- Generator: Adobe Illustrator 22.0.1, SVG Export Plug-In . SVG Version: 6.00 Build 0)  -->
<svg version="1.1" id="Layer_1" xmlns="http://www.w3.org/2000/svg" xmlns:xlink="http://www.w3.org/1999/xlink" x="0px" y="0px" height="49" width="284"
	 viewBox="0 0 772.528 133.228" style="enable-background:new 0 0 772.528 133.228;" xml:space="preserve">
<style type="text/css">
	.st0{fill:#FFFFFF;}
	.st1{fill:#E40520;stroke:#E40520;stroke-width:0.2438;}
</style>
<path class="st0" d="M119.772,86.985h-10.044V32.229h15.054c6.708,0,10.339,1.148,13.578,4.187c3.328,3.11,5.248,7.966,5.248,12.968
	c0,11.08-6.255,17.331-17.362,17.331h-6.474V86.985z M123.847,57.428c6.342,0,9.43-2.624,9.43-8.045
	c0-5.422-3.178-7.877-10.04-7.877h-3.464v15.922H123.847"/>
<path class="st0" d="M152.633,75.412l-4.629,11.573h-10.652l22.309-55.904h7.562l21.607,55.904h-10.727l-4.397-11.573H152.633z
	 M163.359,47.088l-7.487,19.704h14.669L163.359,47.088"/>
<path class="st0" d="M228.645,86.985h-12.35l-13.887-22.007h-1.313v22.007h-10.028V32.229h14.888
	c11.582,0,18.221,5.906,18.221,16.176c0,8.363-4.172,13.867-11.737,15.51L228.645,86.985z M204.033,57.428
	c6.403,0,9.8-2.959,9.8-8.457c0-5.338-3.397-8.129-9.652-8.129h-3.086v16.586H204.033"/>
<polyline class="st0" points="260.519,32.229 273.174,32.229 251.41,57.501 274.331,86.985 261.131,86.985 242.839,62.355 
	241.607,63.663 241.607,86.985 231.573,86.985 231.573,32.229 241.607,32.229 241.607,55.377 260.519,32.229 "/>
<polyline class="st1" points="245.93,95.809 208.949,133.106 238.339,133.106 275.571,95.809 245.93,95.809 "/>
<polyline class="st1" points="304.964,95.809 275.571,95.809 312.547,58.447 341.943,58.447 304.964,95.809 "/>
<path class="st0" d="M72.476,58.363H43.095L66.45,81.966c-5.602,3.119-12.059,4.901-18.932,4.901
	c-21.449,0-38.826-17.324-38.826-38.708c0-21.372,17.377-38.704,38.826-38.704c21.449,0,38.839,17.332,38.839,38.704
	c0,6.952-1.841,13.479-5.06,19.115L72.476,58.363z M72.85,88.444l7.217,7.292h29.397L87.799,73.854
	c4.902-7.495,7.752-16.454,7.752-26.076C95.552,21.395,74.166,0,47.779,0C21.394,0,0,21.395,0,47.778
	c0,26.385,21.394,47.773,47.779,47.773C56.972,95.552,65.567,92.944,72.85,88.444"/>
<path class="st0" d="M412.292,87.368l-3.059-3.283c-3.232,2.305-7.062,3.562-11.007,3.562c-10.451,0-18.937-8.427-18.937-18.831
	c0-10.453,8.543-18.932,19.051-18.932c10.396,0,18.935,8.588,18.935,19.1c0,4.924-1.482,8.595-5.251,12.805l5.471,5.579H412.292z
	 M409.174,78.889c2.905-3.221,3.995-5.967,3.995-10.128c0-8.372-6.628-15.046-14.885-15.046c-8.325,0-14.887,6.625-14.887,15.102
	c0,8.374,6.562,14.999,14.773,14.999c3.014,0,5.809-0.881,8.214-2.635l-8.812-8.864h5.312L409.174,78.889"/>
<path class="st0" d="M428.556,77.523c0,4.591,1.527,6.562,5.139,6.562c3.557,0,5.087-1.971,5.087-6.562V64.271h3.893v13.69
	c0,3.331-0.552,5.144-2.084,6.845c-1.638,1.854-4.104,2.841-6.896,2.841c-2.844,0-5.308-0.987-6.952-2.841
	c-1.53-1.701-2.083-3.514-2.083-6.845v-13.69h3.896V77.523"/>
<path class="st0" d="M472.277,64.271v22.714h-3.887v-3.17c-2.188,2.678-4.594,3.832-7.883,3.832
	c-6.232,0-10.892-5.147-10.892-12.049c0-6.885,4.603-11.872,10.892-11.872c3.232,0,5.643,1.149,7.883,3.783v-3.238H472.277z
	 M453.622,75.441c0,5.038,3.118,8.644,7.439,8.644c4.536,0,7.598-3.502,7.598-8.589c0-4.815-3.166-8.215-7.656-8.215
	C456.841,67.281,453.622,70.842,453.622,75.441"/>
<rect x="480.653" y="47.088" class="st0" width="3.882" height="39.897"/>
<path class="st0" d="M497.676,55.683c0,1.529-1.263,2.79-2.801,2.79c-1.529,0-2.787-1.261-2.787-2.79
	c0-1.529,1.258-2.792,2.787-2.792C496.414,52.891,497.676,54.153,497.676,55.683z M492.905,64.271h3.897v22.714h-3.897V64.271z"/>
<polyline class="st0" points="509.107,86.985 505.224,86.985 505.224,67.893 502.875,67.893 502.875,64.271 505.224,64.271 
	505.224,56.064 509.107,56.064 509.107,64.271 513.16,64.271 513.16,67.893 509.107,67.893 509.107,86.985 "/>
<polyline class="st0" points="514.59,64.271 519.076,64.271 527.114,80.531 534.452,64.271 538.885,64.271 522.083,99.791 
	517.706,99.791 525.042,84.852 514.59,64.271 "/>
<path class="st0" d="M563.344,55.683c0,1.529-1.262,2.79-2.792,2.79c-1.533,0-2.787-1.261-2.787-2.79
	c0-1.529,1.254-2.792,2.787-2.792C562.082,52.891,563.344,54.153,563.344,55.683z M558.586,64.271h3.895v22.714h-3.895V64.271z"/>
<path class="st0" d="M574.781,64.271v2.745c1.979-2.408,3.723-3.29,6.57-3.29c2.736,0,5.264,1.204,6.517,3.12
	c0.872,1.427,1.255,3.115,1.255,6.075v14.063h-3.882V73.577c0-4.648-1.259-6.348-4.816-6.348c-3.941,0-5.644,2.517-5.644,8.438
	v11.317h-3.885V64.271H574.781"/>
<path class="st0" d="M612.114,99.791v-35.52h3.881v3.238c2.184-2.634,4.656-3.783,7.942-3.783c6.35,0,10.882,5.09,10.882,12.256
	c0,6.683-4.7,11.665-10.94,11.665c-3.166,0-5.589-1.154-7.884-3.832v15.976H612.114z M615.781,75.883
	c0,4.759,3.227,8.202,7.661,8.202c4.162,0,7.386-3.605,7.386-8.147c0-5.096-3.116-8.656-7.436-8.656
	C618.901,67.281,615.781,70.783,615.781,75.883"/>
<path class="st0" d="M662.954,64.271v22.714h-3.882v-3.17c-2.195,2.678-4.594,3.832-7.88,3.832c-6.241,0-10.9-5.147-10.9-12.049
	c0-6.885,4.611-11.872,10.9-11.872c3.227,0,5.631,1.149,7.88,3.783v-3.238H662.954z M644.3,75.441c0,5.038,3.11,8.644,7.435,8.644
	c4.544,0,7.607-3.502,7.607-8.589c0-4.815-3.178-8.215-7.664-8.215C647.526,67.281,644.3,70.842,644.3,75.441"/>
<path class="st0" d="M675.215,64.271v2.463c2.026-2.408,3.008-3.008,5.142-3.008c1.264,0,2.085,0.216,3.447,0.992L682,68.217
	c-0.978-0.604-1.485-0.772-2.293-0.772c-3.185,0-4.491,2.247-4.491,7.56v11.981h-3.89V64.271H675.215"/>
<polyline class="st0" points="692.283,72.65 700.501,64.271 705.698,64.271 696.012,73.957 707.554,86.985 702.414,86.985 
	693.275,76.648 692.283,77.634 692.283,86.985 688.4,86.985 688.4,47.088 692.283,47.088 692.283,72.65 "/>
<path class="st0" d="M717.137,55.683c0,1.529-1.258,2.79-2.795,2.79c-1.523,0-2.792-1.261-2.792-2.79
	c0-1.529,1.268-2.792,2.792-2.792C715.879,52.891,717.137,54.153,717.137,55.683z M712.372,64.271h3.896v22.714h-3.896V64.271z"/>
<path class="st0" d="M728.577,64.271v2.745c1.976-2.408,3.711-3.29,6.57-3.29c2.737,0,5.255,1.204,6.503,3.12
	c0.878,1.427,1.261,3.115,1.261,6.075v14.063h-3.883V73.577c0-4.648-1.261-6.348-4.816-6.348c-3.938,0-5.635,2.517-5.635,8.438
	v11.317h-3.882V64.271H728.577"/>
<path class="st0" d="M772.528,86.493c0,4.499-0.554,6.68-2.193,8.93c-1.968,2.677-5.253,4.212-9.025,4.212
	c-6.573,0-10.836-3.996-11.061-10.396h3.836c0.384,4.429,2.892,6.84,7.28,6.84c4.752,0,7.268-3.061,7.268-8.934v-3.33
	c-2.184,2.521-4.916,3.778-7.986,3.778c-6.178,0-10.836-5.094-10.836-11.879c0-6.898,4.658-11.988,11.004-11.988
	c3.17,0,5.635,1.204,7.818,3.783v-3.238h3.896V86.493z M753.811,75.668c0,4.915,3.062,8.371,7.441,8.371
	c4.377,0,7.549-3.508,7.549-8.371c0-4.93-3.113-8.387-7.549-8.387C756.921,67.281,753.811,70.783,753.811,75.668"/>
</svg>
