<?xml version="1.0" encoding="utf-8"?>
<!-- Generator: Adobe Illustrator 15.0.2, SVG Export Plug-In . SVG Version: 6.00 Build 0)  -->
<!DOCTYPE svg PUBLIC "-//W3C//DTD SVG 1.1//EN" "http://www.w3.org/Graphics/SVG/1.1/DTD/svg11.dtd">
<svg version="1.1" id="Layer_1" xmlns="http://www.w3.org/2000/svg" xmlns:xlink="http://www.w3.org/1999/xlink" x="0px" y="0px"
	 width="126.597px" height="49.279px" viewBox="0 0 126.597 49.279" enable-background="new 0 0 126.597 49.279"
	 xml:space="preserve">
<g>
	<path fill="#939598" d="M122.341,32.934"/>
</g>
<g>
	<path fill="#FFFFFF" d="M44.34,32.202h-3.715V11.929h5.571c2.486,0,3.829,0.425,5.029,1.55c1.229,1.154,1.941,2.948,1.941,4.803
		c0,4.102-2.313,6.414-6.428,6.414H44.34V32.202 M45.854,21.26c2.344,0,3.486-0.973,3.486-2.978c0-2.007-1.172-2.919-3.716-2.919
		H44.34v5.897H45.854z"/>
	<path fill="#FFFFFF" d="M56.508,27.919l-1.715,4.284h-3.939l8.257-20.699h2.8l7.999,20.699h-3.972l-1.627-4.284H56.508z
		 M60.48,17.43l-2.771,7.295h5.429L60.48,17.43z"/>
	<path fill="#FFFFFF" d="M84.65,32.202h-4.571l-5.143-8.146H74.45v8.146h-3.714V11.929h5.515c4.286,0,6.742,2.188,6.742,5.987
		c0,3.1-1.543,5.138-4.343,5.744L84.65,32.202 M75.537,21.26c2.371,0,3.629-1.095,3.629-3.131c0-1.976-1.258-3.009-3.572-3.009
		H74.45v6.14H75.537z"/>
	<polygon fill="#FFFFFF" points="96.451,11.929 101.137,11.929 93.078,21.29 101.564,32.202 96.679,32.202 89.908,23.083 
		89.45,23.569 89.45,32.202 85.735,32.202 85.735,11.929 89.45,11.929 89.45,20.499 	"/>
	<polygon fill="#ED1C2E" points="91.05,35.47 77.36,49.279 88.241,49.279 102.023,35.47 	"/>
</g>
<g>
	<polygon fill="none" stroke="#ED1C2E" stroke-width="0.173" points="91.05,35.47 77.36,49.279 88.241,49.279 102.023,35.47 	"/>
</g>
<g>
	<polygon fill="#ED1C2E" points="112.905,35.47 102.024,35.47 115.715,21.635 126.597,21.635 	"/>
	<polygon fill="none" stroke="#ED1C2E" stroke-width="0.173" points="112.905,35.47 102.024,35.47 115.715,21.635 126.597,21.635 	
		"/>
	<path fill="#FFFFFF" d="M26.834,21.605H15.953l8.646,8.739c-2.074,1.155-4.462,1.815-7.006,1.815
		c-7.94,0-14.376-6.415-14.376-14.331C3.217,9.915,9.652,3.5,17.593,3.5c7.941,0,14.378,6.415,14.378,14.329
		c0,2.574-0.681,4.989-1.874,7.076L26.834,21.605 M26.972,32.744l2.671,2.7h10.882l-8.017-8.102
		c1.812-2.776,2.867-6.092,2.867-9.655C35.375,7.917,27.457,0,17.688,0C7.919,0,0,7.917,0,17.687c0,9.77,7.919,17.69,17.688,17.69
		C21.093,35.376,24.272,34.411,26.972,32.744"/>
</g>
</svg>
