<?xml version="1.0" encoding="utf-8"?>
<!-- Generator: Adobe Illustrator 15.0.2, SVG Export Plug-In . SVG Version: 6.00 Build 0)  -->
<!DOCTYPE svg PUBLIC "-//W3C//DTD SVG 1.1//EN" "http://www.w3.org/Graphics/SVG/1.1/DTD/svg11.dtd">
<svg version="1.1" id="Layer_1" xmlns="http://www.w3.org/2000/svg" xmlns:xlink="http://www.w3.org/1999/xlink" x="0px" y="0px"
	 width="290px" height="49.333px" viewBox="0 0 290 49.333" enable-background="new 0 0 290 49.333" xml:space="preserve">
<g>
	<g>
		<path fill="#FFFFFF" d="M44.34,32.256h-3.715V11.983h5.571c2.486,0,3.829,0.425,5.029,1.55c1.229,1.154,1.941,2.948,1.941,4.803
			c0,4.102-2.313,6.414-6.428,6.414H44.34V32.256 M45.854,21.314c2.344,0,3.486-0.973,3.486-2.978c0-2.007-1.172-2.919-3.716-2.919
			H44.34v5.897H45.854z"/>
		<path fill="#FFFFFF" d="M56.508,27.973l-1.715,4.284h-3.939l8.257-20.699h2.8l7.999,20.699h-3.972l-1.627-4.284H56.508z
			 M60.48,17.484l-2.771,7.295h5.429L60.48,17.484z"/>
		<path fill="#FFFFFF" d="M84.65,32.256h-4.571l-5.143-8.146H74.45v8.146h-3.714V11.983h5.515c4.286,0,6.742,2.188,6.742,5.987
			c0,3.1-1.543,5.138-4.343,5.744L84.65,32.256 M75.537,21.314c2.371,0,3.629-1.095,3.629-3.131c0-1.976-1.258-3.009-3.572-3.009
			H74.45v6.14H75.537z"/>
		<polygon fill="#FFFFFF" points="96.451,11.983 101.137,11.983 93.078,21.344 101.564,32.256 96.679,32.256 89.908,23.137 
			89.45,23.624 89.45,32.256 85.735,32.256 85.735,11.983 89.45,11.983 89.45,20.553 		"/>
		<polygon fill="#ED1C2E" points="91.05,35.524 77.36,49.333 88.241,49.333 102.023,35.524 		"/>
	</g>
	<g>
		<polygon fill="none" stroke="#ED1C2E" stroke-width="0.173" points="91.05,35.524 77.36,49.333 88.241,49.333 102.023,35.524 		
			"/>
	</g>
	<g>
		<polygon fill="#ED1C2E" points="112.905,35.524 102.024,35.524 115.715,21.689 126.597,21.689 		"/>
		<polygon fill="none" stroke="#ED1C2E" stroke-width="0.173" points="112.905,35.524 102.024,35.524 115.715,21.689 
			126.597,21.689 		"/>
		<path fill="#FFFFFF" d="M26.834,21.66H15.953l8.646,8.739c-2.074,1.155-4.462,1.815-7.006,1.815
			c-7.94,0-14.376-6.415-14.376-14.331c0-7.914,6.436-14.329,14.376-14.329c7.941,0,14.378,6.415,14.378,14.329
			c0,2.574-0.681,4.989-1.874,7.076L26.834,21.66 M26.972,32.798l2.671,2.7h10.882l-8.017-8.102
			c1.812-2.776,2.867-6.092,2.867-9.655c0-9.769-7.918-17.687-17.688-17.687C7.919,0.054,0,7.972,0,17.741
			c0,9.77,7.919,17.69,17.688,17.69C21.093,35.431,24.272,34.465,26.972,32.798"/>
		<path fill="#FFFFFF" d="M155.977,32.4l-1.135-1.215c-1.197,0.851-2.613,1.316-4.074,1.316c-3.87,0-7.011-3.12-7.011-6.971
			c0-3.87,3.161-7.01,7.052-7.01c3.851,0,7.012,3.181,7.012,7.072c0,1.824-0.547,3.181-1.944,4.742l2.026,2.066H155.977
			 M154.821,29.26c1.075-1.197,1.479-2.21,1.479-3.75c0-3.1-2.452-5.572-5.512-5.572c-3.08,0-5.511,2.452-5.511,5.592
			c0,3.101,2.431,5.554,5.471,5.554c1.115,0,2.148-0.326,3.04-0.975l-3.262-3.281h1.965L154.821,29.26z"/>
		<path fill="#FFFFFF" d="M161.994,28.752c0,1.703,0.567,2.432,1.905,2.432c1.316,0,1.883-0.729,1.883-2.432V23.85h1.439v5.065
			c0,1.237-0.203,1.904-0.769,2.533c-0.609,0.69-1.521,1.054-2.554,1.054c-1.055,0-1.966-0.364-2.575-1.054
			c-0.565-0.629-0.77-1.296-0.77-2.533V23.85h1.439V28.752"/>
		<path fill="#FFFFFF" d="M178.184,23.849v8.41h-1.439v-1.175c-0.809,0.993-1.7,1.417-2.917,1.417c-2.309,0-4.033-1.905-4.033-4.458
			c0-2.553,1.703-4.397,4.033-4.397c1.196,0,2.087,0.426,2.917,1.398v-1.195H178.184 M171.275,27.982
			c0,1.864,1.154,3.203,2.754,3.203c1.683,0,2.817-1.298,2.817-3.183c0-1.783-1.176-3.039-2.837-3.039
			C172.471,24.963,171.275,26.279,171.275,27.982"/>
		<rect x="181.284" y="17.485" fill="#FFFFFF" width="1.438" height="14.773"/>
		<path fill="#FFFFFF" d="M187.586,20.668c0,0.567-0.466,1.033-1.034,1.033c-0.566,0-1.033-0.466-1.033-1.033
			c0-0.568,0.467-1.034,1.033-1.034C187.12,19.634,187.586,20.1,187.586,20.668 M187.261,32.258h-1.438v-8.409h1.438V32.258z"/>
		<polygon fill="#FFFFFF" points="191.82,32.259 190.381,32.259 190.381,25.186 189.511,25.186 189.511,23.85 190.381,23.85 
			190.381,20.81 191.82,20.81 191.82,23.85 193.32,23.85 193.32,25.186 191.82,25.186 		"/>
		<polygon fill="#FFFFFF" points="193.848,23.849 195.509,23.849 198.486,29.866 201.201,23.849 202.844,23.849 196.622,37 195,37 
			197.718,31.468 		"/>
		<path fill="#FFFFFF" d="M211.901,20.668c0,0.567-0.467,1.033-1.035,1.033c-0.567,0-1.033-0.466-1.033-1.033
			c0-0.568,0.466-1.034,1.033-1.034C211.435,19.634,211.901,20.1,211.901,20.668 M211.577,32.258h-1.439v-8.409h1.439V32.258z"/>
		<path fill="#FFFFFF" d="M216.135,23.849v1.013c0.729-0.892,1.379-1.216,2.433-1.216c1.012,0,1.945,0.446,2.411,1.155
			c0.324,0.527,0.467,1.155,0.467,2.249v5.208h-1.438v-4.966c0-1.72-0.468-2.349-1.784-2.349c-1.459,0-2.088,0.932-2.088,3.12v4.195
			h-1.439v-8.409H216.135"/>
		<path fill="#FFFFFF" d="M229.955,37V23.849h1.439v1.195c0.809-0.972,1.721-1.398,2.938-1.398c2.35,0,4.031,1.885,4.031,4.538
			c0,2.473-1.741,4.317-4.052,4.317c-1.176,0-2.067-0.424-2.917-1.417V37H229.955 M231.312,28.144c0,1.763,1.195,3.041,2.837,3.041
			c1.54,0,2.734-1.338,2.734-3.021c0-1.884-1.154-3.2-2.756-3.2C232.468,24.964,231.312,26.259,231.312,28.144"/>
		<path fill="#FFFFFF" d="M248.778,23.849v8.41h-1.438v-1.175c-0.811,0.993-1.701,1.417-2.918,1.417
			c-2.31,0-4.033-1.905-4.033-4.458c0-2.553,1.703-4.397,4.033-4.397c1.196,0,2.086,0.426,2.918,1.398v-1.195H248.778
			 M241.869,27.982c0,1.864,1.155,3.203,2.755,3.203c1.683,0,2.817-1.298,2.817-3.183c0-1.783-1.174-3.039-2.837-3.039
			C243.064,24.963,241.869,26.279,241.869,27.982"/>
		<path fill="#FFFFFF" d="M253.317,23.849v0.912c0.75-0.892,1.114-1.115,1.906-1.115c0.465,0,0.769,0.082,1.274,0.365l-0.668,1.296
			c-0.365-0.223-0.548-0.283-0.851-0.283c-1.176,0-1.662,0.831-1.662,2.796v4.438h-1.439v-8.409H253.317"/>
		<polygon fill="#FFFFFF" points="259.639,26.949 262.678,23.849 264.604,23.849 261.018,27.436 265.292,32.259 263.388,32.259 
			260.005,28.429 259.639,28.793 259.639,32.259 258.2,32.259 258.2,17.486 259.639,17.486 		"/>
		<path fill="#FFFFFF" d="M268.838,20.668c0,0.567-0.466,1.033-1.033,1.033c-0.566,0-1.032-0.466-1.032-1.033
			c0-0.568,0.466-1.034,1.032-1.034C268.372,19.634,268.838,20.1,268.838,20.668 M268.516,32.258h-1.44v-8.409h1.44V32.258z"/>
		<path fill="#FFFFFF" d="M273.073,23.849v1.013c0.729-0.892,1.378-1.216,2.431-1.216c1.014,0,1.946,0.446,2.412,1.155
			c0.324,0.527,0.465,1.155,0.465,2.249v5.208h-1.438v-4.966c0-1.72-0.466-2.349-1.783-2.349c-1.459,0-2.087,0.932-2.087,3.12v4.195
			h-1.439v-8.409H273.073"/>
		<path fill="#FFFFFF" d="M289.345,32.077c0,1.66-0.202,2.471-0.812,3.301c-0.729,0.993-1.944,1.562-3.343,1.562
			c-2.432,0-4.012-1.481-4.093-3.85h1.418c0.142,1.639,1.074,2.531,2.696,2.531c1.762,0,2.693-1.134,2.693-3.302v-1.235
			c-0.81,0.93-1.823,1.397-2.959,1.397c-2.289,0-4.011-1.884-4.011-4.398c0-2.552,1.722-4.437,4.072-4.437
			c1.176,0,2.088,0.446,2.897,1.398v-1.195h1.439V32.077 M282.415,28.063c0,1.824,1.134,3.102,2.757,3.102
			c1.62,0,2.794-1.298,2.794-3.102c0-1.824-1.155-3.1-2.794-3.1C283.569,24.963,282.415,26.259,282.415,28.063"/>
	</g>
</g>
</svg>
