<?xml version="1.0" encoding="utf-8"?>
<!-- Generator: Adobe Illustrator 15.0.2, SVG Export Plug-In . SVG Version: 6.00 Build 0)  -->
<!DOCTYPE svg PUBLIC "-//W3C//DTD SVG 1.1//EN" "http://www.w3.org/Graphics/SVG/1.1/DTD/svg11.dtd">
<svg version="1.1" id="Layer_1" xmlns="http://www.w3.org/2000/svg" xmlns:xlink="http://www.w3.org/1999/xlink" x="0px" y="0px"
	 width="290px" height="49.333px" viewBox="0 0 290 49.333" enable-background="new 0 0 290 49.333" xml:space="preserve">
<g>
	<path fill="#939598" d="M122.341,29.934"/>
</g>
<g>
	<path d="M44.34,32.202h-3.714V11.931h5.571c2.486,0,3.829,0.425,5.029,1.549c1.229,1.155,1.942,2.948,1.942,4.804
		c0,4.102-2.314,6.413-6.428,6.413h-2.4V32.202 M45.854,21.262c2.344,0,3.486-0.974,3.486-2.979c0-2.008-1.171-2.919-3.715-2.919
		H44.34v5.897H45.854z"/>
	<path d="M56.508,27.919l-1.715,4.283h-3.94l8.257-20.697h2.8l7.999,20.697h-3.972l-1.627-4.283H56.508z M60.48,17.431l-2.771,7.296
		h5.429L60.48,17.431z"/>
	<path d="M84.651,32.202h-4.572l-5.142-8.145H74.45v8.145h-3.713V11.931h5.514c4.286,0,6.743,2.188,6.743,5.987
		c0,3.099-1.543,5.138-4.343,5.743L84.651,32.202 M75.537,21.262c2.372,0,3.629-1.096,3.629-3.131c0-1.978-1.257-3.011-3.572-3.011
		H74.45v6.142H75.537z"/>
	<polygon points="96.451,11.93 101.137,11.93 93.078,21.291 101.565,32.202 96.679,32.202 89.907,23.084 89.45,23.57 89.45,32.202 
		85.736,32.202 85.736,11.93 89.45,11.93 89.45,20.5 	"/>
	<polygon fill="#ED1C2E" points="91.05,35.471 77.361,49.279 88.242,49.279 102.024,35.471 	"/>
	<polygon fill="#ED1C2E" points="112.905,35.471 102.024,35.471 115.715,21.637 126.597,21.637 	"/>
	<path d="M26.834,21.607H15.953l8.646,8.737c-2.074,1.155-4.462,1.814-7.006,1.814c-7.94,0-14.376-6.415-14.376-14.33
		c0-7.912,6.436-14.328,14.376-14.328c7.941,0,14.378,6.416,14.378,14.328c0,2.574-0.681,4.99-1.874,7.077L26.834,21.607
		 M26.972,32.743l2.671,2.7h10.882l-8.016-8.102c1.812-2.775,2.866-6.091,2.866-9.654C35.375,7.92,27.457,0,17.688,0
		S0,7.92,0,17.688c0,9.77,7.919,17.688,17.688,17.688C21.093,35.376,24.273,34.41,26.972,32.743"/>
	<path d="M155.977,32.346l-1.135-1.215c-1.197,0.852-2.613,1.318-4.074,1.318c-3.871,0-7.011-3.122-7.011-6.973
		c0-3.868,3.161-7.01,7.052-7.01c3.85,0,7.012,3.181,7.012,7.071c0,1.824-0.547,3.183-1.944,4.742l2.026,2.065H155.977
		 M154.821,29.206c1.076-1.195,1.479-2.208,1.479-3.749c0-3.099-2.452-5.572-5.513-5.572c-3.079,0-5.51,2.452-5.51,5.592
		c0,3.101,2.431,5.554,5.471,5.554c1.115,0,2.148-0.324,3.039-0.974l-3.262-3.284h1.965L154.821,29.206z"/>
	<path d="M161.994,28.7c0,1.7,0.568,2.431,1.906,2.431c1.315,0,1.883-0.73,1.883-2.431v-4.904h1.438v5.066
		c0,1.235-0.203,1.904-0.769,2.531c-0.608,0.69-1.521,1.056-2.553,1.056c-1.056,0-1.966-0.365-2.575-1.056
		c-0.566-0.627-0.77-1.296-0.77-2.531v-5.066h1.438V28.7"/>
	<path d="M178.184,23.795v8.409h-1.439V31.03c-0.809,0.992-1.7,1.419-2.917,1.419c-2.31,0-4.033-1.907-4.033-4.458
		c0-2.554,1.703-4.398,4.033-4.398c1.196,0,2.087,0.426,2.917,1.398v-1.196H178.184 M171.276,27.931c0,1.863,1.152,3.2,2.754,3.2
		c1.683,0,2.816-1.296,2.816-3.181c0-1.783-1.175-3.04-2.836-3.04C172.471,24.91,171.276,26.228,171.276,27.931"/>
	<rect x="181.284" y="17.433" width="1.439" height="14.771"/>
	<path d="M187.586,20.614c0,0.567-0.466,1.033-1.034,1.033c-0.567,0-1.034-0.466-1.034-1.033s0.467-1.032,1.034-1.032
		C187.121,19.582,187.586,20.047,187.586,20.614 M187.261,32.204h-1.438v-8.408h1.438V32.204z"/>
	<polygon points="191.821,32.204 190.381,32.204 190.381,25.134 189.511,25.134 189.511,23.796 190.381,23.796 190.381,20.757 
		191.821,20.757 191.821,23.796 193.321,23.796 193.321,25.134 191.821,25.134 	"/>
	<polygon points="193.848,23.795 195.508,23.795 198.487,29.814 201.202,23.795 202.844,23.795 196.623,36.946 195,36.946 
		197.717,31.414 	"/>
	<path d="M211.901,20.614c0,0.567-0.467,1.033-1.035,1.033c-0.566,0-1.032-0.466-1.032-1.033s0.466-1.032,1.032-1.032
		C211.434,19.582,211.901,20.047,211.901,20.614 M211.578,32.204h-1.439v-8.408h1.439V32.204z"/>
	<path d="M216.135,23.795v1.015c0.729-0.893,1.379-1.217,2.433-1.217c1.012,0,1.944,0.446,2.411,1.154
		c0.324,0.528,0.467,1.156,0.467,2.251v5.206h-1.439v-4.963c0-1.723-0.467-2.351-1.783-2.351c-1.459,0-2.088,0.932-2.088,3.12v4.193
		h-1.439v-8.409H216.135"/>
	<path d="M229.956,36.946V23.795h1.439v1.196c0.809-0.973,1.721-1.398,2.938-1.398c2.352,0,4.031,1.884,4.031,4.539
		c0,2.473-1.741,4.317-4.053,4.317c-1.175,0-2.066-0.426-2.916-1.419v5.916H229.956 M231.313,28.092
		c0,1.763,1.195,3.039,2.836,3.039c1.541,0,2.735-1.336,2.735-3.019c0-1.885-1.155-3.202-2.756-3.202
		C232.468,24.91,231.313,26.207,231.313,28.092"/>
	<path d="M248.778,23.795v8.409h-1.438V31.03c-0.811,0.992-1.701,1.419-2.918,1.419c-2.311,0-4.033-1.907-4.033-4.458
		c0-2.554,1.703-4.398,4.033-4.398c1.195,0,2.086,0.426,2.918,1.398v-1.196H248.778 M241.87,27.931c0,1.863,1.154,3.2,2.755,3.2
		c1.683,0,2.817-1.296,2.817-3.181c0-1.783-1.174-3.04-2.838-3.04C243.065,24.91,241.87,26.228,241.87,27.931"/>
	<path d="M253.318,23.795v0.912c0.75-0.892,1.114-1.114,1.905-1.114c0.465,0,0.77,0.081,1.275,0.365l-0.668,1.297
		c-0.365-0.222-0.548-0.284-0.852-0.284c-1.176,0-1.661,0.831-1.661,2.798v4.436h-1.439v-8.409H253.318"/>
	<polygon points="259.639,26.896 262.678,23.795 264.604,23.795 261.018,27.382 265.292,32.205 263.388,32.205 260.005,28.375 
		259.639,28.741 259.639,32.205 258.2,32.205 258.2,17.433 259.639,17.433 	"/>
	<path d="M268.838,20.614c0,0.567-0.466,1.033-1.033,1.033c-0.566,0-1.033-0.466-1.033-1.033s0.467-1.032,1.033-1.032
		C268.373,19.582,268.838,20.047,268.838,20.614 M268.514,32.204h-1.439v-8.408h1.439V32.204z"/>
	<path d="M273.074,23.795v1.015c0.729-0.893,1.378-1.217,2.431-1.217c1.014,0,1.946,0.446,2.412,1.154
		c0.324,0.528,0.465,1.156,0.465,2.251v5.206h-1.438v-4.963c0-1.723-0.467-2.351-1.783-2.351c-1.459,0-2.087,0.932-2.087,3.12v4.193
		h-1.439v-8.409H273.074"/>
	<path d="M289.344,32.023c0,1.662-0.201,2.472-0.811,3.303c-0.729,0.993-1.945,1.559-3.343,1.559c-2.433,0-4.013-1.478-4.093-3.85
		h1.418c0.142,1.642,1.074,2.534,2.695,2.534c1.763,0,2.694-1.134,2.694-3.304V31.03c-0.81,0.932-1.823,1.396-2.959,1.396
		c-2.289,0-4.011-1.885-4.011-4.396c0-2.554,1.722-4.438,4.072-4.438c1.176,0,2.088,0.446,2.897,1.398v-1.196h1.438V32.023
		 M282.415,28.011c0,1.824,1.135,3.101,2.758,3.101c1.619,0,2.793-1.296,2.793-3.101c0-1.823-1.154-3.101-2.793-3.101
		C283.57,24.91,282.415,26.207,282.415,28.011"/>
</g>
</svg>
