<?xml version="1.0" encoding="utf-8"?>
<!-- Generator: Adobe Illustrator 21.1.0, SVG Export Plug-In . SVG Version: 6.00 Build 0)  -->
<svg version="1.1" id="Layer_1" xmlns="http://www.w3.org/2000/svg" xmlns:xlink="http://www.w3.org/1999/xlink" x="0px" y="0px"
	 viewBox="0 0 59.1 18.1" width="64" height="64" style="enable-background:new 0 0 59.1 18.1;" xml:space="preserve">
<style type="text/css">
	.st0{fill:#00589F;}
	.st1{fill:#F9A51A;}
</style>
<path class="st0" d="M20.8,17.9l3-17.6h4.8l-3,17.6 M43,0.7C42,0.4,40.6,0,38.7,0c-4.7,0-8.1,2.4-8.1,5.8c0,2.5,2.4,3.9,4.2,4.8
	c1.9,0.9,2.5,1.4,2.5,2.2c0,1.2-1.5,1.7-2.9,1.7c-1.9,0-2.9-0.3-4.5-0.9l-0.6-0.3l-0.7,3.9c1.1,0.5,3.2,0.9,5.3,0.9
	c5,0,8.3-2.4,8.3-6c0-2-1.3-3.5-4-4.8c-1.7-0.8-2.7-1.4-2.7-2.2c0-0.7,0.9-1.5,2.7-1.5c1.6,0,2.7,0.3,3.6,0.7l0.4,0.2L43,0.7
	 M55.3,0.3h-3.7c-1.1,0-2,0.3-2.5,1.5L42,17.9h5c0,0,0.8-2.2,1-2.6l6.1,0c0.1,0.6,0.6,2.6,0.6,2.6h4.4L55.3,0.3 M49.4,11.6
	c0.4-1,1.9-4.9,1.9-4.9c0,0,0.4-1,0.6-1.7l0.3,1.5l1.1,5.1C53.3,11.6,49.4,11.6,49.4,11.6z M16.8,0.3l-4.7,12l-0.5-2.4
	C10.8,7.1,8,4,5,2.5l4.3,15.4l5.1,0l7.5-17.5H16.8"/>
<path class="st1" d="M7.8,0.3H0.1L0,0.7c6,1.5,10,5,11.6,9.2L10,1.8C9.7,0.7,8.8,0.3,7.8,0.3"/>
</svg>
