<svg xmlns="http://www.w3.org/2000/svg" width="64" height="64" viewBox="-3.655 -3.655 64 64"><circle fill="#D3D3D3" cx="28.345" cy="28.345" r="32.011"/><path fill="#FFF" d="M14.658 23.057c.908-2.862 2.27-5.298 4.085-7.305 1.745-1.954 3.865-3.49 6.362-4.607 2.426-1.082 4.904-1.623 7.436-1.623 2.147 0 4.485.437 7.017 1.31v6.413c-2.426-1.134-4.738-1.7-6.938-1.7-2.097 0-4.12.584-6.075 1.753-2.216 1.326-3.858 3.246-4.922 5.76h15.473l-2.645 4.136H20.576c-.018.192-.026.306-.026.34l.025.838-.026.942c0 .314.025.638.078.97H32.59l-2.616 4.136h-8.09c.698 1.396 1.606 2.592 2.724 3.587 1.134 1.013 2.443 1.807 3.927 2.382 1.43.54 2.818.81 4.162.81 2.2 0 4.484-.557 6.86-1.674v6.283c-2.515.906-4.845 1.36-6.99 1.36-3.614 0-7.034-1.048-10.264-3.142-3.647-2.374-6.144-5.576-7.487-9.608h-5.68l2.644-4.137h2.198c-.035-.4-.052-.732-.052-.994v-.08l.026-.838-.026-.497v-.315c0-.07.01-.192.026-.367H9.135l2.645-4.136h2.878z"/></svg>