<?xml version="1.0" encoding="utf-8"?>
<!-- Generator: Adobe Illustrator 21.1.0, SVG Export Plug-In . SVG Version: 6.00 Build 0)  -->
<svg version="1.1" id="Layer_1" xmlns="http://www.w3.org/2000/svg" xmlns:xlink="http://www.w3.org/1999/xlink" x="0px" y="0px"
	 viewBox="0 0 340.5 264.9" width="64" height="64" style="enable-background:new 0 0 340.5 264.9;" xml:space="preserve">
<style type="text/css">
	.st0{fill:#13110C;}
	.st1{fill:#EA5B0C;}
	.st2{fill:#DE0716;}
	.st3{fill:#F59E00;}
	.st4{fill:#FFFFFF;}
</style>
<g id="XMLID_24_">
	<path id="XMLID_33_" class="st0" d="M61.9,263.4v-17.5c0-6.6-4.2-11-11-11.1c-3.6-0.1-7.3,1.1-9.8,5c-1.9-3.1-5-5-9.2-5
		c-3,0-5.9,0.9-8.2,4.1v-3.4h-6.1v27.9h6.1v-15.5c0-4.9,2.7-7.4,6.8-7.4c4,0,6.1,2.6,6.1,7.4v15.5h6.1v-15.5c0-4.9,2.8-7.4,6.8-7.4
		c4.1,0,6.1,2.6,6.1,7.4v15.5H61.9z M152.8,235.4h-9.9V227h-6.1v8.5H131v5.6h5.7v12.7c0,6.5,2.5,10.3,9.7,10.3
		c2.6,0,5.7-0.8,7.6-2.2l-1.7-5.2c-1.8,1.1-3.8,1.6-5.4,1.6c-3,0-4-1.9-4-4.7V241h9.9V235.4z M204.6,234.7c-3.5,0-5.8,1.6-7.4,4.1
		v-3.4h-6v27.9h6.1v-15.7c0-4.6,2-7.2,6-7.2c1.2,0,2.5,0.2,3.8,0.7l1.9-5.7C207.6,235,205.9,234.7,204.6,234.7 M126.2,237.7
		c-2.9-1.9-7-2.9-11.4-2.9c-7.1,0-11.6,3.4-11.6,8.9c0,4.6,3.4,7.4,9.6,8.2l2.9,0.4c3.3,0.5,4.9,1.3,4.9,2.9c0,2.2-2.2,3.4-6.4,3.4
		c-4.2,0-7.3-1.3-9.3-2.9l-2.9,4.7c3.3,2.5,7.5,3.6,12.1,3.6c8.1,0,12.7-3.8,12.7-9.1c0-4.9-3.7-7.5-9.8-8.4l-2.9-0.4
		c-2.6-0.3-4.7-0.9-4.7-2.7c0-2,2-3.3,5.3-3.3c3.6,0,7,1.3,8.7,2.4L126.2,237.7z M289.1,234.7c-3.5,0-5.8,1.6-7.4,4.1v-3.4h-6v27.9
		h6.1v-15.7c0-4.6,2-7.2,6-7.2c1.2,0,2.5,0.2,3.8,0.7l1.9-5.7C292.1,235,290.3,234.7,289.1,234.7 M210.8,249.4
		c0,8.5,5.9,14.7,14.9,14.7c4.2,0,7-0.9,10.1-3.3l-2.9-4.9c-2.3,1.6-4.7,2.5-7.3,2.5c-4.9-0.1-8.4-3.6-8.4-8.9
		c0-5.4,3.6-8.9,8.4-8.9c2.6,0,5,0.9,7.3,2.5l2.9-4.9c-3-2.4-5.8-3.3-10.1-3.3C216.7,234.7,210.8,240.9,210.8,249.4 M267.7,249.4
		v-14h-6.1v3.4c-1.9-2.5-4.8-4.1-8.8-4.1c-7.8,0-14,6.1-14,14.7c0,8.5,6.1,14.7,14,14.7c4,0,6.9-1.6,8.8-4.1v3.4h6.1V249.4z
		 M245.1,249.4c0-4.9,3.2-8.9,8.5-8.9c5,0,8.4,3.9,8.4,8.9c0,5.1-3.4,8.9-8.4,8.9C248.3,258.4,245.1,254.3,245.1,249.4 M171.7,234.7
		c-8.2,0-13.9,6-13.9,14.7c0,8.9,6,14.7,14.3,14.7c4.2,0,8.1-1.1,11.5-3.9l-3-4.5c-2.3,1.9-5.3,2.9-8.1,2.9c-3.9,0-7.5-1.8-8.4-6.8
		h20.8c0.1-0.8,0.1-1.5,0.1-2.3C184.9,240.7,179.6,234.7,171.7,234.7 M171.6,240.2c3.9,0,6.4,2.5,7.1,6.8h-14.5
		C164.8,242.9,167.3,240.2,171.6,240.2 M324.1,249.4v-25.2H318v14.6c-1.9-2.5-4.8-4.1-8.8-4.1c-7.8,0-14,6.1-14,14.7
		c0,8.5,6.1,14.7,14,14.7c4,0,6.9-1.6,8.8-4.1v3.4h6.1V249.4z M301.5,249.4c0-4.9,3.2-8.9,8.5-8.9c5,0,8.4,3.9,8.4,8.9
		c0,5.1-3.4,8.9-8.4,8.9C304.7,258.4,301.5,254.3,301.5,249.4 M96.2,249.4v-14h-6.1v3.4c-1.9-2.5-4.9-4.1-8.8-4.1
		c-7.8,0-14,6.1-14,14.7c0,8.5,6.1,14.7,14,14.7c4,0,6.9-1.6,8.8-4.1v3.4h6.1V249.4z M73.6,249.4c0-4.9,3.2-8.9,8.5-8.9
		c5,0,8.4,3.9,8.4,8.9c0,5.1-3.4,8.9-8.4,8.9C76.8,258.4,73.6,254.3,73.6,249.4 M334.2,259.3c0.4,0,0.8,0.1,1.1,0.2
		c0.3,0.1,0.6,0.3,0.9,0.6c0.3,0.3,0.5,0.6,0.6,0.9c0.1,0.3,0.2,0.7,0.2,1.1c0,0.4-0.1,0.7-0.2,1.1c-0.1,0.3-0.4,0.6-0.6,0.9
		c-0.3,0.3-0.6,0.4-0.9,0.6c-0.3,0.1-0.7,0.2-1.1,0.2c-0.4,0-0.8-0.1-1.1-0.2c-0.3-0.1-0.6-0.3-0.9-0.6c-0.3-0.3-0.5-0.5-0.6-0.9
		c-0.1-0.3-0.2-0.7-0.2-1.1c0-0.4,0.1-0.7,0.2-1.1c0.1-0.3,0.3-0.6,0.6-0.9c0.3-0.3,0.6-0.4,0.9-0.6
		C333.5,259.4,333.8,259.3,334.2,259.3 M334.2,264.3c0.3,0,0.6-0.1,0.8-0.2c0.3-0.1,0.5-0.3,0.7-0.5c0.2-0.2,0.3-0.4,0.5-0.7
		c0.1-0.3,0.2-0.5,0.2-0.8c0-0.3-0.1-0.6-0.2-0.8c-0.1-0.3-0.3-0.5-0.5-0.7s-0.4-0.3-0.7-0.5c-0.3-0.1-0.5-0.2-0.8-0.2
		c-0.3,0-0.6,0.1-0.9,0.2c-0.3,0.1-0.5,0.3-0.7,0.5s-0.3,0.4-0.5,0.7c-0.1,0.3-0.2,0.5-0.2,0.8c0,0.3,0.1,0.6,0.2,0.8
		c0.1,0.3,0.3,0.5,0.5,0.7c0.2,0.2,0.4,0.4,0.7,0.5C333.7,264.2,333.9,264.3,334.2,264.3 M334.4,260.8c0.3,0,0.6,0.1,0.8,0.2
		c0.2,0.1,0.3,0.4,0.3,0.6c0,0.2-0.1,0.4-0.2,0.5c-0.1,0.1-0.3,0.2-0.6,0.3l0.8,1h-0.7l-0.8-1h-0.3v1h-0.6v-2.6H334.4z M333.8,261.3
		v0.7h0.6c0.1,0,0.3,0,0.3-0.1c0.1-0.1,0.1-0.1,0.1-0.3c0-0.1,0-0.2-0.1-0.3c-0.1-0.1-0.2-0.1-0.3-0.1H333.8z"/>
	<rect id="XMLID_5_" x="124.2" y="22.5" class="st1" width="92.1" height="165.5"/>
	<path id="XMLID_4_" class="st2" d="M130.1,105.2c0-33.6,15.7-63.5,40.2-82.7C152.4,8.4,129.8,0,105.2,0C47.1,0,0,47.1,0,105.2
		c0,58.1,47.1,105.2,105.2,105.2c24.5,0,47.1-8.4,65-22.5C145.8,168.7,130.1,138.8,130.1,105.2"/>
	<path id="XMLID_27_" class="st3" d="M340.5,105.2c0,58.1-47.1,105.2-105.2,105.2c-24.5,0-47.1-8.4-65-22.5
		c24.5-19.3,40.2-49.2,40.2-82.7s-15.7-63.5-40.2-82.7C188.2,8.4,210.7,0,235.3,0C293.4,0,340.5,47.1,340.5,105.2 M330.5,170.4v-3.4
		h1.4v-0.7h-3.5v0.7h1.4v3.4H330.5z M337.2,170.4v-4.1h-1.1l-1.2,2.8l-1.2-2.8h-1.1v4.1h0.7v-3.1l1.1,2.7h0.8l1.1-2.7v3.1H337.2z"/>
</g>
<g id="XMLID_25_">
	<path id="XMLID_56_" class="st4" d="M79.7,431.9c-1.3,0-2.7-0.2-3.9-0.7c-1.3-0.4-2.4-1.1-3.3-1.9l1-1.5c1,0.8,2,1.4,3,1.8
		s2.1,0.6,3.2,0.6c1.4,0,2.5-0.3,3.3-0.8s1.2-1.4,1.2-2.4c0-0.5-0.1-0.9-0.3-1.2c-0.2-0.3-0.5-0.6-1-0.8c-0.4-0.2-1-0.5-1.6-0.6
		c-0.6-0.2-1.4-0.4-2.3-0.6c-1-0.2-1.8-0.5-2.6-0.7s-1.3-0.5-1.8-0.8c-0.5-0.3-0.8-0.7-1.1-1.1c-0.2-0.5-0.3-1-0.3-1.7
		c0-0.9,0.2-1.6,0.5-2.3s0.8-1.2,1.4-1.6s1.3-0.8,2-1c0.8-0.2,1.6-0.3,2.5-0.3c1.3,0,2.5,0.2,3.6,0.6c1.1,0.4,1.9,1,2.6,1.7
		l-1.1,1.3c-0.6-0.7-1.4-1.2-2.3-1.5c-0.9-0.3-1.9-0.5-2.9-0.5c-0.6,0-1.1,0.1-1.7,0.2c-0.5,0.1-1,0.3-1.3,0.6
		c-0.4,0.3-0.7,0.6-0.9,1c-0.2,0.4-0.3,0.9-0.3,1.4c0,0.5,0.1,0.8,0.2,1.1c0.2,0.3,0.4,0.5,0.8,0.7c0.4,0.2,0.8,0.4,1.3,0.6
		s1.2,0.3,2,0.5c1.1,0.3,2.1,0.5,2.9,0.8c0.8,0.3,1.5,0.6,2.1,0.9c0.6,0.4,1,0.8,1.3,1.3c0.3,0.5,0.4,1.1,0.4,1.8
		c0,1.6-0.6,2.8-1.8,3.8C83.4,431.4,81.7,431.9,79.7,431.9z"/>
	<path id="XMLID_28_" class="st4" d="M97.5,431.9c-1.3,0-2.4-0.2-3.5-0.7c-1-0.5-2-1.1-2.7-1.9c-0.8-0.8-1.4-1.8-1.8-2.9
		c-0.4-1.1-0.6-2.2-0.6-3.5c0-1.2,0.2-2.4,0.6-3.4c0.4-1.1,1-2,1.8-2.8c0.8-0.8,1.7-1.4,2.7-1.9c1.1-0.5,2.2-0.7,3.4-0.7
		c1.3,0,2.4,0.2,3.5,0.7c1,0.5,1.9,1.1,2.7,1.9s1.3,1.8,1.8,2.8c0.4,1.1,0.6,2.2,0.6,3.4c0,0.2,0,0.4,0,0.5c0,0.2,0,0.3,0,0.4H91.2
		c0.1,0.9,0.3,1.8,0.6,2.6c0.4,0.8,0.8,1.5,1.4,2c0.6,0.6,1.2,1,2,1.3c0.7,0.3,1.5,0.5,2.4,0.5c0.6,0,1.1-0.1,1.7-0.2
		s1.1-0.4,1.5-0.6c0.5-0.3,0.9-0.6,1.3-1c0.4-0.4,0.7-0.8,0.9-1.3l1.9,0.5c-0.3,0.6-0.6,1.2-1.1,1.7c-0.5,0.5-1,1-1.7,1.4
		c-0.6,0.4-1.3,0.7-2.1,0.9C99.1,431.8,98.3,431.9,97.5,431.9z M103.8,422c-0.1-0.9-0.3-1.8-0.6-2.5s-0.8-1.4-1.4-2
		c-0.6-0.5-1.2-1-1.9-1.3c-0.7-0.3-1.5-0.5-2.4-0.5s-1.6,0.2-2.4,0.5c-0.7,0.3-1.4,0.7-2,1.3c-0.6,0.6-1,1.2-1.4,2
		c-0.3,0.8-0.5,1.6-0.6,2.5H103.8z"/>
	<path id="XMLID_31_" class="st4" d="M116.9,431.9c-1.3,0-2.4-0.2-3.5-0.7c-1-0.5-2-1.1-2.7-1.9c-0.8-0.8-1.4-1.8-1.8-2.9
		c-0.4-1.1-0.6-2.2-0.6-3.5c0-1.2,0.2-2.4,0.6-3.4c0.4-1.1,1-2,1.8-2.8c0.8-0.8,1.7-1.4,2.7-1.9c1.1-0.5,2.2-0.7,3.4-0.7
		c1.3,0,2.4,0.2,3.5,0.7c1,0.5,1.9,1.1,2.7,1.9s1.3,1.8,1.8,2.8c0.4,1.1,0.6,2.2,0.6,3.4c0,0.2,0,0.4,0,0.5c0,0.2,0,0.3,0,0.4h-14.7
		c0.1,0.9,0.3,1.8,0.6,2.6c0.4,0.8,0.8,1.5,1.4,2c0.6,0.6,1.2,1,2,1.3c0.7,0.3,1.5,0.5,2.4,0.5c0.6,0,1.1-0.1,1.7-0.2
		s1.1-0.4,1.5-0.6c0.5-0.3,0.9-0.6,1.3-1c0.4-0.4,0.7-0.8,0.9-1.3l1.9,0.5c-0.3,0.6-0.6,1.2-1.1,1.7c-0.5,0.5-1,1-1.7,1.4
		c-0.6,0.4-1.3,0.7-2.1,0.9C118.5,431.8,117.7,431.9,116.9,431.9z M123.2,422c-0.1-0.9-0.3-1.8-0.6-2.5s-0.8-1.4-1.4-2
		c-0.6-0.5-1.2-1-1.9-1.3c-0.7-0.3-1.5-0.5-2.4-0.5s-1.6,0.2-2.4,0.5c-0.7,0.3-1.4,0.7-2,1.3c-0.6,0.6-1,1.2-1.4,2
		c-0.3,0.8-0.5,1.6-0.6,2.5H123.2z"/>
	<path id="XMLID_34_" class="st4" d="M141.1,431.6l-6.3-8.8l-3.7,3.4v5.4h-2.2v-24.1h2.2v16.4l9.7-9.4h2.5l-7,7l7.3,10.1H141.1z"/>
	<path id="XMLID_36_" class="st4" d="M146.5,407.4h2.2v20.2c0,0.6,0.2,1.1,0.5,1.5c0.4,0.4,0.8,0.5,1.5,0.5c0.2,0,0.5,0,0.9-0.1
		c0.3-0.1,0.6-0.2,0.9-0.3l0.4,1.8c-0.4,0.2-0.9,0.3-1.5,0.4c-0.6,0.1-1.1,0.2-1.6,0.2c-1,0-1.8-0.3-2.4-0.9s-0.9-1.4-0.9-2.5V407.4
		z"/>
	<path id="XMLID_38_" class="st4" d="M162.7,431.9c-1.3,0-2.4-0.2-3.4-0.7s-1.9-1.1-2.7-1.9s-1.3-1.8-1.8-2.8
		c-0.4-1.1-0.6-2.2-0.6-3.4c0-1.2,0.2-2.4,0.6-3.4c0.4-1.1,1-2,1.8-2.8c0.8-0.8,1.7-1.5,2.7-1.9s2.2-0.7,3.4-0.7
		c1.2,0,2.4,0.2,3.4,0.7s1.9,1.1,2.7,1.9c0.8,0.8,1.4,1.8,1.8,2.8c0.4,1.1,0.6,2.2,0.6,3.4c0,1.2-0.2,2.3-0.6,3.4
		c-0.4,1.1-1,2-1.8,2.8s-1.7,1.5-2.7,1.9S163.9,431.9,162.7,431.9z M156.4,423c0,1,0.2,1.9,0.5,2.7c0.3,0.8,0.8,1.6,1.3,2.2
		c0.6,0.6,1.2,1.1,2,1.5s1.6,0.5,2.4,0.5c0.9,0,1.7-0.2,2.4-0.5c0.8-0.4,1.4-0.9,2-1.5c0.6-0.6,1-1.4,1.4-2.2
		c0.3-0.8,0.5-1.7,0.5-2.7c0-0.9-0.2-1.8-0.5-2.7c-0.3-0.8-0.8-1.6-1.4-2.2c-0.6-0.6-1.2-1.1-2-1.5c-0.8-0.4-1.6-0.5-2.4-0.5
		c-0.9,0-1.7,0.2-2.4,0.5c-0.7,0.4-1.4,0.9-2,1.5c-0.6,0.6-1,1.4-1.4,2.2S156.4,422.1,156.4,423z"/>
	<path id="XMLID_41_" class="st4" d="M181.9,431.8c-1.2,0-2.3-0.2-3.3-0.7c-1-0.5-1.8-1.2-2.5-2c-0.7-0.8-1.3-1.8-1.7-2.8
		c-0.4-1.1-0.6-2.1-0.6-3.3c0-1.2,0.2-2.3,0.6-3.4c0.4-1.1,0.9-2,1.6-2.9c0.7-0.8,1.5-1.5,2.5-1.9s2.1-0.7,3.3-0.7
		c1.5,0,2.8,0.4,3.8,1.1c1.1,0.7,2,1.7,2.8,2.8v-3.6h2v17.3c0,1.2-0.2,2.2-0.7,3.2c-0.5,0.9-1.1,1.7-1.8,2.3s-1.7,1.1-2.7,1.4
		c-1,0.3-2.1,0.5-3.3,0.5c-2,0-3.6-0.4-4.8-1.1c-1.2-0.7-2.2-1.7-2.9-2.8l1.4-1.1c0.7,1.1,1.6,1.9,2.7,2.4c1.1,0.5,2.3,0.8,3.6,0.8
		c0.8,0,1.6-0.1,2.4-0.3c0.7-0.2,1.4-0.6,2-1s1-1,1.3-1.7c0.3-0.7,0.5-1.5,0.5-2.4v-3.4c-0.7,1.1-1.6,2-2.7,2.6
		C184.3,431.5,183.1,431.8,181.9,431.8z M182.5,429.9c0.7,0,1.3-0.1,1.9-0.4s1.2-0.6,1.7-1c0.5-0.4,1-0.9,1.3-1.4
		c0.4-0.5,0.6-1,0.7-1.6v-5.3c-0.2-0.6-0.6-1.2-1-1.7s-0.9-1-1.4-1.4c-0.5-0.4-1.1-0.7-1.7-0.9c-0.6-0.2-1.2-0.3-1.8-0.3
		c-1,0-1.8,0.2-2.6,0.6s-1.4,0.9-1.9,1.6c-0.5,0.7-0.9,1.4-1.2,2.2s-0.4,1.7-0.4,2.5c0,0.9,0.2,1.8,0.5,2.6s0.8,1.6,1.4,2.2
		s1.3,1.1,2,1.5S181.6,429.9,182.5,429.9z"/>
	<path id="XMLID_44_" class="st4" d="M202.7,431.9c-1.3,0-2.4-0.2-3.4-0.7s-1.9-1.1-2.7-1.9s-1.3-1.8-1.8-2.8
		c-0.4-1.1-0.6-2.2-0.6-3.4c0-1.2,0.2-2.4,0.6-3.4c0.4-1.1,1-2,1.8-2.8c0.8-0.8,1.7-1.5,2.7-1.9s2.2-0.7,3.4-0.7
		c1.2,0,2.4,0.2,3.4,0.7s1.9,1.1,2.7,1.9c0.8,0.8,1.4,1.8,1.8,2.8c0.4,1.1,0.6,2.2,0.6,3.4c0,1.2-0.2,2.3-0.6,3.4
		c-0.4,1.1-1,2-1.8,2.8s-1.7,1.5-2.7,1.9S204,431.9,202.7,431.9z M196.5,423c0,1,0.2,1.9,0.5,2.7c0.3,0.8,0.8,1.6,1.3,2.2
		c0.6,0.6,1.2,1.1,2,1.5s1.6,0.5,2.4,0.5c0.9,0,1.7-0.2,2.4-0.5c0.8-0.4,1.4-0.9,2-1.5c0.6-0.6,1-1.4,1.4-2.2
		c0.3-0.8,0.5-1.7,0.5-2.7c0-0.9-0.2-1.8-0.5-2.7c-0.3-0.8-0.8-1.6-1.4-2.2c-0.6-0.6-1.2-1.1-2-1.5c-0.8-0.4-1.6-0.5-2.4-0.5
		c-0.9,0-1.7,0.2-2.4,0.5c-0.7,0.4-1.4,0.9-2,1.5c-0.6,0.6-1,1.4-1.4,2.2S196.5,422.1,196.5,423z"/>
	<path id="XMLID_47_" class="st4" d="M214.7,431.6v-3.2h1.9v3.2H214.7z"/>
	<path id="XMLID_49_" class="st4" d="M235.8,431.6h-2.2v-9.6c0-2-0.3-3.5-0.9-4.5s-1.5-1.4-2.8-1.4c-0.7,0-1.3,0.1-2,0.4
		s-1.3,0.6-1.8,1c-0.6,0.4-1.1,1-1.5,1.6s-0.8,1.3-1,2v10.5h-2.2v-17.2h2v3.9c0.7-1.3,1.7-2.3,3-3c1.3-0.8,2.7-1.2,4.3-1.2
		c0.9,0,1.8,0.2,2.4,0.5c0.7,0.4,1.2,0.8,1.6,1.5s0.7,1.4,0.9,2.3c0.2,0.9,0.3,1.9,0.3,3.1V431.6z"/>
	<path id="XMLID_51_" class="st4" d="M248,431.9c-1.3,0-2.4-0.2-3.5-0.7s-2-1.1-2.7-1.9c-0.8-0.8-1.4-1.8-1.8-2.9
		c-0.4-1.1-0.6-2.2-0.6-3.5c0-1.2,0.2-2.4,0.6-3.4c0.4-1.1,1-2,1.8-2.8s1.7-1.4,2.7-1.9c1.1-0.5,2.2-0.7,3.4-0.7
		c1.3,0,2.4,0.2,3.5,0.7c1,0.5,1.9,1.1,2.7,1.9c0.7,0.8,1.3,1.8,1.8,2.8c0.4,1.1,0.6,2.2,0.6,3.4c0,0.2,0,0.4,0,0.5
		c0,0.2,0,0.3,0,0.4h-14.7c0.1,0.9,0.3,1.8,0.6,2.6c0.4,0.8,0.8,1.5,1.4,2c0.6,0.6,1.2,1,2,1.3c0.7,0.3,1.5,0.5,2.4,0.5
		c0.5,0,1.1-0.1,1.7-0.2c0.5-0.2,1.1-0.4,1.5-0.6c0.5-0.3,0.9-0.6,1.3-1c0.4-0.4,0.7-0.8,0.9-1.3l1.9,0.5c-0.3,0.6-0.6,1.2-1.1,1.7
		c-0.5,0.5-1,1-1.7,1.4c-0.6,0.4-1.3,0.7-2.1,0.9S248.8,431.9,248,431.9z M254.3,422c-0.1-0.9-0.3-1.8-0.6-2.5s-0.8-1.4-1.4-2
		c-0.6-0.5-1.2-1-1.9-1.3c-0.7-0.3-1.5-0.5-2.4-0.5s-1.6,0.2-2.4,0.5c-0.7,0.3-1.4,0.7-2,1.3c-0.6,0.6-1,1.2-1.4,2
		c-0.3,0.8-0.5,1.6-0.6,2.5H254.3z"/>
	<path id="XMLID_54_" class="st4" d="M268.1,430.7c-0.1,0.1-0.3,0.2-0.6,0.3c-0.3,0.1-0.5,0.2-0.9,0.3c-0.3,0.1-0.7,0.2-1.1,0.3
		c-0.4,0.1-0.9,0.1-1.3,0.1c-0.5,0-0.9-0.1-1.4-0.2s-0.8-0.3-1.2-0.6c-0.3-0.3-0.6-0.6-0.8-1c-0.2-0.4-0.3-0.9-0.3-1.5v-12.3h-2.4
		v-1.8h2.4v-5.8h2.2v5.8h4v1.8h-4v11.7c0,0.6,0.3,1.1,0.7,1.4c0.4,0.3,0.9,0.4,1.4,0.4c0.6,0,1.2-0.1,1.7-0.3s0.8-0.4,0.9-0.4
		L268.1,430.7z"/>
</g>
</svg>
