<?xml version="1.0" encoding="utf-8"?>
<!-- Generator: Adobe Illustrator 21.1.0, SVG Export Plug-In . SVG Version: 6.00 Build 0)  -->
<svg version="1.1" id="Layer_1" width="64" height="64" xmlns="http://www.w3.org/2000/svg" xmlns:xlink="http://www.w3.org/1999/xlink" x="0px" y="0px"
	 viewBox="0 0 187.1 112.8" style="enable-background:new 0 0 187.1 112.8;" xml:space="preserve">
<style type="text/css">
	.st0{fill-rule:evenodd;clip-rule:evenodd;fill:#0097D9;}
	.st1{fill-rule:evenodd;clip-rule:evenodd;fill:#E40520;}
	.st2{fill-rule:evenodd;clip-rule:evenodd;fill:#FFFFFF;}
</style>
<g>
	<path class="st0" d="M93.5,98.2c11.3-10.3,18.4-25.2,18.4-41.8c0-16.6-7.1-31.5-18.4-41.8C83.6,5.5,70.4,0,56,0
		C25.1,0,0,25.2,0,56.4c0,31.1,25.1,56.4,56,56.4C70.4,112.8,83.6,107.2,93.5,98.2L93.5,98.2z"/>
	<path class="st1" d="M131.1,0c-14.5,0-27.6,5.5-37.6,14.6c-2,1.8-3.9,3.8-5.7,6h11.3c1.5,1.9,3,3.9,4.3,6H83.6
		c-1.2,1.9-2.3,3.9-3.2,6h26.3c0.9,1.9,1.7,3.9,2.4,6H78c-0.6,1.9-1.2,3.9-1.6,6h34.3c0.8,3.9,1.3,7.8,1.3,11.9
		c0,6.3-1,12.3-2.9,17.9H78c0.7,2,1.5,4,2.4,6h26.3c-1,2.1-2,4.1-3.2,6H83.6c1.3,2.1,2.7,4.1,4.3,6h11.3c-1.7,2.1-3.6,4.1-5.6,6
		c9.9,9.1,23.1,14.6,37.6,14.6c30.9,0,56-25.2,56-56.4C187.1,25.2,162,0,131.1,0L131.1,0z"/>
	<path class="st1" d="M179.6,87.8c0-1,0.8-1.8,1.8-1.8c1,0,1.8,0.8,1.8,1.8c0,1-0.8,1.8-1.8,1.8C180.4,89.6,179.6,88.8,179.6,87.8
		L179.6,87.8z M181.4,89.2c0.8,0,1.4-0.6,1.4-1.4c0-0.8-0.6-1.4-1.4-1.4c-0.8,0-1.4,0.6-1.4,1.4C180.1,88.6,180.7,89.2,181.4,89.2
		L181.4,89.2z M181.2,88.6h-0.4V87h0.7c0.1,0,0.3,0,0.4,0.1c0.1,0.1,0.2,0.2,0.2,0.4c0,0.2-0.1,0.3-0.3,0.4l0.3,0.7h-0.4l-0.2-0.6
		h-0.3V88.6v-0.9h0.2c0.1,0,0.2,0,0.2,0c0.1,0,0.1-0.1,0.1-0.2c0-0.1,0-0.1-0.1-0.2c-0.1,0-0.2,0-0.2,0h-0.2v0.4V88.6L181.2,88.6z"
		/>
	<path class="st2" d="M167.8,68.6c0-1,0.8-1.8,1.8-1.8c1,0,1.8,0.8,1.8,1.8c0,1-0.8,1.8-1.8,1.8C168.6,70.4,167.8,69.6,167.8,68.6
		L167.8,68.6z M169.6,70c0.8,0,1.4-0.6,1.4-1.4c0-0.8-0.6-1.4-1.4-1.4c-0.8,0-1.4,0.6-1.4,1.4C168.2,69.4,168.8,70,169.6,70
		L169.6,70z M169.4,69.4H169v-1.6h0.7c0.1,0,0.3,0,0.4,0.1c0.1,0.1,0.2,0.2,0.2,0.4c0,0.2-0.1,0.3-0.3,0.4l0.3,0.7h-0.4l-0.2-0.6
		h-0.3V69.4v-0.9h0.2c0.1,0,0.2,0,0.2,0c0.1,0,0.1-0.1,0.1-0.2c0-0.1,0-0.1-0.1-0.2c-0.1,0-0.2,0-0.2,0h-0.2v0.4V69.4L169.4,69.4z"
		/>
	<polygon class="st2" points="49,70.4 42,70.4 46.2,48.5 36.6,70.4 30.3,70.4 29.1,48.6 25,70.4 18.6,70.4 24,41.8 34.9,41.8 
		35.5,59.5 43.1,41.8 54.5,41.8 49,70.4 	"/>
	<path class="st2" d="M126.8,70.1c-1.9,0.5-3.4,0.8-5,0.8c-3.6,0-5.5-1.8-5.5-5.1c0-0.7,0.1-1.3,0.2-2.1l0.4-2.3l0.3-1.8l3.2-17.8
		h6.9l-1,5.3h3.6l-1,5.7h-3.6l-1.8,9.7c-0.1,0.4-0.1,0.7-0.1,1c0,1.2,0.7,1.7,2.4,1.7c0.8,0,1.4-0.1,1.9-0.2L126.8,70.1L126.8,70.1z
		"/>
	<path class="st2" d="M147.2,47.4c-0.6-0.2-0.7-0.2-0.8-0.3c-0.4-0.1-0.6-0.1-0.6-0.1c-0.2,0-0.4-0.1-0.7-0.1c-2.3,0-3.9,1-6.1,3.8
		l0.6-3.5h-6.3l-4.2,23.3h7c2.5-14.2,3.6-16.7,6.9-16.7c0.2,0,0.5,0,0.9,0.1l0.8,0.2L147.2,47.4L147.2,47.4z"/>
	<path class="st2" d="M99.2,54.5c0,2.9,1.6,5,5.4,6.5c2.9,1.2,3.3,1.5,3.3,2.6c0,1.4-1.3,2.1-4,2.1c-2.1,0-4.1-0.3-6.3-0.9l-1,5.4
		l0.3,0.1l1.3,0.2c0.4,0.1,1,0.1,1.8,0.2c1.7,0.1,3,0.2,3.9,0.2c7.4,0,10.9-2.5,10.9-7.8c0-3.2-1.4-5.1-5-6.5
		c-3-1.2-3.3-1.4-3.3-2.5c0-1.3,1.2-1.9,3.4-1.9c1.4,0,3.3,0.1,5.1,0.3l1-5.4c-1.8-0.3-4.6-0.5-6.2-0.5
		C101.9,46.7,99.2,50.2,99.2,54.5L99.2,54.5z"/>
	<path class="st2" d="M71.6,70.4h-5.8L66,68c-1.8,1.9-4.1,2.8-7.3,2.8c-3.8,0-6.4-2.6-6.4-6.3c0-5.7,4.5-9,12.2-9
		c0.8,0,1.8,0.1,2.8,0.2c0.2-0.8,0.3-1.1,0.3-1.5c0-1.5-1.2-2.1-4.5-2.1c-2,0-4.2,0.3-5.8,0.6l-1,0.2l-0.6,0.2l1-5.2
		c3.5-0.9,5.8-1.2,8.3-1.2c6,0,9.2,2.4,9.2,6.8c0,1.1-0.1,2-0.6,4.6l-1.5,8.2L72,67.8L71.8,69l-0.1,0.8L71.6,70.4L71.6,70.4z
		 M66.5,60.1C65.8,60,65.5,60,65,60C61,60,59,61.2,59,63.5c0,1.4,1,2.4,2.5,2.4C64.4,65.9,66.4,63.5,66.5,60.1L66.5,60.1z"/>
	<path class="st2" d="M94.5,69.9c-2.4,0.6-4.7,0.9-7.1,0.9c-7.8,0-11.8-3.6-11.8-10.4c0-8,5.2-13.9,12.2-13.9c5.7,0,9.4,3.3,9.4,8.5
		c0,1.7-0.2,3.4-0.9,5.7H82.4c-0.1,0.4-0.1,0.5-0.1,0.7c0,2.7,2.1,4.1,6.1,4.1c2.5,0,4.7-0.5,7.2-1.5L94.5,69.9L94.5,69.9z
		 M90.8,56.1c0-0.5,0.1-0.9,0.1-1.2c0-1.9-1.2-3-3.3-3c-2.2,0-3.8,1.5-4.4,4.2L90.8,56.1L90.8,56.1z"/>
	<path class="st2" d="M168.8,59.9c-1,7.7-6.4,11.2-13.5,11.2c-7.9,0-11.1-4.8-11.1-10.7c0-8.2,5.4-13.8,13.7-13.8
		c7.2,0,11.1,4.6,11.1,10.5C169,58.4,169,58.5,168.8,59.9L168.8,59.9z M161.7,56.9c0-2.4-1-4.7-3.8-4.7c-3.6,0-5.8,4.2-5.8,8
		c0,3.2,1.5,5.3,4,5.2c1.5,0,4.7-2.1,5.4-5.7C161.6,58.8,161.7,57.9,161.7,56.9L161.7,56.9z"/>
</g>
</svg>
