<?xml version="1.0" encoding="utf-8"?>
<!-- Generator: Adobe Illustrator 21.1.0, SVG Export Plug-In . SVG Version: 6.00 Build 0)  -->
<svg version="1.1" id="Layer_1" xmlns="http://www.w3.org/2000/svg" xmlns:xlink="http://www.w3.org/1999/xlink" x="0px" y="0px"
	 viewBox="0 0 64 15.6" width="64" height="64" style="enable-background:new 0 0 64 15.6;" xml:space="preserve">
<style type="text/css">
	.st0{fill:#253B80;}
	.st1{fill:#179BD7;}
	.st2{fill:#222D65;}
</style>
<title>payment_paypal</title>
<g id="_Group_">
	<g id="_Group_6">
		<g id="_Group_7">
			<g id="_Group_8">
				<g id="_Group_9">
					<path id="_Compound_Path_" class="st0" d="M24.3,6.8c-0.2,1.3-1.2,1.3-2.1,1.3h-0.5l0.4-2.4c0-0.1,0.1-0.3,0.3-0.2h0.2
						c0.6,0,1.2,0,1.6,0.4C24.3,6,24.4,6.4,24.3,6.8z M23.9,3.5h-3.5c-0.2,0-0.4,0.2-0.5,0.4L18.5,13c0,0.2,0.1,0.3,0.2,0.3
						c0,0,0,0,0.1,0h1.7c0.2,0,0.4-0.2,0.5-0.4l0.4-2.4c0-0.2,0.2-0.4,0.5-0.4h1.1c2.3,0,3.7-1.1,4-3.4c0.2-1,0-1.7-0.5-2.3
						C26,3.8,25.1,3.5,23.9,3.5z"/>
					<path id="_Compound_Path_2" class="st0" d="M32.2,10.1c-0.1,0.9-1,1.6-1.9,1.6c-0.5,0-0.9-0.2-1.1-0.5
						c-0.3-0.3-0.4-0.8-0.3-1.2c0.1-0.9,0.9-1.6,1.9-1.6c0.4,0,0.8,0.1,1.1,0.5C32.1,9.2,32.2,9.6,32.2,10.1z M34.5,6.8h-1.7
						c-0.1,0-0.3,0.1-0.3,0.2l-0.1,0.5l-0.1-0.2c-0.4-0.5-1.2-0.7-2-0.7c-1.9,0-3.5,1.4-3.8,3.4c-0.2,1,0.1,1.9,0.6,2.6
						c0.5,0.6,1.3,0.9,2.1,0.9c0.9,0,1.7-0.3,2.3-1L31.6,13c0,0.2,0.1,0.3,0.2,0.3c0,0,0,0,0.1,0h1.5c0.2,0,0.4-0.2,0.5-0.4l0.9-5.8
						C34.8,7,34.7,6.8,34.5,6.8C34.6,6.8,34.5,6.8,34.5,6.8L34.5,6.8z"/>
					<path id="_Path_" class="st0" d="M43.5,6.8h-1.7c-0.2,0-0.3,0.1-0.4,0.2l-2.3,3.5l-1-3.3c-0.1-0.2-0.3-0.4-0.5-0.4H36
						c-0.2,0-0.3,0.1-0.3,0.3c0,0,0,0.1,0,0.1l1.9,5.5l-1.8,2.5c-0.1,0.1-0.1,0.3,0.1,0.4c0.1,0,0.1,0.1,0.2,0.1h1.7
						c0.2,0,0.3-0.1,0.4-0.2l5.7-8.2c0.1-0.1,0.1-0.3-0.1-0.4C43.7,6.8,43.6,6.8,43.5,6.8z"/>
					<path id="_Compound_Path_3" class="st1" d="M49.6,6.8c-0.2,1.3-1.2,1.3-2.1,1.3H47l0.4-2.4c0-0.1,0.1-0.3,0.3-0.2h0.2
						c0.6,0,1.2,0,1.6,0.4C49.6,6,49.7,6.4,49.6,6.8z M49.2,3.5h-3.5c-0.2,0-0.4,0.2-0.5,0.4L43.7,13c0,0.2,0.1,0.3,0.2,0.3
						c0,0,0,0,0.1,0h1.8c0.2,0,0.3-0.1,0.3-0.3l0.4-2.6c0-0.2,0.2-0.4,0.5-0.4h1.1c2.3,0,3.7-1.1,4-3.4c0.2-1,0-1.7-0.5-2.3
						C51.3,3.8,50.4,3.5,49.2,3.5z"/>
					<path id="_Compound_Path_4" class="st1" d="M57.4,10.1c-0.1,0.9-1,1.6-1.9,1.6c-0.5,0-0.9-0.2-1.1-0.5
						c-0.3-0.3-0.4-0.8-0.3-1.2C54.2,9.1,55,8.4,56,8.4c0.4,0,0.8,0.1,1.1,0.5C57.4,9.2,57.5,9.6,57.4,10.1z M59.8,6.8h-1.7
						c-0.1,0-0.3,0.1-0.3,0.2l-0.1,0.5l-0.1-0.2c-0.4-0.5-1.2-0.7-2-0.7c-1.9,0-3.5,1.4-3.8,3.4c-0.2,1,0.1,1.9,0.6,2.6
						c0.5,0.6,1.3,0.9,2.1,0.9c0.9,0,1.7-0.3,2.3-1L56.8,13c0,0.2,0.1,0.3,0.2,0.3c0,0,0,0,0.1,0h1.5c0.2,0,0.4-0.2,0.5-0.4l0.9-5.8
						C60.1,7,60,6.8,59.8,6.8C59.8,6.8,59.8,6.8,59.8,6.8L59.8,6.8z"/>
					<path id="_Path_2" class="st1" d="M61.8,3.7L60.3,13c0,0.2,0.1,0.3,0.2,0.3c0,0,0,0,0.1,0h1.5c0.2,0,0.4-0.2,0.5-0.4L64,3.8
						c0-0.2-0.1-0.3-0.2-0.3c0,0,0,0-0.1,0h-1.6C61.9,3.5,61.8,3.6,61.8,3.7z"/>
					<path id="_Path_3" class="st0" d="M3.8,15.1L4,13.4l-0.6,0H0.5l2-12.7c0,0,0-0.1,0.1-0.1c0,0,0.1,0,0.1,0h4.9
						c1.6,0,2.7,0.3,3.3,1c0.3,0.3,0.4,0.6,0.5,1c0.1,0.5,0.1,0.9,0,1.4v0v0.3l0.3,0.2c0.2,0.1,0.4,0.2,0.6,0.4
						c0.2,0.3,0.4,0.6,0.4,1c0.1,0.5,0,1-0.1,1.5C12.5,7.9,12.3,8.4,12,9c-0.2,0.4-0.6,0.8-0.9,1c-0.4,0.3-0.8,0.5-1.3,0.6
						c-0.5,0.1-1.1,0.2-1.6,0.2H7.8c-0.6,0-1,0.4-1.1,1l0,0.2l-0.5,3l0,0.1c0,0,0,0,0,0.1c0,0,0,0,0,0L3.8,15.1z"/>
					<path id="_Path_4" class="st1" d="M11.9,4c0,0.1,0,0.2,0,0.3c-0.6,3.3-2.8,4.4-5.6,4.4H4.8c-0.3,0-0.6,0.2-0.7,0.6l-0.7,4.6
						l-0.2,1.3c0,0.2,0.1,0.4,0.3,0.4c0,0,0,0,0.1,0h2.5c0.3,0,0.6-0.2,0.6-0.5l0-0.1l0.5-3l0-0.2c0-0.3,0.3-0.5,0.6-0.5h0.4
						c2.4,0,4.4-1,4.9-3.9c0.2-1.2,0.1-2.2-0.5-2.9C12.4,4.3,12.2,4.1,11.9,4z"/>
					<path id="_Path_5" class="st2" d="M11.3,3.7c-0.1,0-0.2-0.1-0.3-0.1c-0.1,0-0.2,0-0.3-0.1c-0.4-0.1-0.8-0.1-1.3-0.1H5.6
						C5.3,3.5,5,3.7,5,4L4.2,9.1l0,0.1c0.1-0.3,0.3-0.6,0.7-0.6h1.4c2.8,0,5-1.1,5.6-4.4c0-0.1,0-0.2,0-0.3
						c-0.2-0.1-0.3-0.2-0.5-0.2L11.3,3.7z"/>
					<path id="_Path_6" class="st0" d="M5,4c0-0.3,0.3-0.5,0.6-0.5h3.8c0.4,0,0.8,0,1.3,0.1c0.1,0,0.2,0,0.3,0.1
						c0.1,0,0.2,0,0.3,0.1l0.1,0c0.2,0.1,0.4,0.1,0.5,0.2c0.2-1.2,0-2-0.7-2.8C10.6,0.4,9.2,0,7.6,0H2.7C2.4,0,2.1,0.2,2,0.6L0,13.4
						c0,0.2,0.1,0.4,0.3,0.5c0,0,0,0,0.1,0h3l0.8-4.8L5,4z"/>
				</g>
			</g>
		</g>
	</g>
</g>
</svg>
