<?xml version="1.0" encoding="utf-8"?>
<!-- Generator: Adobe Illustrator 21.1.0, SVG Export Plug-In . SVG Version: 6.00 Build 0)  -->
<svg version="1.1" id="Layer_1" xmlns="http://www.w3.org/2000/svg" xmlns:xlink="http://www.w3.org/1999/xlink" x="0px" y="0px"
	 viewBox="0 0 208.2 181.6" width="64" height="64" style="enable-background:new 0 0 208.2 181.6;" xml:space="preserve">
<style type="text/css">
	.st0{fill:#020203;}
	.st1{fill:#CD0667;}
	.st2{fill:#FFFFFF;}
</style>
<g>
	<rect x="23.1" y="102.2" class="st0" width="33.4" height="55.4"/>
	<ellipse class="st0" cx="40.1" cy="74.5" rx="18.9" ry="18.9"/>
	<g>
		<g>
			<path class="st0" d="M119.7,0H0v181.6h119.7v0c26.2-0.4,46.9-6.9,61.6-19.4c17.9-15.2,26.9-39.2,26.9-71.4
				c0-15.4-2.4-29.2-7.1-41c-4.5-11.3-11.1-20.9-19.8-28.6C166.2,7.7,144.9,0.5,119.7,0C119.7,0,119.7,0,119.7,0z M117.5,12.1
				c23.2,0,42.5,6.3,55.9,18.2c15.1,13.4,22.8,33.8,22.8,60.5c0,53-25.8,78.7-78.7,78.7c-4.1,0-94.8,0-105.4,0
				c0-10.8,0-146.6,0-157.4C22.6,12.1,113.3,12.1,117.5,12.1z"/>
		</g>
	</g>
	<g>
		<g>
			<path class="st1" d="M114.2,157.7H71.8V26.7h42.3h-1.7c35.3,0,72.9,13.9,72.9,65.6c0,54.7-37.6,65.3-72.9,65.3H114.2z"/>
		</g>
	</g>
	<g>
		<g>
			<path class="st2" d="M64.5,60.5h11.6c2.6,0,4.6,0.2,6,0.6c1.8,0.5,3.4,1.5,4.7,2.9c1.3,1.4,2.3,3.1,3,5.1c0.7,2,1,4.5,1,7.4
				c0,2.6-0.3,4.8-1,6.7c-0.8,2.3-1.9,4.1-3.4,5.6c-1.1,1.1-2.6,1.9-4.5,2.5c-1.4,0.4-3.3,0.7-5.6,0.7h-12V60.5z M70.9,65.9v20.8
				h4.8c1.8,0,3.1-0.1,3.9-0.3c1-0.3,1.9-0.7,2.6-1.3c0.7-0.6,1.2-1.6,1.7-3c0.4-1.4,0.6-3.3,0.6-5.8c0-2.4-0.2-4.3-0.6-5.6
				c-0.4-1.3-1-2.3-1.8-3c-0.8-0.7-1.8-1.2-3-1.5c-0.9-0.2-2.6-0.3-5.2-0.3H70.9z"/>
			<path class="st2" d="M63.7,59.7v33.2h12.8c2.4,0,4.4-0.2,5.9-0.7c2-0.6,3.6-1.6,4.8-2.7c1.6-1.5,2.8-3.5,3.6-5.9c0.7-2,1-4.3,1-7
				c0-3-0.4-5.6-1.1-7.7c-0.7-2.1-1.8-3.9-3.2-5.4c-1.4-1.5-3.1-2.5-5.1-3.1c-1.5-0.4-3.5-0.6-6.2-0.6H63.7z M76.2,61.4
				c2.5,0,4.5,0.2,5.8,0.6c1.7,0.5,3.2,1.4,4.4,2.7c1.2,1.3,2.2,2.9,2.8,4.8c0.7,1.9,1,4.3,1,7.2c0,2.5-0.3,4.6-0.9,6.4
				c-0.7,2.2-1.8,3.9-3.2,5.2c-1,1-2.4,1.8-4.1,2.3c-1.3,0.4-3.1,0.6-5.4,0.6c0,0-9.6,0-11.1,0c0-1.6,0-28.2,0-29.8
				C66.9,61.4,76.2,61.4,76.2,61.4z"/>
			<path class="st2" d="M70,65v22.5h5.6c1.9,0,3.2-0.1,4.1-0.3c1.2-0.3,2.2-0.8,2.9-1.5c0.8-0.7,1.4-1.8,1.9-3.4
				c0.5-1.5,0.7-3.5,0.7-6c0-2.5-0.2-4.5-0.7-5.9c-0.5-1.4-1.2-2.6-2-3.4c-0.9-0.8-2-1.4-3.4-1.7c-1-0.2-2.7-0.3-5.4-0.3H70z
				 M73.8,66.7c3.1,0,4.5,0.2,5,0.3c1,0.2,1.9,0.7,2.5,1.3c0.7,0.6,1.2,1.5,1.6,2.7c0.4,1.2,0.6,3,0.6,5.3c0,2.3-0.2,4.2-0.6,5.5
				c-0.4,1.2-0.9,2.1-1.4,2.6c-0.6,0.5-1.3,0.9-2.2,1.1c-0.7,0.2-1.9,0.3-3.6,0.3c0,0-2.7,0-3.9,0c0-1.5,0-17.6,0-19.1
				C72.6,66.7,73.8,66.7,73.8,66.7z"/>
		</g>
		<g>
			<path class="st2" d="M98.1,92V60.5h23.3v5.3h-17v7h15.8v5.3h-15.8v8.5h17.6V92H98.1z"/>
			<path class="st2" d="M97.3,59.7v33.2h25.6v-7.1c0,0-16,0-17.6,0c0-1.2,0-5.5,0-6.8c1.5,0,15.8,0,15.8,0V72c0,0-14.2,0-15.8,0
				c0-1.1,0-4.1,0-5.3c1.6,0,17,0,17,0v-7.1H97.3z M120.6,61.4c0,1,0,2.6,0,3.6c-1.6,0-17,0-17,0v8.7c0,0,14.2,0,15.8,0
				c0,1,0,2.6,0,3.6c-1.5,0-15.8,0-15.8,0v10.2c0,0,16,0,17.6,0c0,1,0,2.6,0,3.6c-1.5,0-20.7,0-22.2,0c0-1.6,0-28.2,0-29.8
				C100.5,61.4,119.1,61.4,120.6,61.4z"/>
		</g>
		<g>
			<path class="st2" d="M157.6,92h-6.9l-2.7-7.1h-12.6l-2.6,7.1H126l12.2-31.5h6.8L157.6,92z M145.9,79.6l-4.3-11.7l-4.3,11.7H145.9
				z"/>
			<path class="st2" d="M137.7,59.7l-12.9,33.2h8.6c0,0,2.3-6.2,2.6-7.1c1,0,10.4,0,11.4,0c0.4,0.9,2.7,7.1,2.7,7.1h8.8l-13.3-33.2
				H137.7z M144.4,61.4c0.4,1,11.1,27.6,11.9,29.8c-1.5,0-4.3,0-5.1,0c-0.4-0.9-2.7-7.1-2.7-7.1h-13.8c0,0-2.3,6.2-2.6,7.1
				c-0.8,0-3.4,0-4.9,0c0.8-2.1,11.2-28.8,11.6-29.8C139.7,61.4,143.6,61.4,144.4,61.4z"/>
			<path class="st2" d="M136.1,80.4h11.1l-5.6-15L136.1,80.4z M141.6,70.4c0.9,2.5,2.5,6.8,3.1,8.3c-1.5,0-4.6,0-6.1,0
				C139.1,77.2,140.7,72.9,141.6,70.4z"/>
		</g>
		<g>
			<path class="st2" d="M162.9,92V60.8h6.4v25.9h15.8V92H162.9z"/>
			<path class="st2" d="M162.1,59.9v33H186v-7.1c0,0-14.3,0-15.8,0c0-1.6,0-25.9,0-25.9H162.1z M168.4,61.7c0,1.6,0,25.9,0,25.9
				s14.3,0,15.8,0c0,1,0,2.6,0,3.6c-1.5,0-18.9,0-20.5,0c0-1.6,0-27.9,0-29.5C164.9,61.7,167.3,61.7,168.4,61.7z"/>
		</g>
	</g>
</g>
</svg>
