<?xml version="1.0" encoding="utf-8"?>
<!-- Generator: Adobe Illustrator 22.0.1, SVG Export Plug-In . SVG Version: 6.00 Build 0)  -->
<svg version="1.1" id="Layer_1" xmlns="http://www.w3.org/2000/svg" xmlns:xlink="http://www.w3.org/1999/xlink" x="0px" y="0px"
	 viewBox="0 0 14.167 25" style="enable-background:new 0 0 14.167 25;" xml:space="preserve">
<style type="text/css">
	.st0{fill:#010101;}
</style>
<symbol  id="a" viewBox="-7.085 -12.5 14.171 25">
	<path class="st0" d="M5.246-12.5H-5.25c-1.013,0.002-1.833,0.822-1.835,1.835v21.329c0.001,1.013,0.822,1.834,1.835,1.836h10.5
		c1.013-0.001,1.834-0.822,1.836-1.835v-21.33C7.084-11.68,6.26-12.501,5.246-12.5z M-6.252-9.167h12.5V6.667h-12.5V-9.167z
		 M-5.252-11.667h10.5c0.552,0,1,0.448,1,1V-10h-12.5v-0.665c-0.001-0.552,0.446-1.001,0.998-1.002c0.001,0,0.003,0,0.004,0H-5.252z
		 M5.248,11.667H-5.25c-0.552,0-1-0.448-1-1V7.5h12.5v3.165c0.001,0.552-0.446,1.001-0.998,1.002c-0.002,0-0.004,0-0.006,0H5.248z"
		/>
	<path class="st0" d="M-0.002,7.917c-0.921,0-1.667,0.746-1.667,1.667s0.746,1.667,1.667,1.667s1.667-0.746,1.667-1.667
		c0,0,0-0.001,0-0.001C1.664,8.663,0.918,7.917-0.002,7.917z M-0.002,10.417c-0.461,0-0.834-0.373-0.834-0.834
		c0-0.461,0.373-0.834,0.834-0.834c0.461,0,0.834,0.373,0.834,0.834l0,0C0.831,10.043,0.458,10.416-0.002,10.417z"/>
</symbol>
<title>service-mobile-payment</title>
<use xlink:href="#a"  width="14.171" height="25" id="XMLID_1_" x="-7.085" y="-12.5" transform="matrix(0.9997 0 0 0.9997 7.0835 12.5)" style="overflow:visible;"/>
</svg>
