<?xml version="1.0" encoding="utf-8"?>
<!-- Generator: Adobe Illustrator 22.0.1, SVG Export Plug-In . SVG Version: 6.00 Build 0)  -->
<svg version="1.1" id="Layer_1" xmlns="http://www.w3.org/2000/svg" xmlns:xlink="http://www.w3.org/1999/xlink" x="0px" y="0px"
	 viewBox="0 0 21.388 21.387" style="enable-background:new 0 0 21.388 21.387;" xml:space="preserve">
<style type="text/css">
	.st0{fill:#666666;}
</style>
<g id="Mask_Group_191" transform="translate(-22596.822 -23878.059)">
	<g id="ticket" transform="translate(1.806 1045)">
		<path id="Path_4353" class="st0" d="M22613.959,22838.668l-0.234,0.232c-0.354,0.404-0.881,0.613-1.416,0.562
			c-1.232,0.043-2.266-0.922-2.309-2.154c-0.002-0.051-0.002-0.1,0-0.15c-0.051-0.535,0.158-1.061,0.562-1.416l0.232-0.232
			l-2.445-2.451l-13.334,13.334l2.447,2.445l0.232-0.232c0.355-0.406,0.885-0.615,1.422-0.564c1.232-0.041,2.266,0.924,2.309,2.156
			c0.002,0.051,0.002,0.102,0,0.154c0.051,0.533-0.16,1.061-0.564,1.414l-0.232,0.234l2.447,2.445l13.328-13.332
			L22613.959,22838.668z M22601.549,22851.992c0.387-0.457,0.578-1.045,0.533-1.641c0.039-1.602-1.227-2.932-2.828-2.971
			c-0.045,0-0.092,0-0.137,0c-0.596-0.043-1.186,0.148-1.641,0.533l-1.527-1.521l7.781-7.781l1.086,1.086l0.467-0.467l-1.086-1.086
			l4.152-4.152l1.523,1.521c-0.387,0.457-0.578,1.045-0.533,1.641c-0.039,1.602,1.229,2.932,2.828,2.969
			c0.047,0.002,0.094,0.002,0.141,0c0.596,0.045,1.184-0.146,1.641-0.533l1.521,1.523l-4.154,4.152l-1.086-1.086l-0.467,0.467
			l1.086,1.086l-7.779,7.781L22601.549,22851.992z"/>
		<path id="Path_4354" class="st0" d="M22606.797,22841.678l-1.32-1.32l0.467-0.467l1.32,1.32L22606.797,22841.678z"/>
		<path id="Path_4355" class="st0" d="M22609.105,22843.986l-1.318-1.32l0.465-0.465l1.32,1.32L22609.105,22843.986z"/>
	</g>
</g>
</svg>
