<?xml version="1.0" encoding="utf-8"?>
<!-- Generator: Adobe Illustrator 22.0.1, SVG Export Plug-In . SVG Version: 6.00 Build 0)  -->
<svg version="1.1" id="Layer_1" xmlns="http://www.w3.org/2000/svg" xmlns:xlink="http://www.w3.org/1999/xlink" x="0px" y="0px"
	 viewBox="0 0 63.999 50.433" style="enable-background:new 0 0 63.999 50.433;" xml:space="preserve">
<style type="text/css">
	.st0{fill:#666666;}
</style>
<g>
	<path class="st0" d="M59.938,17.186c-2.688-2.906-6.315-4.628-10.251-4.875C46.275,5.043,39.211,0.344,31.165,0.017
		C19.537-0.444,9.633,8.509,8.911,20.088c-2.092,0.485-3.994,1.536-5.522,3.058C-1.114,27.628-1.132,34.94,3.35,39.444
		c2.171,2.183,5.063,3.389,8.142,3.396c0.01,0,0.019,0,0.029,0c2.746,0,5.339-0.965,7.415-2.718l-0.913-0.787
		c-1.834,1.492-4.106,2.305-6.501,2.305c-0.009,0-0.018,0-0.026,0c-2.758-0.007-5.349-1.087-7.294-3.042
		c-4.016-4.035-4-10.586,0.035-14.602c1.47-1.463,3.324-2.44,5.363-2.826l0.468-0.089l0.02-0.477
		c0.441-10.866,9.421-19.406,20.2-19.406c0.275,0,0.553,0.006,0.83,0.017c7.711,0.313,14.467,4.881,17.63,11.921l0.152,0.339
		l0.371,0.015c3.758,0.147,7.233,1.749,9.786,4.509c2.554,2.761,3.879,6.352,3.731,10.109c-0.146,3.758-1.748,7.233-4.51,9.786
		c-2.76,2.554-6.344,3.894-10.108,3.731c-2.211-0.086-4.349-0.706-6.27-1.773L41.104,40.8c2.138,1.231,4.539,1.93,7.019,2.026
		c4.095,0.158,7.974-1.279,10.971-4.049c2.996-2.771,4.734-6.543,4.894-10.621C64.147,24.079,62.708,20.182,59.938,17.186z"/>
	<polygon class="st0" points="21.676,30.107 22.524,30.955 29.526,23.953 29.526,50.433 30.725,50.433 30.725,23.787 37.894,30.955 
		38.741,30.107 30.208,21.574 	"/>
</g>
</svg>
