<svg xmlns="http://www.w3.org/2000/svg" viewBox="0 0 14 15.045"><path d="M3.526 8.915a.931.931 0 1 0 0-1.862.931.931 0 0 0 0 1.862zm0-3.413a.931.931 0 1 0 0-1.862.931.931 0 0 0 0 1.862z"/><path d="M11.252 1.045V.634a.634.634 0 0 0-1.267 0v.411H7.603V.634a.634.634 0 0 0-1.267 0v.411H3.582V.634a.634.634 0 0 0-1.267 0v.411H0v14h14v-14h-2.748zm1.748 13H1v-12h12v12z"/><path d="M3.526 12.329a.931.931 0 1 0 0-1.862.931.931 0 0 0 0 1.862zM6.94 8.915a.931.931 0 1 0 0-1.862.931.931 0 0 0 0 1.862zm0-3.413a.931.931 0 1 0 0-1.862.931.931 0 0 0 0 1.862zm0 6.827a.931.931 0 1 0 0-1.862.931.931 0 0 0 0 1.862zm3.414-3.414a.931.931 0 1 0 0-1.862.931.931 0 0 0 0 1.862zm0-3.413a.931.931 0 1 0 0-1.862.931.931 0 0 0 0 1.862z"/></svg>