<?xml version="1.0" encoding="utf-8"?>
<!-- Generator: Adobe Illustrator 22.0.0, SVG Export Plug-In . SVG Version: 6.00 Build 0)  -->
<svg version="1.1" id="Layer_1" xmlns="http://www.w3.org/2000/svg" xmlns:xlink="http://www.w3.org/1999/xlink" x="0px" y="0px"
	 viewBox="0 0 22 22" enable-background="new 0 0 22 22" xml:space="preserve">
<g>
	<path fill="none" d="M11,1.2c-5.404,0-9.8,4.396-9.8,9.8c0,5.404,4.396,9.801,9.8,9.801c5.404,0,9.801-4.396,9.801-9.801
		C20.801,5.596,16.404,1.2,11,1.2z M16.303,15.313l-0.99,0.99L11,11.991l-4.312,4.312l-0.99-0.99L10.01,11L5.698,6.688l0.99-0.99
		L11,10.01l4.312-4.312l0.99,0.99L11.99,11L16.303,15.313z"/>
	<g>
		<polygon points="15.312,5.698 11,10.01 6.688,5.698 5.698,6.688 10.01,11 5.698,15.313 6.688,16.303 11,11.991 15.312,16.303 
			16.303,15.313 11.99,11 16.303,6.688 		"/>
		<path d="M11,0C4.935,0,0,4.935,0,11s4.935,11,11,11s11-4.935,11-11S17.065,0,11,0z M11,20.801c-5.404,0-9.8-4.396-9.8-9.801
			c0-5.404,4.396-9.8,9.8-9.8c5.404,0,9.801,4.396,9.801,9.8C20.801,16.404,16.404,20.801,11,20.801z"/>
	</g>
</g>
</svg>
