<svg xmlns="http://www.w3.org/2000/svg" viewBox="0 0 23.99 24.856"><path d="M23.73 2.3L21.88.456a1.472 1.472 0 0 0-.794-.435A1.29 1.29 0 0 0 20.89 0a.737.737 0 0 0-.532.218l-1.84 1.849L6.894 13.655a.803.803 0 0 0-.109.306l-.753 3.3a.634.634 0 0 0-.032.183.574.574 0 0 0 .185.4.523.523 0 0 0 .37.153.76.76 0 0 0 .165-.021l3.234-.85a.773.773 0 0 0 .25-.173L21.8 5.344 23.644 3.5a.99.99 0 0 0 .347-.664.741.741 0 0 0-.261-.536zM9.46 15.975l-2.122.532.544-2.12.109-.129 1.6 1.6-.131.117zm.982-.958l-1.6-1.611L18.911 3.328l1.611 1.59-10.08 10.099zM21.369 4.089l-1.611-1.6 1.229-1.229 1.6 1.6-1.218 1.229z"/><path d="M21.948 12.824c-.013-.14-.036-.279-.055-.419-.027-.205-.055-.41-.094-.612-.028-.145-.062-.289-.096-.433a11.12 11.12 0 0 0-.277-.986c-.031-.093-.067-.183-.101-.275l-.941.941c.268.893.417 1.837.417 2.815 0 5.404-4.396 9.801-9.801 9.801-5.404 0-9.8-4.396-9.8-9.801 0-5.403 4.396-9.799 9.8-9.799.691 0 1.365.074 2.017.211l.985-.984c-.08-.023-.161-.041-.242-.062a11.192 11.192 0 0 0-1.004-.211c-.131-.021-.261-.044-.393-.06A11.105 11.105 0 0 0 11 2.857c-6.072.007-10.993 4.927-11 11l.002.043a10.956 10.956 0 0 0 1.329 5.198 11.07 11.07 0 0 0 4.738 4.578 10.91 10.91 0 0 0 4.095 1.138c.277.021.554.042.836.042.237 0 .469-.021.703-.036 5.743-.371 10.289-5.13 10.295-10.965 0-.085-.009-.17-.011-.255-.006-.26-.015-.52-.039-.776z"/></svg>