<?xml version="1.0" encoding="utf-8"?>
<!-- Generator: Adobe Illustrator 22.0.0, SVG Export Plug-In . SVG Version: 6.00 Build 0)  -->
<svg version="1.1" id="Layer_1" xmlns="http://www.w3.org/2000/svg" xmlns:xlink="http://www.w3.org/1999/xlink" x="0px" y="0px"
	 viewBox="0 0 23.99 24.856" enable-background="new 0 0 23.99 24.856" xml:space="preserve">
<g>
	<path d="M23.73,2.3l-1.85-1.844c-0.213-0.225-0.49-0.377-0.794-0.435C21.021,0.009,20.956,0.002,20.89,0
		c-0.2-0.002-0.391,0.076-0.532,0.218l-1.84,1.849L6.894,13.655c-0.057,0.094-0.094,0.198-0.109,0.306l-0.753,3.3
		C6.012,17.32,6.002,17.382,6,17.444c0.006,0.153,0.073,0.297,0.185,0.4c0.098,0.098,0.231,0.153,0.37,0.153
		c0.056-0.001,0.111-0.008,0.165-0.021l3.234-0.85c0.094-0.041,0.179-0.099,0.25-0.173L21.8,5.344L23.644,3.5
		c0.198-0.167,0.323-0.406,0.347-0.664C23.983,2.629,23.888,2.434,23.73,2.3z M9.46,15.975l-2.122,0.532l0.544-2.12l0.109-0.129
		l1.6,1.6L9.46,15.975z M10.442,15.017l-1.6-1.611L18.911,3.328l1.611,1.59L10.442,15.017z M21.369,4.089l-1.611-1.6l1.229-1.229
		l1.6,1.6L21.369,4.089z"/>
	<path d="M21.948,12.824c-0.013-0.14-0.036-0.279-0.055-0.419c-0.027-0.205-0.055-0.41-0.094-0.612
		c-0.028-0.145-0.062-0.289-0.096-0.433c-0.045-0.194-0.094-0.388-0.149-0.578c-0.04-0.137-0.083-0.272-0.128-0.408
		c-0.031-0.093-0.067-0.183-0.101-0.275l-0.941,0.941c0.268,0.893,0.417,1.837,0.417,2.815c0,5.404-4.396,9.801-9.801,9.801
		c-5.404,0-9.8-4.396-9.8-9.801c0-5.403,4.396-9.799,9.8-9.799c0.691,0,1.365,0.074,2.017,0.211l0.985-0.984
		c-0.08-0.023-0.161-0.041-0.242-0.062c-0.332-0.086-0.667-0.156-1.004-0.211c-0.131-0.021-0.261-0.044-0.393-0.06
		C11.91,2.894,11.456,2.857,11,2.857c-6.072,0.007-10.993,4.927-11,11c0,0.014,0.002,0.028,0.002,0.043
		c0.009,1.881,0.488,3.652,1.329,5.198c1.072,1.969,2.733,3.567,4.738,4.578c1.248,0.629,2.63,1.027,4.095,1.138
		c0.277,0.021,0.554,0.042,0.836,0.042c0.237,0,0.469-0.021,0.703-0.036c5.743-0.371,10.289-5.13,10.295-10.965
		c0-0.085-0.009-0.17-0.011-0.255C21.981,13.34,21.972,13.08,21.948,12.824z"/>
</g>
</svg>
