<svg xmlns="http://www.w3.org/2000/svg" viewBox="0 0 24 22.238"><path d="M12.089.845c-4.062 0-7.367 3.305-7.367 7.367 0 4.062 3.305 7.367 7.367 7.367 4.062 0 7.367-3.305 7.367-7.367 0-4.062-3.305-7.367-7.367-7.367zm0 13.535a6.175 6.175 0 0 1-6.167-6.168c0-3.4 2.767-6.167 6.167-6.167s6.168 2.767 6.168 6.167a6.176 6.176 0 0 1-6.168 6.168zM.496 22.238h1.213A10.405 10.405 0 0 1 6.55 14.83a8.851 8.851 0 0 1-.944-.828 11.602 11.602 0 0 0-5.11 8.236zm17.898-8.234a8.657 8.657 0 0 1-.945.828 10.4 10.4 0 0 1 4.838 7.406H23.5a11.606 11.606 0 0 0-5.106-8.234z"/></svg>