<svg xmlns="http://www.w3.org/2000/svg" viewBox="0 0 24 16"><path d="M0 0v16h24V0H0zm22.801 14.8H1.2V1.2h21.601v13.6z"/><path d="M2.5 2.2h4v.6h-4zm15 11h4v.6h-4zm-7.234-3.594l-.683.261a2.34 2.34 0 0 0 2.16 1.587v.965h.613v-.965a2.754 2.754 0 0 0 1.367-.442c.438-.337.7-.854.713-1.407 0-.604-.316-1.164-.833-1.477a4.247 4.247 0 0 0-1.246-.412v-2.16a1.321 1.321 0 0 1 1.266.894l.68-.231a2.087 2.087 0 0 0-1.949-1.326v-.834h-.611v.834c-1.025.131-1.879.663-1.879 1.8-.002.547.29 1.053.764 1.326.353.18.728.311 1.115.392v2.341a1.65 1.65 0 0 1-1.477-1.146zm2.09-1.056c.633.08 1.306.372 1.306 1.115a1.193 1.193 0 0 1-1.292 1.087l-.014-.001V8.55zm-1.758-1.979a1.088 1.088 0 0 1 1.145-1.015v2.07c-.583-.111-1.145-.372-1.145-1.055z"/></svg>