<?xml version="1.0" encoding="utf-8"?>
<!-- Generator: Adobe Illustrator 22.0.0, SVG Export Plug-In . SVG Version: 6.00 Build 0)  -->
<svg version="1.1" id="Layer_1" xmlns="http://www.w3.org/2000/svg" xmlns:xlink="http://www.w3.org/1999/xlink" x="0px" y="0px"
	 viewBox="0 0 24 16" enable-background="new 0 0 24 16" xml:space="preserve">
<g>
	<path d="M0-0.06v16h24v-16H0z M22.801,14.74H1.2V1.14h21.601V14.74z"/>
	<rect x="2.5" y="2.14" width="4" height="0.6"/>
	<rect x="17.5" y="13.14" width="4" height="0.6"/>
	<path d="M10.266,9.546L9.583,9.807c0.316,0.93,1.178,1.564,2.16,1.587v0.965h0.613v-0.965c0.487-0.024,0.958-0.176,1.367-0.442
		c0.438-0.337,0.7-0.854,0.713-1.407c0-0.604-0.316-1.164-0.833-1.477c-0.391-0.201-0.812-0.34-1.246-0.412v-2.16
		c0.571-0.007,1.081,0.354,1.266,0.894l0.68-0.231c-0.314-0.802-1.088-1.328-1.949-1.326V3.999h-0.611v0.834
		c-1.025,0.131-1.879,0.663-1.879,1.8c-0.002,0.547,0.29,1.053,0.764,1.326c0.353,0.18,0.728,0.311,1.115,0.392v2.341
		C11.061,10.653,10.474,10.197,10.266,9.546z M12.356,8.49c0.633,0.08,1.306,0.372,1.306,1.115
		c-0.056,0.657-0.635,1.144-1.292,1.087c-0.005,0-0.009-0.001-0.014-0.001V8.49z M10.598,6.511c0.039-0.595,0.55-1.047,1.145-1.015
		v2.07C11.16,7.455,10.598,7.194,10.598,6.511z"/>
</g>
</svg>
