<svg xmlns="http://www.w3.org/2000/svg" viewBox="0 0 24.426 23.158"><path d="M23.574 19.473l-1.917 1.933-1.287-1.274 1.927-1.942-.852-.846-1.928 1.943-1.288-1.275 1.937-1.953-.852-.846-1.939 1.954-1.686-1.67-5.925-6.098a5.591 5.591 0 0 0 1.474-3.78C11.238 2.521 8.717 0 5.619 0S0 2.521 0 5.619s2.521 5.619 5.619 5.619c1.21 0 2.329-.388 3.247-1.042l5.97 6.144 6.826 6.818.848-.909 1.916-1.932-.852-.844zM1.2 5.619C1.2 3.182 3.182 1.2 5.619 1.2s4.419 1.982 4.419 4.419-1.982 4.419-4.419 4.419S1.2 8.056 1.2 5.619z"/></svg>