<?xml version="1.0" encoding="utf-8"?>
<!-- Generator: Adobe Illustrator 22.0.0, SVG Export Plug-In . SVG Version: 6.00 Build 0)  -->
<svg version="1.1" id="Layer_1" xmlns="http://www.w3.org/2000/svg" xmlns:xlink="http://www.w3.org/1999/xlink" x="0px" y="0px"
	 viewBox="0 0 42 51.292" enable-background="new 0 0 42 51.292" xml:space="preserve">
<g>
	<path d="M9,26.292H5v6h4V26.292z M7.8,31.093H6.2v-3.602h1.6V31.093z"/>
	<path d="M16,26.292h-4v6h4V26.292z M14.8,31.093h-1.6v-3.602h1.6V31.093z"/>
	<path d="M12,18.292h4v-6h-4V18.292z M13.2,13.492h1.6v3.6h-1.6V13.492z"/>
	<path d="M23,26.292h-4v6h4V26.292z M21.8,31.093h-1.6v-3.602h1.6V31.093z"/>
	<path d="M19,18.292h4v-6h-4V18.292z M20.2,13.492h1.6v3.6h-1.6V13.492z"/>
	<path d="M30,26.292h-4v6h4V26.292z M28.801,31.093h-1.602v-3.602h1.602V31.093z"/>
	<path d="M26,18.292h4v-6h-4V18.292z M27.199,13.492h1.602v3.6h-1.602V13.492z"/>
	<path d="M37,26.292h-4v6h4V26.292z M35.801,31.093h-1.602v-3.602h1.602V31.093z"/>
	<path d="M9,35.292H5v6h4V35.292z M7.8,40.093H6.2v-3.602h1.6V40.093z"/>
	<path d="M16,35.292h-4v6h4V35.292z M14.8,40.093h-1.6v-3.602h1.6V40.093z"/>
	<path d="M23,35.292h-4v6h4V35.292z M21.8,40.093h-1.6v-3.602h1.6V40.093z"/>
	<path d="M30,35.292h-4v6h4V35.292z M28.801,40.093h-1.602v-3.602h1.602V40.093z"/>
	<path d="M37,35.292h-4v6h4V35.292z M35.801,40.093h-1.602v-3.602h1.602V40.093z"/>
	<path d="M35,21.292v-13h-9.705L21.368,0l-4.364,8.292H7v13H0v30h12h18h12v-30H35z M21.312,2.684l2.507,5.293L21.34,7.977
		l-2.814,0.001L21.312,2.684z M8.2,9.492h25.601v11.6H8.2V9.492z M13.2,50.093v-3.602h15.601v3.602H13.2z M40.801,50.093H30v-4.801
		H12v4.801H1.2V22.492h39.601V50.093z"/>
</g>
</svg>
