<svg xmlns="http://www.w3.org/2000/svg" viewBox="0 0 23.168 24.654"><path d="M11.593 0C7.531 0 4.226 3.305 4.226 7.367s3.305 7.367 7.367 7.367 7.367-3.305 7.367-7.367S15.655 0 11.593 0zm0 13.535a6.175 6.175 0 0 1-6.167-6.168c0-3.4 2.767-6.167 6.167-6.167s6.168 2.767 6.168 6.167a6.176 6.176 0 0 1-6.168 6.168zM0 21.393h1.213a10.405 10.405 0 0 1 4.841-7.408 8.851 8.851 0 0 1-.944-.828A11.602 11.602 0 0 0 0 21.393zm17.898-8.234a8.657 8.657 0 0 1-.945.828 10.4 10.4 0 0 1 4.838 7.406h1.213a11.606 11.606 0 0 0-5.106-8.234z"/></svg>