<svg xmlns="http://www.w3.org/2000/svg" viewBox="0 0 42 51.292"><path d="M9 26.292H5v6h4v-6zm-1.2 4.801H6.2v-3.602h1.6v3.602zm8.2-4.801h-4v6h4v-6zm-1.2 4.801h-1.6v-3.602h1.6v3.602zM12 18.292h4v-6h-4v6zm1.2-4.8h1.6v3.6h-1.6v-3.6zm9.8 12.8h-4v6h4v-6zm-1.2 4.801h-1.6v-3.602h1.6v3.602zM19 18.292h4v-6h-4v6zm1.2-4.8h1.6v3.6h-1.6v-3.6zm9.8 12.8h-4v6h4v-6zm-1.199 4.801h-1.602v-3.602h1.602v3.602zM26 18.292h4v-6h-4v6zm1.199-4.8h1.602v3.6h-1.602v-3.6zM37 26.292h-4v6h4v-6zm-1.199 4.801h-1.602v-3.602h1.602v3.602zM9 35.292H5v6h4v-6zm-1.2 4.801H6.2v-3.602h1.6v3.602zm8.2-4.801h-4v6h4v-6zm-1.2 4.801h-1.6v-3.602h1.6v3.602zm8.2-4.801h-4v6h4v-6zm-1.2 4.801h-1.6v-3.602h1.6v3.602zm8.2-4.801h-4v6h4v-6zm-1.199 4.801h-1.602v-3.602h1.602v3.602zM37 35.292h-4v6h4v-6zm-1.199 4.801h-1.602v-3.602h1.602v3.602z"/><path d="M35 21.292v-13h-9.705L21.368 0l-4.364 8.292H7v13H0v30h42v-30h-7zM21.312 2.684l2.507 5.293H21.34l-2.814.001 2.786-5.294zM8.2 9.492h25.601v11.6H8.2v-11.6zm5 40.601v-3.602h15.601v3.602H13.2zm27.601 0H30v-4.801H12v4.801H1.2V22.492h39.601v27.601z"/></svg>