<svg xmlns="http://www.w3.org/2000/svg" viewBox="0 0 24.178 24.549"><path d="M12.089.845c-4.062 0-7.367 3.305-7.367 7.367s3.305 7.366 7.367 7.366 7.367-3.304 7.367-7.366S16.151.845 12.089.845zm0 13.534c-3.4 0-6.167-2.767-6.167-6.167s2.767-6.167 6.167-6.167c3.401 0 6.167 2.767 6.167 6.167s-2.766 6.167-6.167 6.167zM.506 22.399h1.213a10.488 10.488 0 0 1 4.876-7.462 8.851 8.851 0 0 1-.944-.828 11.685 11.685 0 0 0-5.145 8.29zm18.022-8.29a8.633 8.633 0 0 1-.944.828 10.486 10.486 0 0 1 4.876 7.462h1.212a11.687 11.687 0 0 0-5.144-8.29zm-7.892 2.609l-.697 6.557 2.036 1.274 2.037-1.274-.708-6.557h-2.668zm1.339 6.415l-.764-.478.503-4.738h.512l.512 4.738-.763.478z"/></svg>