<?xml version="1.0" encoding="utf-8"?>
<!-- Generator: Adobe Illustrator 22.0.0, SVG Export Plug-In . SVG Version: 6.00 Build 0)  -->
<svg version="1.1" id="Layer_1" xmlns="http://www.w3.org/2000/svg" xmlns:xlink="http://www.w3.org/1999/xlink" x="0px" y="0px"
	 viewBox="0 0 24 22.238" enable-background="new 0 0 24 22.238" xml:space="preserve">
<g>
	<path d="M12.089,0.845c-4.062,0-7.367,3.305-7.367,7.367c0,4.062,3.305,7.367,7.367,7.367c4.062,0,7.367-3.305,7.367-7.367
		C19.456,4.15,16.151,0.845,12.089,0.845z M12.089,14.38c-3.4,0-6.167-2.767-6.167-6.168c0-3.4,2.767-6.167,6.167-6.167
		s6.168,2.767,6.168,6.167C18.257,11.613,15.489,14.38,12.089,14.38z"/>
	<path d="M0.496,22.238h1.213c0.435-3.13,2.263-5.813,4.841-7.408c-0.335-0.253-0.649-0.531-0.944-0.828
		C2.849,15.83,0.922,18.803,0.496,22.238z"/>
	<path d="M18.394,14.004c-0.295,0.298-0.609,0.575-0.945,0.828c2.577,1.595,4.404,4.277,4.838,7.406H23.5
		C23.074,18.805,21.149,15.833,18.394,14.004z"/>
</g>
</svg>
