<svg xmlns="http://www.w3.org/2000/svg" viewBox="0 0 23.168 24.654"><path d="M18.951 7.367C18.951 3.305 15.646 0 11.584 0S4.217 3.305 4.217 7.367s3.305 7.367 7.367 7.367 7.367-3.305 7.367-7.367zm-13.534 0c0-3.4 2.767-6.167 6.167-6.167s6.168 2.767 6.168 6.167c0 3.401-2.768 6.168-6.168 6.168s-6.167-2.767-6.167-6.168zM0 21.554h1.213a10.486 10.486 0 0 1 4.876-7.462 8.851 8.851 0 0 1-.944-.828A11.694 11.694 0 0 0 0 21.554zm18.023-8.29a8.633 8.633 0 0 1-.944.828 10.487 10.487 0 0 1 4.877 7.462h1.212a11.694 11.694 0 0 0-5.145-8.29zm-3.552 9.189l1.999 1.252 2-1.252v-4.149h-3.999v4.149zm1.199-2.95h1.601v2.286l-.801.5-.8-.5v-2.286zm-4.274-2.849h1.2v8h-1.2z"/></svg>