<svg xmlns="http://www.w3.org/2000/svg" viewBox="0 0 23.14 23.14"><path d="M17.286 8.643C17.286 3.877 13.409 0 8.643 0l-.015.001C4.057.009.317 3.586.028 8.087.016 8.271 0 8.455 0 8.643c0 .201.017.398.03.596.308 4.487 4.048 8.046 8.613 8.046 4.752 0 8.618-3.854 8.641-8.6l.002-.042zm-8.643 7.443c-4.104 0-7.443-3.339-7.443-7.443S4.539 1.2 8.643 1.2s7.444 3.339 7.444 7.443-3.339 7.443-7.444 7.443zm13.864 3.365l-3.962-3.962a2.16 2.16 0 1 0-3.056 3.056l3.962 3.962a2.16 2.16 0 1 0 3.056-3.056z"/></svg>