<?xml version="1.0" encoding="utf-8"?>
<!-- Generator: Adobe Illustrator 22.0.0, SVG Export Plug-In . SVG Version: 6.00 Build 0)  -->
<svg version="1.1" id="Layer_1" xmlns="http://www.w3.org/2000/svg" xmlns:xlink="http://www.w3.org/1999/xlink" x="0px" y="0px"
	 viewBox="0 0 24.035 24.034" enable-background="new 0 0 24.035 24.034" xml:space="preserve">
<g>
	<path d="M17.286,8.643L17.286,8.643C17.286,3.877,13.409,0,8.643,0c-0.005,0-0.01,0.001-0.015,0.001
		c-4.571,0.008-8.311,3.585-8.6,8.086C0.016,8.271,0,8.455,0,8.643c0,0.201,0.017,0.398,0.03,0.596
		c0.308,4.487,4.048,8.046,8.613,8.046c4.752,0,8.618-3.854,8.641-8.6C17.284,8.671,17.286,8.657,17.286,8.643z M8.643,16.086
		c-4.104,0-7.443-3.339-7.443-7.443S4.539,1.2,8.643,1.2c4.104,0,7.444,3.339,7.444,7.443S12.748,16.086,8.643,16.086z"/>
	<path d="M22.507,19.451l-3.962-3.962c-0.844-0.844-2.212-0.844-3.056,0c-0.844,0.844-0.844,2.212,0,3.056l3.962,3.962
		c0.844,0.844,2.212,0.844,3.056,0C23.351,21.663,23.351,20.295,22.507,19.451z"/>
</g>
</svg>
